{
	"asset":{
		"generator":"Khronos glTF Blender I/O v5.1.19",
		"version":"2.0"
	},
	"scene":0,
	"scenes":[
		{
			"name":"Scene",
			"nodes":[
				4
			]
		}
	],
	"nodes":[
		{
			"mesh":0,
			"name":"Object.006",
			"rotation":[
				-0.03700712323188782,
				-0.7061377167701721,
				-0.7061377167701721,
				0.03700712323188782
			],
			"translation":[
				0.022635579109191895,
				-0.007550005801022053,
				-0.00011587142944335938
			]
		},
		{
			"mesh":1,
			"name":"Object_1.004",
			"rotation":[
				-0.03700712323188782,
				-0.7061377167701721,
				-0.7061377167701721,
				0.03700712323188782
			],
			"translation":[
				0.023885607719421387,
				0,
				-0.00011584162712097168
			]
		},
		{
			"mesh":2,
			"name":"Object_105.001",
			"translation":[
				-0.028714299201965332,
				0,
				-0.00011588633060455322
			]
		},
		{
			"mesh":3,
			"name":"Object_2.004",
			"rotation":[
				-0.03700712323188782,
				-0.7061377167701721,
				-0.7061377167701721,
				0.03700712323188782
			],
			"translation":[
				-0.028714299201965332,
				0,
				-0.00011587142944335938
			]
		},
		{
			"children":[
				0,
				1,
				2,
				3
			],
			"name":"weds kranze cerberus ii.obj.cleaner.materialmerger.gles1"
		}
	],
	"materials":[
		{
			"doubleSided":true,
			"name":"Material_145",
			"pbrMetallicRoughness":{
				"baseColorFactor":[
					1,
					0.9490196108818054,
					0.9490196108818054,
					1
				],
				"metallicFactor":0.75,
				"roughnessFactor":0
			}
		},
		{
			"doubleSided":true,
			"name":"Material_144",
			"pbrMetallicRoughness":{
				"baseColorFactor":[
					1,
					0.9490196108818054,
					0.9490196108818054,
					1
				],
				"metallicFactor":0.75,
				"roughnessFactor":0
			}
		},
		{
			"doubleSided":true,
			"name":"Material_146",
			"pbrMetallicRoughness":{
				"baseColorFactor":[
					0,
					0,
					0,
					1
				],
				"metallicFactor":0,
				"roughnessFactor":0
			}
		},
		{
			"doubleSided":true,
			"name":"Material_143",
			"pbrMetallicRoughness":{
				"baseColorFactor":[
					1,
					0.9490196108818054,
					0.9490196108818054,
					1
				],
				"metallicFactor":0.75,
				"roughnessFactor":0
			}
		}
	],
	"meshes":[
		{
			"name":"Mesh_145.001",
			"primitives":[
				{
					"attributes":{
						"POSITION":0,
						"NORMAL":1,
						"TEXCOORD_0":2
					},
					"indices":3,
					"material":0
				}
			]
		},
		{
			"name":"Mesh_144.001",
			"primitives":[
				{
					"attributes":{
						"POSITION":4,
						"NORMAL":5,
						"TEXCOORD_0":6
					},
					"indices":7,
					"material":1
				}
			]
		},
		{
			"name":"Mesh_146.001",
			"primitives":[
				{
					"attributes":{
						"POSITION":8,
						"NORMAL":9,
						"TEXCOORD_0":10
					},
					"indices":11,
					"material":2
				}
			]
		},
		{
			"name":"Mesh_143.001",
			"primitives":[
				{
					"attributes":{
						"POSITION":12,
						"NORMAL":13,
						"TEXCOORD_0":14
					},
					"indices":11,
					"material":3
				}
			]
		}
	],
	"accessors":[
		{
			"bufferView":0,
			"componentType":5126,
			"count":3225,
			"max":[
				-0.019211696460843086,
				0.25360289216041565,
				0.2542498707771301
			],
			"min":[
				-0.08968685567378998,
				-0.25340428948402405,
				-0.25425010919570923
			],
			"type":"VEC3"
		},
		{
			"bufferView":1,
			"componentType":5126,
			"count":3225,
			"type":"VEC3"
		},
		{
			"bufferView":2,
			"componentType":5126,
			"count":3225,
			"type":"VEC2"
		},
		{
			"bufferView":3,
			"componentType":5123,
			"count":3225,
			"type":"SCALAR"
		},
		{
			"bufferView":4,
			"componentType":5126,
			"count":120,
			"max":[
				-0.0188626516610384,
				0.2693164348602295,
				0.2707998752593994
			],
			"min":[
				-0.07547533512115479,
				-0.26931649446487427,
				-0.2708001136779785
			],
			"type":"VEC3"
		},
		{
			"bufferView":5,
			"componentType":5126,
			"count":120,
			"type":"VEC3"
		},
		{
			"bufferView":6,
			"componentType":5126,
			"count":120,
			"type":"VEC2"
		},
		{
			"bufferView":7,
			"componentType":5123,
			"count":120,
			"type":"SCALAR"
		},
		{
			"bufferView":8,
			"componentType":5126,
			"count":720,
			"max":[
				0.1356000006198883,
				0.31537511944770813,
				0.3153749704360962
			],
			"min":[
				-0.1356000006198883,
				-0.3153749108314514,
				-0.3153749108314514
			],
			"type":"VEC3"
		},
		{
			"bufferView":9,
			"componentType":5126,
			"count":720,
			"type":"VEC3"
		},
		{
			"bufferView":10,
			"componentType":5126,
			"count":720,
			"type":"VEC2"
		},
		{
			"bufferView":11,
			"componentType":5123,
			"count":720,
			"type":"SCALAR"
		},
		{
			"bufferView":12,
			"componentType":5126,
			"count":720,
			"max":[
				0.16498233377933502,
				0.30079519748687744,
				0.28819987177848816
			],
			"min":[
				-0.16498233377933502,
				-0.3007952570915222,
				-0.28820011019706726
			],
			"type":"VEC3"
		},
		{
			"bufferView":13,
			"componentType":5126,
			"count":720,
			"type":"VEC3"
		},
		{
			"bufferView":14,
			"componentType":5126,
			"count":720,
			"type":"VEC2"
		}
	],
	"bufferViews":[
		{
			"buffer":0,
			"byteLength":38700,
			"byteOffset":0,
			"target":34962
		},
		{
			"buffer":0,
			"byteLength":38700,
			"byteOffset":38700,
			"target":34962
		},
		{
			"buffer":0,
			"byteLength":25800,
			"byteOffset":77400,
			"target":34962
		},
		{
			"buffer":0,
			"byteLength":6450,
			"byteOffset":103200,
			"target":34963
		},
		{
			"buffer":0,
			"byteLength":1440,
			"byteOffset":109652,
			"target":34962
		},
		{
			"buffer":0,
			"byteLength":1440,
			"byteOffset":111092,
			"target":34962
		},
		{
			"buffer":0,
			"byteLength":960,
			"byteOffset":112532,
			"target":34962
		},
		{
			"buffer":0,
			"byteLength":240,
			"byteOffset":113492,
			"target":34963
		},
		{
			"buffer":0,
			"byteLength":8640,
			"byteOffset":113732,
			"target":34962
		},
		{
			"buffer":0,
			"byteLength":8640,
			"byteOffset":122372,
			"target":34962
		},
		{
			"buffer":0,
			"byteLength":5760,
			"byteOffset":131012,
			"target":34962
		},
		{
			"buffer":0,
			"byteLength":1440,
			"byteOffset":136772,
			"target":34963
		},
		{
			"buffer":0,
			"byteLength":8640,
			"byteOffset":138212,
			"target":34962
		},
		{
			"buffer":0,
			"byteLength":8640,
			"byteOffset":146852,
			"target":34962
		},
		{
			"buffer":0,
			"byteLength":5760,
			"byteOffset":155492,
			"target":34962
		}
	],
	"buffers":[
		{
			"byteLength":161252,
			"uri":"Car_Wheel.bin"
		}
	]
}
