{
	"asset":{
		"generator":"Khronos glTF Blender I/O v5.1.19",
		"version":"2.0"
	},
	"scene":0,
	"scenes":[
		{
			"name":"Scene",
			"nodes":[
				0
			]
		}
	],
	"nodes":[
		{
			"mesh":0,
			"name":"\u7403",
			"scale":[
				92.04656219482422,
				92.04656219482422,
				92.04656219482422
			]
		}
	],
	"materials":[
		{
			"doubleSided":true,
			"name":"\u30de\u30c6\u30ea\u30a2\u30eb",
			"pbrMetallicRoughness":{
				"baseColorTexture":{
					"index":0
				},
				"metallicFactor":0
			}
		}
	],
	"meshes":[
		{
			"name":"\u7403",
			"primitives":[
				{
					"attributes":{
						"POSITION":0,
						"NORMAL":1,
						"TEXCOORD_0":2
					},
					"indices":3,
					"material":0
				}
			]
		}
	],
	"textures":[
		{
			"sampler":0,
			"source":0
		}
	],
	"images":[
		{
			"mimeType":"image/png",
			"name":"galaxybox",
			"uri":"galaxybox.png"
		}
	],
	"accessors":[
		{
			"bufferView":0,
			"componentType":5126,
			"count":4606,
			"max":[
				3.099738121032715,
				3.107602596282959,
				3.094543695449829
			],
			"min":[
				-3.099738359451294,
				-3.107602596282959,
				-3.101471424102783
			],
			"type":"VEC3"
		},
		{
			"bufferView":1,
			"componentType":5126,
			"count":4606,
			"type":"VEC3"
		},
		{
			"bufferView":2,
			"componentType":5126,
			"count":4606,
			"type":"VEC2"
		},
		{
			"bufferView":3,
			"componentType":5123,
			"count":6768,
			"type":"SCALAR"
		}
	],
	"bufferViews":[
		{
			"buffer":0,
			"byteLength":55272,
			"byteOffset":0,
			"target":34962
		},
		{
			"buffer":0,
			"byteLength":55272,
			"byteOffset":55272,
			"target":34962
		},
		{
			"buffer":0,
			"byteLength":36848,
			"byteOffset":110544,
			"target":34962
		},
		{
			"buffer":0,
			"byteLength":13536,
			"byteOffset":147392,
			"target":34963
		}
	],
	"samplers":[
		{
			"magFilter":9729,
			"minFilter":9987
		}
	],
	"buffers":[
		{
			"byteLength":160928,
			"uri":"galaxybox.bin"
		}
	]
}
