{
	"asset":{
		"generator":"Khronos glTF Blender I/O v5.1.19",
		"version":"2.0"
	},
	"scene":0,
	"scenes":[
		{
			"name":"Scene",
			"nodes":[
				6
			]
		}
	],
	"nodes":[
		{
			"mesh":0,
			"name":"Object_39"
		},
		{
			"mesh":1,
			"name":"Object_40"
		},
		{
			"mesh":2,
			"name":"Object_41"
		},
		{
			"mesh":3,
			"name":"Object_42"
		},
		{
			"mesh":4,
			"name":"Object_43"
		},
		{
			"mesh":5,
			"name":"Object_44"
		},
		{
			"children":[
				0,
				1,
				2,
				3,
				4,
				5
			],
			"name":"Tree-02-2_5",
			"scale":[
				30.144533157348633,
				30.144533157348633,
				30.144533157348633
			],
			"translation":[
				1.2102181911468506,
				0,
				-0.31730157136917114
			]
		}
	],
	"materials":[
		{
			"doubleSided":true,
			"name":"trunk-01",
			"pbrMetallicRoughness":{
				"baseColorTexture":{
					"index":0
				},
				"metallicFactor":0,
				"roughnessFactor":0.3431819975376129
			}
		},
		{
			"alphaMode":"BLEND",
			"doubleSided":true,
			"name":"branch-2-02",
			"pbrMetallicRoughness":{
				"baseColorTexture":{
					"index":1
				},
				"metallicFactor":0,
				"roughnessFactor":0.5
			}
		},
		{
			"alphaMode":"BLEND",
			"doubleSided":true,
			"name":"branch-2-01",
			"pbrMetallicRoughness":{
				"baseColorTexture":{
					"index":2
				},
				"metallicFactor":0,
				"roughnessFactor":0.5
			}
		},
		{
			"alphaMode":"BLEND",
			"doubleSided":true,
			"name":"branch-2-04",
			"pbrMetallicRoughness":{
				"baseColorTexture":{
					"index":3
				},
				"metallicFactor":0,
				"roughnessFactor":0.5
			}
		},
		{
			"alphaMode":"BLEND",
			"doubleSided":true,
			"name":"branch-2-05",
			"pbrMetallicRoughness":{
				"baseColorTexture":{
					"index":4
				},
				"metallicFactor":0,
				"roughnessFactor":0.5
			}
		},
		{
			"alphaMode":"BLEND",
			"doubleSided":true,
			"name":"branch-2-03",
			"pbrMetallicRoughness":{
				"baseColorTexture":{
					"index":5
				},
				"metallicFactor":0,
				"roughnessFactor":0.5
			}
		}
	],
	"meshes":[
		{
			"name":"Object_30",
			"primitives":[
				{
					"attributes":{
						"POSITION":0,
						"NORMAL":1,
						"TEXCOORD_0":2
					},
					"indices":3,
					"material":0
				}
			]
		},
		{
			"name":"Object_31",
			"primitives":[
				{
					"attributes":{
						"POSITION":4,
						"NORMAL":5,
						"TEXCOORD_0":6
					},
					"indices":7,
					"material":1
				}
			]
		},
		{
			"name":"Object_32",
			"primitives":[
				{
					"attributes":{
						"POSITION":8,
						"NORMAL":9,
						"TEXCOORD_0":10
					},
					"indices":11,
					"material":2
				}
			]
		},
		{
			"name":"Object_33",
			"primitives":[
				{
					"attributes":{
						"POSITION":12,
						"NORMAL":13,
						"TEXCOORD_0":14
					},
					"indices":15,
					"material":3
				}
			]
		},
		{
			"name":"Object_34",
			"primitives":[
				{
					"attributes":{
						"POSITION":16,
						"NORMAL":17,
						"TEXCOORD_0":18
					},
					"indices":19,
					"material":4
				}
			]
		},
		{
			"name":"Object_35",
			"primitives":[
				{
					"attributes":{
						"POSITION":20,
						"NORMAL":21,
						"TEXCOORD_0":22
					},
					"indices":23,
					"material":5
				}
			]
		}
	],
	"textures":[
		{
			"sampler":0,
			"source":0
		},
		{
			"sampler":0,
			"source":1
		},
		{
			"sampler":0,
			"source":2
		},
		{
			"sampler":0,
			"source":3
		},
		{
			"sampler":0,
			"source":4
		},
		{
			"sampler":0,
			"source":5
		}
	],
	"images":[
		{
			"mimeType":"image/jpeg",
			"name":"trunk-01-1_baseColor",
			"uri":"trunk-01-1_baseColor.jpg"
		},
		{
			"mimeType":"image/png",
			"name":"branch-2-02_baseColor",
			"uri":"branch-2-02_baseColor.png"
		},
		{
			"mimeType":"image/png",
			"name":"branch-2-01_baseColor",
			"uri":"branch-2-01_baseColor.png"
		},
		{
			"mimeType":"image/png",
			"name":"branch-2-04_baseColor",
			"uri":"branch-2-04_baseColor.png"
		},
		{
			"mimeType":"image/png",
			"name":"branch-2-05_baseColor",
			"uri":"branch-2-05_baseColor.png"
		},
		{
			"mimeType":"image/png",
			"name":"branch-2-03_baseColor",
			"uri":"branch-2-03_baseColor.png"
		}
	],
	"accessors":[
		{
			"bufferView":0,
			"componentType":5126,
			"count":296,
			"max":[
				1.2804012298583984,
				6.986281871795654,
				0.8786478042602539
			],
			"min":[
				-0.6633539199829102,
				0,
				-0.2158660888671875
			],
			"type":"VEC3"
		},
		{
			"bufferView":1,
			"componentType":5126,
			"count":296,
			"type":"VEC3"
		},
		{
			"bufferView":2,
			"componentType":5126,
			"count":296,
			"type":"VEC2"
		},
		{
			"bufferView":3,
			"componentType":5123,
			"count":666,
			"type":"SCALAR"
		},
		{
			"bufferView":4,
			"componentType":5126,
			"count":127,
			"max":[
				2.553802490234375,
				7.794216632843018,
				3.37496280670166
			],
			"min":[
				-2.589742660522461,
				0.5577106475830078,
				-3.100368022918701
			],
			"type":"VEC3"
		},
		{
			"bufferView":5,
			"componentType":5126,
			"count":127,
			"type":"VEC3"
		},
		{
			"bufferView":6,
			"componentType":5126,
			"count":127,
			"type":"VEC2"
		},
		{
			"bufferView":7,
			"componentType":5123,
			"count":336,
			"type":"SCALAR"
		},
		{
			"bufferView":8,
			"componentType":5126,
			"count":142,
			"max":[
				2.745697021484375,
				7.98792028427124,
				3.5089340209960938
			],
			"min":[
				-2.511251449584961,
				1.1536965370178223,
				-2.720447540283203
			],
			"type":"VEC3"
		},
		{
			"bufferView":9,
			"componentType":5126,
			"count":142,
			"type":"VEC3"
		},
		{
			"bufferView":10,
			"componentType":5126,
			"count":142,
			"type":"VEC2"
		},
		{
			"bufferView":11,
			"componentType":5123,
			"count":360,
			"type":"SCALAR"
		},
		{
			"bufferView":12,
			"componentType":5126,
			"count":118,
			"max":[
				2.023904800415039,
				7.851191997528076,
				1.0842838287353516
			],
			"min":[
				-1.3217592239379883,
				2.573625326156616,
				-2.1255197525024414
			],
			"type":"VEC3"
		},
		{
			"bufferView":13,
			"componentType":5126,
			"count":118,
			"type":"VEC3"
		},
		{
			"bufferView":14,
			"componentType":5126,
			"count":118,
			"type":"VEC2"
		},
		{
			"bufferView":15,
			"componentType":5123,
			"count":240,
			"type":"SCALAR"
		},
		{
			"bufferView":16,
			"componentType":5126,
			"count":84,
			"max":[
				3.1522254943847656,
				7.829141616821289,
				1.5627660751342773
			],
			"min":[
				-1.1900358200073242,
				1.227705478668213,
				-1.7020783424377441
			],
			"type":"VEC3"
		},
		{
			"bufferView":17,
			"componentType":5126,
			"count":84,
			"type":"VEC3"
		},
		{
			"bufferView":18,
			"componentType":5126,
			"count":84,
			"type":"VEC2"
		},
		{
			"bufferView":19,
			"componentType":5123,
			"count":192,
			"type":"SCALAR"
		},
		{
			"bufferView":20,
			"componentType":5126,
			"count":57,
			"max":[
				1.4880924224853516,
				7.479917526245117,
				1.8112621307373047
			],
			"min":[
				-2.3471603393554688,
				0.9133405685424805,
				-2.4768853187561035
			],
			"type":"VEC3"
		},
		{
			"bufferView":21,
			"componentType":5126,
			"count":57,
			"type":"VEC3"
		},
		{
			"bufferView":22,
			"componentType":5126,
			"count":57,
			"type":"VEC2"
		},
		{
			"bufferView":23,
			"componentType":5123,
			"count":144,
			"type":"SCALAR"
		}
	],
	"bufferViews":[
		{
			"buffer":0,
			"byteLength":3552,
			"byteOffset":0,
			"target":34962
		},
		{
			"buffer":0,
			"byteLength":3552,
			"byteOffset":3552,
			"target":34962
		},
		{
			"buffer":0,
			"byteLength":2368,
			"byteOffset":7104,
			"target":34962
		},
		{
			"buffer":0,
			"byteLength":1332,
			"byteOffset":9472,
			"target":34963
		},
		{
			"buffer":0,
			"byteLength":1524,
			"byteOffset":10804,
			"target":34962
		},
		{
			"buffer":0,
			"byteLength":1524,
			"byteOffset":12328,
			"target":34962
		},
		{
			"buffer":0,
			"byteLength":1016,
			"byteOffset":13852,
			"target":34962
		},
		{
			"buffer":0,
			"byteLength":672,
			"byteOffset":14868,
			"target":34963
		},
		{
			"buffer":0,
			"byteLength":1704,
			"byteOffset":15540,
			"target":34962
		},
		{
			"buffer":0,
			"byteLength":1704,
			"byteOffset":17244,
			"target":34962
		},
		{
			"buffer":0,
			"byteLength":1136,
			"byteOffset":18948,
			"target":34962
		},
		{
			"buffer":0,
			"byteLength":720,
			"byteOffset":20084,
			"target":34963
		},
		{
			"buffer":0,
			"byteLength":1416,
			"byteOffset":20804,
			"target":34962
		},
		{
			"buffer":0,
			"byteLength":1416,
			"byteOffset":22220,
			"target":34962
		},
		{
			"buffer":0,
			"byteLength":944,
			"byteOffset":23636,
			"target":34962
		},
		{
			"buffer":0,
			"byteLength":480,
			"byteOffset":24580,
			"target":34963
		},
		{
			"buffer":0,
			"byteLength":1008,
			"byteOffset":25060,
			"target":34962
		},
		{
			"buffer":0,
			"byteLength":1008,
			"byteOffset":26068,
			"target":34962
		},
		{
			"buffer":0,
			"byteLength":672,
			"byteOffset":27076,
			"target":34962
		},
		{
			"buffer":0,
			"byteLength":384,
			"byteOffset":27748,
			"target":34963
		},
		{
			"buffer":0,
			"byteLength":684,
			"byteOffset":28132,
			"target":34962
		},
		{
			"buffer":0,
			"byteLength":684,
			"byteOffset":28816,
			"target":34962
		},
		{
			"buffer":0,
			"byteLength":456,
			"byteOffset":29500,
			"target":34962
		},
		{
			"buffer":0,
			"byteLength":288,
			"byteOffset":29956,
			"target":34963
		}
	],
	"samplers":[
		{
			"magFilter":9729,
			"minFilter":9987
		}
	],
	"buffers":[
		{
			"byteLength":30244,
			"uri":"Tree6.bin"
		}
	]
}
