{
	"asset":{
		"generator":"Khronos glTF Blender I/O v5.1.19",
		"version":"2.0"
	},
	"scene":0,
	"scenes":[
		{
			"name":"Scene",
			"nodes":[
				6
			]
		}
	],
	"nodes":[
		{
			"mesh":0,
			"name":"Object_53"
		},
		{
			"mesh":1,
			"name":"Object_54"
		},
		{
			"mesh":2,
			"name":"Object_55"
		},
		{
			"mesh":3,
			"name":"Object_56"
		},
		{
			"mesh":4,
			"name":"Object_57"
		},
		{
			"mesh":5,
			"name":"Object_58"
		},
		{
			"children":[
				0,
				1,
				2,
				3,
				4,
				5
			],
			"name":"Tree-02-4_7",
			"scale":[
				30.144533157348633,
				30.144533157348633,
				30.144533157348633
			],
			"translation":[
				0.5094265937805176,
				0,
				5.451255798339844
			]
		}
	],
	"materials":[
		{
			"doubleSided":true,
			"name":"trunk-01",
			"pbrMetallicRoughness":{
				"baseColorTexture":{
					"index":0
				},
				"metallicFactor":0,
				"roughnessFactor":0.3431819975376129
			}
		},
		{
			"alphaMode":"BLEND",
			"doubleSided":true,
			"name":"branch-2-02",
			"pbrMetallicRoughness":{
				"baseColorTexture":{
					"index":1
				},
				"metallicFactor":0,
				"roughnessFactor":0.5
			}
		},
		{
			"alphaMode":"BLEND",
			"doubleSided":true,
			"name":"branch-2-01",
			"pbrMetallicRoughness":{
				"baseColorTexture":{
					"index":2
				},
				"metallicFactor":0,
				"roughnessFactor":0.5
			}
		},
		{
			"alphaMode":"BLEND",
			"doubleSided":true,
			"name":"branch-2-04",
			"pbrMetallicRoughness":{
				"baseColorTexture":{
					"index":3
				},
				"metallicFactor":0,
				"roughnessFactor":0.5
			}
		},
		{
			"alphaMode":"BLEND",
			"doubleSided":true,
			"name":"branch-2-05",
			"pbrMetallicRoughness":{
				"baseColorTexture":{
					"index":4
				},
				"metallicFactor":0,
				"roughnessFactor":0.5
			}
		},
		{
			"alphaMode":"BLEND",
			"doubleSided":true,
			"name":"branch-2-03",
			"pbrMetallicRoughness":{
				"baseColorTexture":{
					"index":5
				},
				"metallicFactor":0,
				"roughnessFactor":0.5
			}
		}
	],
	"meshes":[
		{
			"name":"Object_42",
			"primitives":[
				{
					"attributes":{
						"POSITION":0,
						"NORMAL":1,
						"TEXCOORD_0":2
					},
					"indices":3,
					"material":0
				}
			]
		},
		{
			"name":"Object_43",
			"primitives":[
				{
					"attributes":{
						"POSITION":4,
						"NORMAL":5,
						"TEXCOORD_0":6
					},
					"indices":7,
					"material":1
				}
			]
		},
		{
			"name":"Object_44",
			"primitives":[
				{
					"attributes":{
						"POSITION":8,
						"NORMAL":9,
						"TEXCOORD_0":10
					},
					"indices":11,
					"material":2
				}
			]
		},
		{
			"name":"Object_45",
			"primitives":[
				{
					"attributes":{
						"POSITION":12,
						"NORMAL":13,
						"TEXCOORD_0":14
					},
					"indices":15,
					"material":3
				}
			]
		},
		{
			"name":"Object_46",
			"primitives":[
				{
					"attributes":{
						"POSITION":16,
						"NORMAL":17,
						"TEXCOORD_0":18
					},
					"indices":19,
					"material":4
				}
			]
		},
		{
			"name":"Object_47",
			"primitives":[
				{
					"attributes":{
						"POSITION":20,
						"NORMAL":21,
						"TEXCOORD_0":22
					},
					"indices":23,
					"material":5
				}
			]
		}
	],
	"textures":[
		{
			"sampler":0,
			"source":0
		},
		{
			"sampler":0,
			"source":1
		},
		{
			"sampler":0,
			"source":2
		},
		{
			"sampler":0,
			"source":3
		},
		{
			"sampler":0,
			"source":4
		},
		{
			"sampler":0,
			"source":5
		}
	],
	"images":[
		{
			"mimeType":"image/jpeg",
			"name":"trunk-01-1_baseColor",
			"uri":"trunk-01-1_baseColor.jpg"
		},
		{
			"mimeType":"image/png",
			"name":"branch-2-02_baseColor",
			"uri":"branch-2-02_baseColor.png"
		},
		{
			"mimeType":"image/png",
			"name":"branch-2-01_baseColor",
			"uri":"branch-2-01_baseColor.png"
		},
		{
			"mimeType":"image/png",
			"name":"branch-2-04_baseColor",
			"uri":"branch-2-04_baseColor.png"
		},
		{
			"mimeType":"image/png",
			"name":"branch-2-05_baseColor",
			"uri":"branch-2-05_baseColor.png"
		},
		{
			"mimeType":"image/png",
			"name":"branch-2-03_baseColor",
			"uri":"branch-2-03_baseColor.png"
		}
	],
	"accessors":[
		{
			"bufferView":0,
			"componentType":5126,
			"count":171,
			"max":[
				0.7457675933837891,
				4.644649505615234,
				0.4536895751953125
			],
			"min":[
				-0.09815692901611328,
				-0.001608133316040039,
				-0.5771751403808594
			],
			"type":"VEC3"
		},
		{
			"bufferView":1,
			"componentType":5126,
			"count":171,
			"type":"VEC3"
		},
		{
			"bufferView":2,
			"componentType":5126,
			"count":171,
			"type":"VEC2"
		},
		{
			"bufferView":3,
			"componentType":5123,
			"count":360,
			"type":"SCALAR"
		},
		{
			"bufferView":4,
			"componentType":5126,
			"count":74,
			"max":[
				1.6034698486328125,
				5.3130903244018555,
				1.9411125183105469
			],
			"min":[
				-1.4440135955810547,
				-0.05120348930358887,
				-2.2702770233154297
			],
			"type":"VEC3"
		},
		{
			"bufferView":5,
			"componentType":5126,
			"count":74,
			"type":"VEC3"
		},
		{
			"bufferView":6,
			"componentType":5126,
			"count":74,
			"type":"VEC2"
		},
		{
			"bufferView":7,
			"componentType":5123,
			"count":192,
			"type":"SCALAR"
		},
		{
			"bufferView":8,
			"componentType":5126,
			"count":104,
			"max":[
				1.96563720703125,
				5.198597431182861,
				2.0972537994384766
			],
			"min":[
				-1.8749399185180664,
				-0.09799480438232422,
				-2.3004531860351562
			],
			"type":"VEC3"
		},
		{
			"bufferView":9,
			"componentType":5126,
			"count":104,
			"type":"VEC3"
		},
		{
			"bufferView":10,
			"componentType":5126,
			"count":104,
			"type":"VEC2"
		},
		{
			"bufferView":11,
			"componentType":5123,
			"count":264,
			"type":"SCALAR"
		},
		{
			"bufferView":12,
			"componentType":5126,
			"count":81,
			"max":[
				1.8292236328125,
				5.3462815284729,
				1.608205795288086
			],
			"min":[
				-0.39373207092285156,
				0.29923105239868164,
				-1.293283462524414
			],
			"type":"VEC3"
		},
		{
			"bufferView":13,
			"componentType":5126,
			"count":81,
			"type":"VEC3"
		},
		{
			"bufferView":14,
			"componentType":5126,
			"count":81,
			"type":"VEC2"
		},
		{
			"bufferView":15,
			"componentType":5123,
			"count":168,
			"type":"SCALAR"
		},
		{
			"bufferView":16,
			"componentType":5126,
			"count":30,
			"max":[
				1.4295215606689453,
				5.388020992279053,
				1.8141136169433594
			],
			"min":[
				-0.36062145233154297,
				0.47463488578796387,
				-0.7432727813720703
			],
			"type":"VEC3"
		},
		{
			"bufferView":17,
			"componentType":5126,
			"count":30,
			"type":"VEC3"
		},
		{
			"bufferView":18,
			"componentType":5126,
			"count":30,
			"type":"VEC2"
		},
		{
			"bufferView":19,
			"componentType":5123,
			"count":72,
			"type":"SCALAR"
		},
		{
			"bufferView":20,
			"componentType":5126,
			"count":29,
			"max":[
				1.1647167205810547,
				4.672969341278076,
				0.31207847595214844
			],
			"min":[
				-1.0111303329467773,
				1.8377248048782349,
				-1.933767318725586
			],
			"type":"VEC3"
		},
		{
			"bufferView":21,
			"componentType":5126,
			"count":29,
			"type":"VEC3"
		},
		{
			"bufferView":22,
			"componentType":5126,
			"count":29,
			"type":"VEC2"
		},
		{
			"bufferView":23,
			"componentType":5123,
			"count":72,
			"type":"SCALAR"
		}
	],
	"bufferViews":[
		{
			"buffer":0,
			"byteLength":2052,
			"byteOffset":0,
			"target":34962
		},
		{
			"buffer":0,
			"byteLength":2052,
			"byteOffset":2052,
			"target":34962
		},
		{
			"buffer":0,
			"byteLength":1368,
			"byteOffset":4104,
			"target":34962
		},
		{
			"buffer":0,
			"byteLength":720,
			"byteOffset":5472,
			"target":34963
		},
		{
			"buffer":0,
			"byteLength":888,
			"byteOffset":6192,
			"target":34962
		},
		{
			"buffer":0,
			"byteLength":888,
			"byteOffset":7080,
			"target":34962
		},
		{
			"buffer":0,
			"byteLength":592,
			"byteOffset":7968,
			"target":34962
		},
		{
			"buffer":0,
			"byteLength":384,
			"byteOffset":8560,
			"target":34963
		},
		{
			"buffer":0,
			"byteLength":1248,
			"byteOffset":8944,
			"target":34962
		},
		{
			"buffer":0,
			"byteLength":1248,
			"byteOffset":10192,
			"target":34962
		},
		{
			"buffer":0,
			"byteLength":832,
			"byteOffset":11440,
			"target":34962
		},
		{
			"buffer":0,
			"byteLength":528,
			"byteOffset":12272,
			"target":34963
		},
		{
			"buffer":0,
			"byteLength":972,
			"byteOffset":12800,
			"target":34962
		},
		{
			"buffer":0,
			"byteLength":972,
			"byteOffset":13772,
			"target":34962
		},
		{
			"buffer":0,
			"byteLength":648,
			"byteOffset":14744,
			"target":34962
		},
		{
			"buffer":0,
			"byteLength":336,
			"byteOffset":15392,
			"target":34963
		},
		{
			"buffer":0,
			"byteLength":360,
			"byteOffset":15728,
			"target":34962
		},
		{
			"buffer":0,
			"byteLength":360,
			"byteOffset":16088,
			"target":34962
		},
		{
			"buffer":0,
			"byteLength":240,
			"byteOffset":16448,
			"target":34962
		},
		{
			"buffer":0,
			"byteLength":144,
			"byteOffset":16688,
			"target":34963
		},
		{
			"buffer":0,
			"byteLength":348,
			"byteOffset":16832,
			"target":34962
		},
		{
			"buffer":0,
			"byteLength":348,
			"byteOffset":17180,
			"target":34962
		},
		{
			"buffer":0,
			"byteLength":232,
			"byteOffset":17528,
			"target":34962
		},
		{
			"buffer":0,
			"byteLength":144,
			"byteOffset":17760,
			"target":34963
		}
	],
	"samplers":[
		{
			"magFilter":9729,
			"minFilter":9987
		}
	],
	"buffers":[
		{
			"byteLength":17904,
			"uri":"Tree8.bin"
		}
	]
}
