{
	"asset":{
		"generator":"Khronos glTF Blender I/O v5.1.19",
		"version":"2.0"
	},
	"scene":0,
	"scenes":[
		{
			"name":"Scene",
			"nodes":[
				6
			]
		}
	],
	"nodes":[
		{
			"mesh":0,
			"name":"Object_25"
		},
		{
			"mesh":1,
			"name":"Object_26"
		},
		{
			"mesh":2,
			"name":"Object_27"
		},
		{
			"mesh":3,
			"name":"Object_28"
		},
		{
			"mesh":4,
			"name":"Object_29"
		},
		{
			"mesh":5,
			"name":"Object_30"
		},
		{
			"children":[
				0,
				1,
				2,
				3,
				4,
				5
			],
			"name":"Tree-01-4_3",
			"scale":[
				30.144533157348633,
				30.144533157348633,
				30.144533157348633
			],
			"translation":[
				3.681804895401001,
				0,
				0.09652681648731232
			]
		}
	],
	"materials":[
		{
			"doubleSided":true,
			"name":"trunk-01-1",
			"pbrMetallicRoughness":{
				"baseColorTexture":{
					"index":0
				},
				"metallicFactor":0,
				"roughnessFactor":0.3431819975376129
			}
		},
		{
			"alphaMode":"BLEND",
			"doubleSided":true,
			"name":"branch-02-1",
			"pbrMetallicRoughness":{
				"baseColorTexture":{
					"index":1
				},
				"metallicFactor":0,
				"roughnessFactor":0.5
			}
		},
		{
			"alphaMode":"BLEND",
			"doubleSided":true,
			"name":"branch-01-1",
			"pbrMetallicRoughness":{
				"baseColorTexture":{
					"index":2
				},
				"metallicFactor":0,
				"roughnessFactor":0.5
			}
		},
		{
			"alphaMode":"BLEND",
			"doubleSided":true,
			"name":"branch-04-1",
			"pbrMetallicRoughness":{
				"baseColorTexture":{
					"index":3
				},
				"metallicFactor":0,
				"roughnessFactor":0.5
			}
		},
		{
			"alphaMode":"BLEND",
			"doubleSided":true,
			"name":"branch-05-1",
			"pbrMetallicRoughness":{
				"baseColorTexture":{
					"index":4
				},
				"metallicFactor":0,
				"roughnessFactor":0.5
			}
		},
		{
			"alphaMode":"BLEND",
			"doubleSided":true,
			"name":"branch-03-1",
			"pbrMetallicRoughness":{
				"baseColorTexture":{
					"index":5
				},
				"metallicFactor":0,
				"roughnessFactor":0.5
			}
		}
	],
	"meshes":[
		{
			"name":"Object_18",
			"primitives":[
				{
					"attributes":{
						"POSITION":0,
						"NORMAL":1,
						"TEXCOORD_0":2
					},
					"indices":3,
					"material":0
				}
			]
		},
		{
			"name":"Object_19",
			"primitives":[
				{
					"attributes":{
						"POSITION":4,
						"NORMAL":5,
						"TEXCOORD_0":6
					},
					"indices":7,
					"material":1
				}
			]
		},
		{
			"name":"Object_20",
			"primitives":[
				{
					"attributes":{
						"POSITION":8,
						"NORMAL":9,
						"TEXCOORD_0":10
					},
					"indices":11,
					"material":2
				}
			]
		},
		{
			"name":"Object_21",
			"primitives":[
				{
					"attributes":{
						"POSITION":12,
						"NORMAL":13,
						"TEXCOORD_0":14
					},
					"indices":15,
					"material":3
				}
			]
		},
		{
			"name":"Object_22",
			"primitives":[
				{
					"attributes":{
						"POSITION":16,
						"NORMAL":17,
						"TEXCOORD_0":18
					},
					"indices":19,
					"material":4
				}
			]
		},
		{
			"name":"Object_23",
			"primitives":[
				{
					"attributes":{
						"POSITION":20,
						"NORMAL":21,
						"TEXCOORD_0":22
					},
					"indices":23,
					"material":5
				}
			]
		}
	],
	"textures":[
		{
			"sampler":0,
			"source":0
		},
		{
			"sampler":0,
			"source":1
		},
		{
			"sampler":0,
			"source":2
		},
		{
			"sampler":0,
			"source":3
		},
		{
			"sampler":0,
			"source":4
		},
		{
			"sampler":0,
			"source":5
		}
	],
	"images":[
		{
			"mimeType":"image/jpeg",
			"name":"trunk-01-1_baseColor",
			"uri":"trunk-01-1_baseColor.jpg"
		},
		{
			"mimeType":"image/png",
			"name":"branch-02-1_baseColor",
			"uri":"branch-02-1_baseColor.png"
		},
		{
			"mimeType":"image/png",
			"name":"branch-01-1_baseColor",
			"uri":"branch-01-1_baseColor.png"
		},
		{
			"mimeType":"image/png",
			"name":"branch-04-1_baseColor",
			"uri":"branch-04-1_baseColor.png"
		},
		{
			"mimeType":"image/png",
			"name":"branch-05-1_baseColor",
			"uri":"branch-05-1_baseColor.png"
		},
		{
			"mimeType":"image/png",
			"name":"branch-03-1_baseColor",
			"uri":"branch-03-1_baseColor.png"
		}
	],
	"accessors":[
		{
			"bufferView":0,
			"componentType":5126,
			"count":172,
			"max":[
				0.6782970428466797,
				4.758853912353516,
				0.9323234558105469
			],
			"min":[
				-0.13690567016601562,
				0,
				-0.17395782470703125
			],
			"type":"VEC3"
		},
		{
			"bufferView":1,
			"componentType":5126,
			"count":172,
			"type":"VEC3"
		},
		{
			"bufferView":2,
			"componentType":5126,
			"count":172,
			"type":"VEC2"
		},
		{
			"bufferView":3,
			"componentType":5123,
			"count":360,
			"type":"SCALAR"
		},
		{
			"bufferView":4,
			"componentType":5126,
			"count":74,
			"max":[
				2.425729751586914,
				5.205697536468506,
				1.966024398803711
			],
			"min":[
				-1.572530746459961,
				0.00950765609741211,
				-2.054615020751953
			],
			"type":"VEC3"
		},
		{
			"bufferView":5,
			"componentType":5126,
			"count":74,
			"type":"VEC3"
		},
		{
			"bufferView":6,
			"componentType":5126,
			"count":74,
			"type":"VEC2"
		},
		{
			"bufferView":7,
			"componentType":5123,
			"count":192,
			"type":"SCALAR"
		},
		{
			"bufferView":8,
			"componentType":5126,
			"count":107,
			"max":[
				2.4388418197631836,
				5.251376628875732,
				1.6444282531738281
			],
			"min":[
				-2.2775278091430664,
				-0.01782703399658203,
				-1.7576789855957031
			],
			"type":"VEC3"
		},
		{
			"bufferView":9,
			"componentType":5126,
			"count":107,
			"type":"VEC3"
		},
		{
			"bufferView":10,
			"componentType":5126,
			"count":107,
			"type":"VEC2"
		},
		{
			"bufferView":11,
			"componentType":5123,
			"count":264,
			"type":"SCALAR"
		},
		{
			"bufferView":12,
			"componentType":5126,
			"count":72,
			"max":[
				1.5699167251586914,
				5.387494087219238,
				1.32928466796875
			],
			"min":[
				-0.24324798583984375,
				0.5328569412231445,
				-0.6388492584228516
			],
			"type":"VEC3"
		},
		{
			"bufferView":13,
			"componentType":5126,
			"count":72,
			"type":"VEC3"
		},
		{
			"bufferView":14,
			"componentType":5126,
			"count":72,
			"type":"VEC2"
		},
		{
			"bufferView":15,
			"componentType":5123,
			"count":144,
			"type":"SCALAR"
		},
		{
			"bufferView":16,
			"componentType":5126,
			"count":32,
			"max":[
				1.1109628677368164,
				5.366044998168945,
				1.9007835388183594
			],
			"min":[
				-1.0942001342773438,
				0.5457162857055664,
				-0.5824470520019531
			],
			"type":"VEC3"
		},
		{
			"bufferView":17,
			"componentType":5126,
			"count":32,
			"type":"VEC3"
		},
		{
			"bufferView":18,
			"componentType":5126,
			"count":32,
			"type":"VEC2"
		},
		{
			"bufferView":19,
			"componentType":5123,
			"count":72,
			"type":"SCALAR"
		},
		{
			"bufferView":20,
			"componentType":5126,
			"count":30,
			"max":[
				2.174891471862793,
				4.640087604522705,
				0.8639965057373047
			],
			"min":[
				-0.6964569091796875,
				2.0659871101379395,
				-1.6685466766357422
			],
			"type":"VEC3"
		},
		{
			"bufferView":21,
			"componentType":5126,
			"count":30,
			"type":"VEC3"
		},
		{
			"bufferView":22,
			"componentType":5126,
			"count":30,
			"type":"VEC2"
		},
		{
			"bufferView":23,
			"componentType":5123,
			"count":72,
			"type":"SCALAR"
		}
	],
	"bufferViews":[
		{
			"buffer":0,
			"byteLength":2064,
			"byteOffset":0,
			"target":34962
		},
		{
			"buffer":0,
			"byteLength":2064,
			"byteOffset":2064,
			"target":34962
		},
		{
			"buffer":0,
			"byteLength":1376,
			"byteOffset":4128,
			"target":34962
		},
		{
			"buffer":0,
			"byteLength":720,
			"byteOffset":5504,
			"target":34963
		},
		{
			"buffer":0,
			"byteLength":888,
			"byteOffset":6224,
			"target":34962
		},
		{
			"buffer":0,
			"byteLength":888,
			"byteOffset":7112,
			"target":34962
		},
		{
			"buffer":0,
			"byteLength":592,
			"byteOffset":8000,
			"target":34962
		},
		{
			"buffer":0,
			"byteLength":384,
			"byteOffset":8592,
			"target":34963
		},
		{
			"buffer":0,
			"byteLength":1284,
			"byteOffset":8976,
			"target":34962
		},
		{
			"buffer":0,
			"byteLength":1284,
			"byteOffset":10260,
			"target":34962
		},
		{
			"buffer":0,
			"byteLength":856,
			"byteOffset":11544,
			"target":34962
		},
		{
			"buffer":0,
			"byteLength":528,
			"byteOffset":12400,
			"target":34963
		},
		{
			"buffer":0,
			"byteLength":864,
			"byteOffset":12928,
			"target":34962
		},
		{
			"buffer":0,
			"byteLength":864,
			"byteOffset":13792,
			"target":34962
		},
		{
			"buffer":0,
			"byteLength":576,
			"byteOffset":14656,
			"target":34962
		},
		{
			"buffer":0,
			"byteLength":288,
			"byteOffset":15232,
			"target":34963
		},
		{
			"buffer":0,
			"byteLength":384,
			"byteOffset":15520,
			"target":34962
		},
		{
			"buffer":0,
			"byteLength":384,
			"byteOffset":15904,
			"target":34962
		},
		{
			"buffer":0,
			"byteLength":256,
			"byteOffset":16288,
			"target":34962
		},
		{
			"buffer":0,
			"byteLength":144,
			"byteOffset":16544,
			"target":34963
		},
		{
			"buffer":0,
			"byteLength":360,
			"byteOffset":16688,
			"target":34962
		},
		{
			"buffer":0,
			"byteLength":360,
			"byteOffset":17048,
			"target":34962
		},
		{
			"buffer":0,
			"byteLength":240,
			"byteOffset":17408,
			"target":34962
		},
		{
			"buffer":0,
			"byteLength":144,
			"byteOffset":17648,
			"target":34963
		}
	],
	"samplers":[
		{
			"magFilter":9729,
			"minFilter":9987
		}
	],
	"buffers":[
		{
			"byteLength":17792,
			"uri":"Tree4.bin"
		}
	]
}
