{
	"asset":{
		"generator":"Khronos glTF Blender I/O v5.1.19",
		"version":"2.0"
	},
	"scene":0,
	"scenes":[
		{
			"name":"Scene",
			"nodes":[
				6
			]
		}
	],
	"nodes":[
		{
			"mesh":0,
			"name":"Object_74"
		},
		{
			"mesh":1,
			"name":"Object_75"
		},
		{
			"mesh":2,
			"name":"Object_76"
		},
		{
			"mesh":3,
			"name":"Object_77"
		},
		{
			"mesh":4,
			"name":"Object_78"
		},
		{
			"mesh":5,
			"name":"Object_79"
		},
		{
			"children":[
				0,
				1,
				2,
				3,
				4,
				5
			],
			"name":"Tree-03-3_10",
			"scale":[
				30.144533157348633,
				30.144533157348633,
				30.144533157348633
			],
			"translation":[
				1.5052019357681274,
				0,
				1.3449691534042358
			]
		}
	],
	"materials":[
		{
			"doubleSided":true,
			"name":"trunk-01",
			"pbrMetallicRoughness":{
				"baseColorTexture":{
					"index":0
				},
				"metallicFactor":0,
				"roughnessFactor":0.3431819975376129
			}
		},
		{
			"alphaMode":"BLEND",
			"doubleSided":true,
			"name":"branch-02",
			"pbrMetallicRoughness":{
				"baseColorTexture":{
					"index":1
				},
				"metallicFactor":0,
				"roughnessFactor":0.5
			}
		},
		{
			"alphaMode":"BLEND",
			"doubleSided":true,
			"name":"branch-01",
			"pbrMetallicRoughness":{
				"baseColorTexture":{
					"index":2
				},
				"metallicFactor":0,
				"roughnessFactor":0.5
			}
		},
		{
			"alphaMode":"BLEND",
			"doubleSided":true,
			"name":"branch-04",
			"pbrMetallicRoughness":{
				"baseColorTexture":{
					"index":3
				},
				"metallicFactor":0,
				"roughnessFactor":0.5
			}
		},
		{
			"alphaMode":"BLEND",
			"doubleSided":true,
			"name":"branch-05",
			"pbrMetallicRoughness":{
				"baseColorTexture":{
					"index":4
				},
				"metallicFactor":0,
				"roughnessFactor":0.5
			}
		},
		{
			"alphaMode":"BLEND",
			"doubleSided":true,
			"name":"branch-03",
			"pbrMetallicRoughness":{
				"baseColorTexture":{
					"index":5
				},
				"metallicFactor":0,
				"roughnessFactor":0.5
			}
		}
	],
	"meshes":[
		{
			"name":"Object_60",
			"primitives":[
				{
					"attributes":{
						"POSITION":0,
						"NORMAL":1,
						"TEXCOORD_0":2
					},
					"indices":3,
					"material":0
				}
			]
		},
		{
			"name":"Object_61",
			"primitives":[
				{
					"attributes":{
						"POSITION":4,
						"NORMAL":5,
						"TEXCOORD_0":6
					},
					"indices":7,
					"material":1
				}
			]
		},
		{
			"name":"Object_62",
			"primitives":[
				{
					"attributes":{
						"POSITION":8,
						"NORMAL":9,
						"TEXCOORD_0":10
					},
					"indices":11,
					"material":2
				}
			]
		},
		{
			"name":"Object_63",
			"primitives":[
				{
					"attributes":{
						"POSITION":12,
						"NORMAL":13,
						"TEXCOORD_0":14
					},
					"indices":15,
					"material":3
				}
			]
		},
		{
			"name":"Object_64",
			"primitives":[
				{
					"attributes":{
						"POSITION":16,
						"NORMAL":17,
						"TEXCOORD_0":18
					},
					"indices":19,
					"material":4
				}
			]
		},
		{
			"name":"Object_65",
			"primitives":[
				{
					"attributes":{
						"POSITION":20,
						"NORMAL":21,
						"TEXCOORD_0":22
					},
					"indices":23,
					"material":5
				}
			]
		}
	],
	"textures":[
		{
			"sampler":0,
			"source":0
		},
		{
			"sampler":0,
			"source":1
		},
		{
			"sampler":0,
			"source":2
		},
		{
			"sampler":0,
			"source":3
		},
		{
			"sampler":0,
			"source":4
		},
		{
			"sampler":0,
			"source":5
		}
	],
	"images":[
		{
			"mimeType":"image/jpeg",
			"name":"trunk-01-1_baseColor",
			"uri":"trunk-01-1_baseColor.jpg"
		},
		{
			"mimeType":"image/png",
			"name":"branch-02_baseColor",
			"uri":"branch-02_baseColor.png"
		},
		{
			"mimeType":"image/png",
			"name":"branch-01_baseColor",
			"uri":"branch-01_baseColor.png"
		},
		{
			"mimeType":"image/png",
			"name":"branch-04_baseColor",
			"uri":"branch-04_baseColor.png"
		},
		{
			"mimeType":"image/png",
			"name":"branch-05_baseColor",
			"uri":"branch-05_baseColor.png"
		},
		{
			"mimeType":"image/png",
			"name":"branch-03_baseColor",
			"uri":"branch-03_baseColor.png"
		}
	],
	"accessors":[
		{
			"bufferView":0,
			"componentType":5126,
			"count":182,
			"max":[
				0.18226051330566406,
				6.4977641105651855,
				0.520237922668457
			],
			"min":[
				-0.5529632568359375,
				-0.006605625152587891,
				-0.8766412734985352
			],
			"type":"VEC3"
		},
		{
			"bufferView":1,
			"componentType":5126,
			"count":182,
			"type":"VEC3"
		},
		{
			"bufferView":2,
			"componentType":5126,
			"count":182,
			"type":"VEC2"
		},
		{
			"bufferView":3,
			"componentType":5123,
			"count":396,
			"type":"SCALAR"
		},
		{
			"bufferView":4,
			"componentType":5126,
			"count":94,
			"max":[
				2.691265106201172,
				7.015528678894043,
				2.5197229385375977
			],
			"min":[
				-3.3786144256591797,
				-0.36211681365966797,
				-2.6367616653442383
			],
			"type":"VEC3"
		},
		{
			"bufferView":5,
			"componentType":5126,
			"count":94,
			"type":"VEC3"
		},
		{
			"bufferView":6,
			"componentType":5126,
			"count":94,
			"type":"VEC2"
		},
		{
			"bufferView":7,
			"componentType":5123,
			"count":240,
			"type":"SCALAR"
		},
		{
			"bufferView":8,
			"componentType":5126,
			"count":119,
			"max":[
				3.2872695922851562,
				7.24460506439209,
				2.35646915435791
			],
			"min":[
				-2.0381927490234375,
				0.9976291656494141,
				-3.1634092330932617
			],
			"type":"VEC3"
		},
		{
			"bufferView":9,
			"componentType":5126,
			"count":119,
			"type":"VEC3"
		},
		{
			"bufferView":10,
			"componentType":5126,
			"count":119,
			"type":"VEC2"
		},
		{
			"bufferView":11,
			"componentType":5123,
			"count":288,
			"type":"SCALAR"
		},
		{
			"bufferView":12,
			"componentType":5126,
			"count":72,
			"max":[
				0.09299850463867188,
				7.148791313171387,
				0.9391393661499023
			],
			"min":[
				-3.0504322052001953,
				1.6801204681396484,
				-1.2721538543701172
			],
			"type":"VEC3"
		},
		{
			"bufferView":13,
			"componentType":5126,
			"count":72,
			"type":"VEC3"
		},
		{
			"bufferView":14,
			"componentType":5126,
			"count":72,
			"type":"VEC2"
		},
		{
			"bufferView":15,
			"componentType":5123,
			"count":144,
			"type":"SCALAR"
		},
		{
			"bufferView":16,
			"componentType":5126,
			"count":32,
			"max":[
				1.137054443359375,
				7.1588592529296875,
				0.9351282119750977
			],
			"min":[
				-1.7620563507080078,
				2.5321357250213623,
				-2.5930910110473633
			],
			"type":"VEC3"
		},
		{
			"bufferView":17,
			"componentType":5126,
			"count":32,
			"type":"VEC3"
		},
		{
			"bufferView":18,
			"componentType":5126,
			"count":32,
			"type":"VEC2"
		},
		{
			"bufferView":19,
			"componentType":5123,
			"count":72,
			"type":"SCALAR"
		},
		{
			"bufferView":20,
			"componentType":5126,
			"count":39,
			"max":[
				2.1026153564453125,
				6.545815467834473,
				2.489802360534668
			],
			"min":[
				-2.5249366760253906,
				0.8462128639221191,
				-0.4363365173339844
			],
			"type":"VEC3"
		},
		{
			"bufferView":21,
			"componentType":5126,
			"count":39,
			"type":"VEC3"
		},
		{
			"bufferView":22,
			"componentType":5126,
			"count":39,
			"type":"VEC2"
		},
		{
			"bufferView":23,
			"componentType":5123,
			"count":96,
			"type":"SCALAR"
		}
	],
	"bufferViews":[
		{
			"buffer":0,
			"byteLength":2184,
			"byteOffset":0,
			"target":34962
		},
		{
			"buffer":0,
			"byteLength":2184,
			"byteOffset":2184,
			"target":34962
		},
		{
			"buffer":0,
			"byteLength":1456,
			"byteOffset":4368,
			"target":34962
		},
		{
			"buffer":0,
			"byteLength":792,
			"byteOffset":5824,
			"target":34963
		},
		{
			"buffer":0,
			"byteLength":1128,
			"byteOffset":6616,
			"target":34962
		},
		{
			"buffer":0,
			"byteLength":1128,
			"byteOffset":7744,
			"target":34962
		},
		{
			"buffer":0,
			"byteLength":752,
			"byteOffset":8872,
			"target":34962
		},
		{
			"buffer":0,
			"byteLength":480,
			"byteOffset":9624,
			"target":34963
		},
		{
			"buffer":0,
			"byteLength":1428,
			"byteOffset":10104,
			"target":34962
		},
		{
			"buffer":0,
			"byteLength":1428,
			"byteOffset":11532,
			"target":34962
		},
		{
			"buffer":0,
			"byteLength":952,
			"byteOffset":12960,
			"target":34962
		},
		{
			"buffer":0,
			"byteLength":576,
			"byteOffset":13912,
			"target":34963
		},
		{
			"buffer":0,
			"byteLength":864,
			"byteOffset":14488,
			"target":34962
		},
		{
			"buffer":0,
			"byteLength":864,
			"byteOffset":15352,
			"target":34962
		},
		{
			"buffer":0,
			"byteLength":576,
			"byteOffset":16216,
			"target":34962
		},
		{
			"buffer":0,
			"byteLength":288,
			"byteOffset":16792,
			"target":34963
		},
		{
			"buffer":0,
			"byteLength":384,
			"byteOffset":17080,
			"target":34962
		},
		{
			"buffer":0,
			"byteLength":384,
			"byteOffset":17464,
			"target":34962
		},
		{
			"buffer":0,
			"byteLength":256,
			"byteOffset":17848,
			"target":34962
		},
		{
			"buffer":0,
			"byteLength":144,
			"byteOffset":18104,
			"target":34963
		},
		{
			"buffer":0,
			"byteLength":468,
			"byteOffset":18248,
			"target":34962
		},
		{
			"buffer":0,
			"byteLength":468,
			"byteOffset":18716,
			"target":34962
		},
		{
			"buffer":0,
			"byteLength":312,
			"byteOffset":19184,
			"target":34962
		},
		{
			"buffer":0,
			"byteLength":192,
			"byteOffset":19496,
			"target":34963
		}
	],
	"samplers":[
		{
			"magFilter":9729,
			"minFilter":9987
		}
	],
	"buffers":[
		{
			"byteLength":19688,
			"uri":"Tree11.bin"
		}
	]
}
