{
	"asset":{
		"generator":"Khronos glTF Blender I/O v5.1.19",
		"version":"2.0"
	},
	"scene":0,
	"scenes":[
		{
			"name":"Scene",
			"nodes":[
				6
			]
		}
	],
	"nodes":[
		{
			"mesh":0,
			"name":"Object_67"
		},
		{
			"mesh":1,
			"name":"Object_68"
		},
		{
			"mesh":2,
			"name":"Object_69"
		},
		{
			"mesh":3,
			"name":"Object_70"
		},
		{
			"mesh":4,
			"name":"Object_71"
		},
		{
			"mesh":5,
			"name":"Object_72"
		},
		{
			"children":[
				0,
				1,
				2,
				3,
				4,
				5
			],
			"name":"Tree-03-2_9",
			"scale":[
				30.144533157348633,
				30.144533157348633,
				30.144533157348633
			],
			"translation":[
				1.1456211805343628,
				0,
				1.307107925415039
			]
		}
	],
	"materials":[
		{
			"doubleSided":true,
			"name":"trunk-01",
			"pbrMetallicRoughness":{
				"baseColorTexture":{
					"index":0
				},
				"metallicFactor":0,
				"roughnessFactor":0.3431819975376129
			}
		},
		{
			"alphaMode":"BLEND",
			"doubleSided":true,
			"name":"branch-02",
			"pbrMetallicRoughness":{
				"baseColorTexture":{
					"index":1
				},
				"metallicFactor":0,
				"roughnessFactor":0.5
			}
		},
		{
			"alphaMode":"BLEND",
			"doubleSided":true,
			"name":"branch-01",
			"pbrMetallicRoughness":{
				"baseColorTexture":{
					"index":2
				},
				"metallicFactor":0,
				"roughnessFactor":0.5
			}
		},
		{
			"alphaMode":"BLEND",
			"doubleSided":true,
			"name":"branch-04",
			"pbrMetallicRoughness":{
				"baseColorTexture":{
					"index":3
				},
				"metallicFactor":0,
				"roughnessFactor":0.5
			}
		},
		{
			"alphaMode":"BLEND",
			"doubleSided":true,
			"name":"branch-05",
			"pbrMetallicRoughness":{
				"baseColorTexture":{
					"index":4
				},
				"metallicFactor":0,
				"roughnessFactor":0.5
			}
		},
		{
			"alphaMode":"BLEND",
			"doubleSided":true,
			"name":"branch-03",
			"pbrMetallicRoughness":{
				"baseColorTexture":{
					"index":5
				},
				"metallicFactor":0,
				"roughnessFactor":0.5
			}
		}
	],
	"meshes":[
		{
			"name":"Object_54",
			"primitives":[
				{
					"attributes":{
						"POSITION":0,
						"NORMAL":1,
						"TEXCOORD_0":2
					},
					"indices":3,
					"material":0
				}
			]
		},
		{
			"name":"Object_55",
			"primitives":[
				{
					"attributes":{
						"POSITION":4,
						"NORMAL":5,
						"TEXCOORD_0":6
					},
					"indices":7,
					"material":1
				}
			]
		},
		{
			"name":"Object_56",
			"primitives":[
				{
					"attributes":{
						"POSITION":8,
						"NORMAL":9,
						"TEXCOORD_0":10
					},
					"indices":11,
					"material":2
				}
			]
		},
		{
			"name":"Object_57",
			"primitives":[
				{
					"attributes":{
						"POSITION":12,
						"NORMAL":13,
						"TEXCOORD_0":14
					},
					"indices":15,
					"material":3
				}
			]
		},
		{
			"name":"Object_58",
			"primitives":[
				{
					"attributes":{
						"POSITION":16,
						"NORMAL":17,
						"TEXCOORD_0":18
					},
					"indices":19,
					"material":4
				}
			]
		},
		{
			"name":"Object_59",
			"primitives":[
				{
					"attributes":{
						"POSITION":20,
						"NORMAL":21,
						"TEXCOORD_0":22
					},
					"indices":23,
					"material":5
				}
			]
		}
	],
	"textures":[
		{
			"sampler":0,
			"source":0
		},
		{
			"sampler":0,
			"source":1
		},
		{
			"sampler":0,
			"source":2
		},
		{
			"sampler":0,
			"source":3
		},
		{
			"sampler":0,
			"source":4
		},
		{
			"sampler":0,
			"source":5
		}
	],
	"images":[
		{
			"mimeType":"image/jpeg",
			"name":"trunk-01-1_baseColor",
			"uri":"trunk-01-1_baseColor.jpg"
		},
		{
			"mimeType":"image/png",
			"name":"branch-02_baseColor",
			"uri":"branch-02_baseColor.png"
		},
		{
			"mimeType":"image/png",
			"name":"branch-01_baseColor",
			"uri":"branch-01_baseColor.png"
		},
		{
			"mimeType":"image/png",
			"name":"branch-04_baseColor",
			"uri":"branch-04_baseColor.png"
		},
		{
			"mimeType":"image/png",
			"name":"branch-05_baseColor",
			"uri":"branch-05_baseColor.png"
		},
		{
			"mimeType":"image/png",
			"name":"branch-03_baseColor",
			"uri":"branch-03_baseColor.png"
		}
	],
	"accessors":[
		{
			"bufferView":0,
			"componentType":5126,
			"count":296,
			"max":[
				0.7186832427978516,
				7.666217803955078,
				0.5427608489990234
			],
			"min":[
				-1.3887996673583984,
				0,
				-0.9424686431884766
			],
			"type":"VEC3"
		},
		{
			"bufferView":1,
			"componentType":5126,
			"count":296,
			"type":"VEC3"
		},
		{
			"bufferView":2,
			"componentType":5126,
			"count":296,
			"type":"VEC2"
		},
		{
			"bufferView":3,
			"componentType":5123,
			"count":666,
			"type":"SCALAR"
		},
		{
			"bufferView":4,
			"componentType":5126,
			"count":129,
			"max":[
				3.3221282958984375,
				8.356861114501953,
				3.556309700012207
			],
			"min":[
				-3.012561798095703,
				1.1312527656555176,
				-3.0380520820617676
			],
			"type":"VEC3"
		},
		{
			"bufferView":5,
			"componentType":5126,
			"count":129,
			"type":"VEC3"
		},
		{
			"bufferView":6,
			"componentType":5126,
			"count":129,
			"type":"VEC2"
		},
		{
			"bufferView":7,
			"componentType":5123,
			"count":336,
			"type":"SCALAR"
		},
		{
			"bufferView":8,
			"componentType":5126,
			"count":144,
			"max":[
				3.07757568359375,
				8.684433937072754,
				3.181272506713867
			],
			"min":[
				-3.025613784790039,
				1.5080325603485107,
				-3.0715322494506836
			],
			"type":"VEC3"
		},
		{
			"bufferView":9,
			"componentType":5126,
			"count":144,
			"type":"VEC3"
		},
		{
			"bufferView":10,
			"componentType":5126,
			"count":144,
			"type":"VEC2"
		},
		{
			"bufferView":11,
			"componentType":5123,
			"count":360,
			"type":"SCALAR"
		},
		{
			"bufferView":12,
			"componentType":5126,
			"count":120,
			"max":[
				1.4465084075927734,
				8.545442581176758,
				2.402674674987793
			],
			"min":[
				-2.220613479614258,
				3.0545575618743896,
				-1.2555065155029297
			],
			"type":"VEC3"
		},
		{
			"bufferView":13,
			"componentType":5126,
			"count":120,
			"type":"VEC3"
		},
		{
			"bufferView":14,
			"componentType":5126,
			"count":120,
			"type":"VEC2"
		},
		{
			"bufferView":15,
			"componentType":5123,
			"count":240,
			"type":"SCALAR"
		},
		{
			"bufferView":16,
			"componentType":5126,
			"count":84,
			"max":[
				1.2928180694580078,
				8.523027420043945,
				2.207988739013672
			],
			"min":[
				-3.2689552307128906,
				1.9373507499694824,
				-1.2966375350952148
			],
			"type":"VEC3"
		},
		{
			"bufferView":17,
			"componentType":5126,
			"count":84,
			"type":"VEC3"
		},
		{
			"bufferView":18,
			"componentType":5126,
			"count":84,
			"type":"VEC2"
		},
		{
			"bufferView":19,
			"componentType":5123,
			"count":192,
			"type":"SCALAR"
		},
		{
			"bufferView":20,
			"componentType":5126,
			"count":57,
			"max":[
				3.0250244140625,
				8.06307315826416,
				2.891622543334961
			],
			"min":[
				-1.9372749328613281,
				1.2388806343078613,
				-2.5765037536621094
			],
			"type":"VEC3"
		},
		{
			"bufferView":21,
			"componentType":5126,
			"count":57,
			"type":"VEC3"
		},
		{
			"bufferView":22,
			"componentType":5126,
			"count":57,
			"type":"VEC2"
		},
		{
			"bufferView":23,
			"componentType":5123,
			"count":144,
			"type":"SCALAR"
		}
	],
	"bufferViews":[
		{
			"buffer":0,
			"byteLength":3552,
			"byteOffset":0,
			"target":34962
		},
		{
			"buffer":0,
			"byteLength":3552,
			"byteOffset":3552,
			"target":34962
		},
		{
			"buffer":0,
			"byteLength":2368,
			"byteOffset":7104,
			"target":34962
		},
		{
			"buffer":0,
			"byteLength":1332,
			"byteOffset":9472,
			"target":34963
		},
		{
			"buffer":0,
			"byteLength":1548,
			"byteOffset":10804,
			"target":34962
		},
		{
			"buffer":0,
			"byteLength":1548,
			"byteOffset":12352,
			"target":34962
		},
		{
			"buffer":0,
			"byteLength":1032,
			"byteOffset":13900,
			"target":34962
		},
		{
			"buffer":0,
			"byteLength":672,
			"byteOffset":14932,
			"target":34963
		},
		{
			"buffer":0,
			"byteLength":1728,
			"byteOffset":15604,
			"target":34962
		},
		{
			"buffer":0,
			"byteLength":1728,
			"byteOffset":17332,
			"target":34962
		},
		{
			"buffer":0,
			"byteLength":1152,
			"byteOffset":19060,
			"target":34962
		},
		{
			"buffer":0,
			"byteLength":720,
			"byteOffset":20212,
			"target":34963
		},
		{
			"buffer":0,
			"byteLength":1440,
			"byteOffset":20932,
			"target":34962
		},
		{
			"buffer":0,
			"byteLength":1440,
			"byteOffset":22372,
			"target":34962
		},
		{
			"buffer":0,
			"byteLength":960,
			"byteOffset":23812,
			"target":34962
		},
		{
			"buffer":0,
			"byteLength":480,
			"byteOffset":24772,
			"target":34963
		},
		{
			"buffer":0,
			"byteLength":1008,
			"byteOffset":25252,
			"target":34962
		},
		{
			"buffer":0,
			"byteLength":1008,
			"byteOffset":26260,
			"target":34962
		},
		{
			"buffer":0,
			"byteLength":672,
			"byteOffset":27268,
			"target":34962
		},
		{
			"buffer":0,
			"byteLength":384,
			"byteOffset":27940,
			"target":34963
		},
		{
			"buffer":0,
			"byteLength":684,
			"byteOffset":28324,
			"target":34962
		},
		{
			"buffer":0,
			"byteLength":684,
			"byteOffset":29008,
			"target":34962
		},
		{
			"buffer":0,
			"byteLength":456,
			"byteOffset":29692,
			"target":34962
		},
		{
			"buffer":0,
			"byteLength":288,
			"byteOffset":30148,
			"target":34963
		}
	],
	"samplers":[
		{
			"magFilter":9729,
			"minFilter":9987
		}
	],
	"buffers":[
		{
			"byteLength":30436,
			"uri":"Tree10.bin"
		}
	]
}
