{
	"asset":{
		"generator":"Khronos glTF Blender I/O v5.1.19",
		"version":"2.0"
	},
	"scene":0,
	"scenes":[
		{
			"name":"Scene",
			"nodes":[
				6
			]
		}
	],
	"nodes":[
		{
			"mesh":0,
			"name":"Object_81"
		},
		{
			"mesh":1,
			"name":"Object_82"
		},
		{
			"mesh":2,
			"name":"Object_83"
		},
		{
			"mesh":3,
			"name":"Object_84"
		},
		{
			"mesh":4,
			"name":"Object_85"
		},
		{
			"mesh":5,
			"name":"Object_86"
		},
		{
			"children":[
				0,
				1,
				2,
				3,
				4,
				5
			],
			"name":"Tree-03-4_11",
			"scale":[
				30.144533157348633,
				30.144533157348633,
				30.144533157348633
			],
			"translation":[
				-5.630873203277588,
				0,
				-2.2615621089935303
			]
		}
	],
	"materials":[
		{
			"doubleSided":true,
			"name":"trunk-01",
			"pbrMetallicRoughness":{
				"baseColorTexture":{
					"index":0
				},
				"metallicFactor":0,
				"roughnessFactor":0.3431819975376129
			}
		},
		{
			"alphaMode":"BLEND",
			"doubleSided":true,
			"name":"branch-02",
			"pbrMetallicRoughness":{
				"baseColorTexture":{
					"index":1
				},
				"metallicFactor":0,
				"roughnessFactor":0.5
			}
		},
		{
			"alphaMode":"BLEND",
			"doubleSided":true,
			"name":"branch-01",
			"pbrMetallicRoughness":{
				"baseColorTexture":{
					"index":2
				},
				"metallicFactor":0,
				"roughnessFactor":0.5
			}
		},
		{
			"alphaMode":"BLEND",
			"doubleSided":true,
			"name":"branch-04",
			"pbrMetallicRoughness":{
				"baseColorTexture":{
					"index":3
				},
				"metallicFactor":0,
				"roughnessFactor":0.5
			}
		},
		{
			"alphaMode":"BLEND",
			"doubleSided":true,
			"name":"branch-05",
			"pbrMetallicRoughness":{
				"baseColorTexture":{
					"index":4
				},
				"metallicFactor":0,
				"roughnessFactor":0.5
			}
		},
		{
			"alphaMode":"BLEND",
			"doubleSided":true,
			"name":"branch-03",
			"pbrMetallicRoughness":{
				"baseColorTexture":{
					"index":5
				},
				"metallicFactor":0,
				"roughnessFactor":0.5
			}
		}
	],
	"meshes":[
		{
			"name":"Object_66",
			"primitives":[
				{
					"attributes":{
						"POSITION":0,
						"NORMAL":1,
						"TEXCOORD_0":2
					},
					"indices":3,
					"material":0
				}
			]
		},
		{
			"name":"Object_67",
			"primitives":[
				{
					"attributes":{
						"POSITION":4,
						"NORMAL":5,
						"TEXCOORD_0":6
					},
					"indices":7,
					"material":1
				}
			]
		},
		{
			"name":"Object_68",
			"primitives":[
				{
					"attributes":{
						"POSITION":8,
						"NORMAL":9,
						"TEXCOORD_0":10
					},
					"indices":11,
					"material":2
				}
			]
		},
		{
			"name":"Object_69",
			"primitives":[
				{
					"attributes":{
						"POSITION":12,
						"NORMAL":13,
						"TEXCOORD_0":14
					},
					"indices":15,
					"material":3
				}
			]
		},
		{
			"name":"Object_70",
			"primitives":[
				{
					"attributes":{
						"POSITION":16,
						"NORMAL":17,
						"TEXCOORD_0":18
					},
					"indices":19,
					"material":4
				}
			]
		},
		{
			"name":"Object_71",
			"primitives":[
				{
					"attributes":{
						"POSITION":20,
						"NORMAL":21,
						"TEXCOORD_0":22
					},
					"indices":23,
					"material":5
				}
			]
		}
	],
	"textures":[
		{
			"sampler":0,
			"source":0
		},
		{
			"sampler":0,
			"source":1
		},
		{
			"sampler":0,
			"source":2
		},
		{
			"sampler":0,
			"source":3
		},
		{
			"sampler":0,
			"source":4
		},
		{
			"sampler":0,
			"source":5
		}
	],
	"images":[
		{
			"mimeType":"image/jpeg",
			"name":"trunk-01-1_baseColor",
			"uri":"trunk-01-1_baseColor.jpg"
		},
		{
			"mimeType":"image/png",
			"name":"branch-02_baseColor",
			"uri":"branch-02_baseColor.png"
		},
		{
			"mimeType":"image/png",
			"name":"branch-01_baseColor",
			"uri":"branch-01_baseColor.png"
		},
		{
			"mimeType":"image/png",
			"name":"branch-04_baseColor",
			"uri":"branch-04_baseColor.png"
		},
		{
			"mimeType":"image/png",
			"name":"branch-05_baseColor",
			"uri":"branch-05_baseColor.png"
		},
		{
			"mimeType":"image/png",
			"name":"branch-03_baseColor",
			"uri":"branch-03_baseColor.png"
		}
	],
	"accessors":[
		{
			"bufferView":0,
			"componentType":5126,
			"count":172,
			"max":[
				0.6627349853515625,
				5.4749884605407715,
				0.8253440856933594
			],
			"min":[
				-0.5663681030273438,
				-0.0018956661224365234,
				-0.1019439697265625
			],
			"type":"VEC3"
		},
		{
			"bufferView":1,
			"componentType":5126,
			"count":172,
			"type":"VEC3"
		},
		{
			"bufferView":2,
			"componentType":5126,
			"count":172,
			"type":"VEC2"
		},
		{
			"bufferView":3,
			"componentType":5123,
			"count":360,
			"type":"SCALAR"
		},
		{
			"bufferView":4,
			"componentType":5126,
			"count":74,
			"max":[
				2.1996002197265625,
				6.0531182289123535,
				1.9560089111328125
			],
			"min":[
				-2.1085433959960938,
				-0.06035733222961426,
				-1.5624103546142578
			],
			"type":"VEC3"
		},
		{
			"bufferView":5,
			"componentType":5126,
			"count":74,
			"type":"VEC3"
		},
		{
			"bufferView":6,
			"componentType":5126,
			"count":74,
			"type":"VEC2"
		},
		{
			"bufferView":7,
			"componentType":5123,
			"count":192,
			"type":"SCALAR"
		},
		{
			"bufferView":8,
			"componentType":5126,
			"count":106,
			"max":[
				2.4028797149658203,
				6.127967834472656,
				2.200876235961914
			],
			"min":[
				-2.1835861206054688,
				0.11420583724975586,
				-2.1642589569091797
			],
			"type":"VEC3"
		},
		{
			"bufferView":9,
			"componentType":5126,
			"count":106,
			"type":"VEC3"
		},
		{
			"bufferView":10,
			"componentType":5126,
			"count":106,
			"type":"VEC2"
		},
		{
			"bufferView":11,
			"componentType":5123,
			"count":264,
			"type":"SCALAR"
		},
		{
			"bufferView":12,
			"componentType":5126,
			"count":81,
			"max":[
				1.3351402282714844,
				6.302053451538086,
				2.1344356536865234
			],
			"min":[
				-1.8690223693847656,
				0.3527255058288574,
				-0.38799095153808594
			],
			"type":"VEC3"
		},
		{
			"bufferView":13,
			"componentType":5126,
			"count":81,
			"type":"VEC3"
		},
		{
			"bufferView":14,
			"componentType":5126,
			"count":81,
			"type":"VEC2"
		},
		{
			"bufferView":15,
			"componentType":5123,
			"count":168,
			"type":"SCALAR"
		},
		{
			"bufferView":16,
			"componentType":5126,
			"count":30,
			"max":[
				0.9552745819091797,
				6.351254940032959,
				1.8157405853271484
			],
			"min":[
				-1.9850482940673828,
				1.0160613059997559,
				-0.4635276794433594
			],
			"type":"VEC3"
		},
		{
			"bufferView":17,
			"componentType":5126,
			"count":30,
			"type":"VEC3"
		},
		{
			"bufferView":18,
			"componentType":5126,
			"count":30,
			"type":"VEC2"
		},
		{
			"bufferView":19,
			"componentType":5123,
			"count":72,
			"type":"SCALAR"
		},
		{
			"bufferView":20,
			"componentType":5126,
			"count":29,
			"max":[
				2.1385250091552734,
				5.315596580505371,
				1.4042797088623047
			],
			"min":[
				-0.27322959899902344,
				2.1662609577178955,
				-1.1693248748779297
			],
			"type":"VEC3"
		},
		{
			"bufferView":21,
			"componentType":5126,
			"count":29,
			"type":"VEC3"
		},
		{
			"bufferView":22,
			"componentType":5126,
			"count":29,
			"type":"VEC2"
		},
		{
			"bufferView":23,
			"componentType":5123,
			"count":72,
			"type":"SCALAR"
		}
	],
	"bufferViews":[
		{
			"buffer":0,
			"byteLength":2064,
			"byteOffset":0,
			"target":34962
		},
		{
			"buffer":0,
			"byteLength":2064,
			"byteOffset":2064,
			"target":34962
		},
		{
			"buffer":0,
			"byteLength":1376,
			"byteOffset":4128,
			"target":34962
		},
		{
			"buffer":0,
			"byteLength":720,
			"byteOffset":5504,
			"target":34963
		},
		{
			"buffer":0,
			"byteLength":888,
			"byteOffset":6224,
			"target":34962
		},
		{
			"buffer":0,
			"byteLength":888,
			"byteOffset":7112,
			"target":34962
		},
		{
			"buffer":0,
			"byteLength":592,
			"byteOffset":8000,
			"target":34962
		},
		{
			"buffer":0,
			"byteLength":384,
			"byteOffset":8592,
			"target":34963
		},
		{
			"buffer":0,
			"byteLength":1272,
			"byteOffset":8976,
			"target":34962
		},
		{
			"buffer":0,
			"byteLength":1272,
			"byteOffset":10248,
			"target":34962
		},
		{
			"buffer":0,
			"byteLength":848,
			"byteOffset":11520,
			"target":34962
		},
		{
			"buffer":0,
			"byteLength":528,
			"byteOffset":12368,
			"target":34963
		},
		{
			"buffer":0,
			"byteLength":972,
			"byteOffset":12896,
			"target":34962
		},
		{
			"buffer":0,
			"byteLength":972,
			"byteOffset":13868,
			"target":34962
		},
		{
			"buffer":0,
			"byteLength":648,
			"byteOffset":14840,
			"target":34962
		},
		{
			"buffer":0,
			"byteLength":336,
			"byteOffset":15488,
			"target":34963
		},
		{
			"buffer":0,
			"byteLength":360,
			"byteOffset":15824,
			"target":34962
		},
		{
			"buffer":0,
			"byteLength":360,
			"byteOffset":16184,
			"target":34962
		},
		{
			"buffer":0,
			"byteLength":240,
			"byteOffset":16544,
			"target":34962
		},
		{
			"buffer":0,
			"byteLength":144,
			"byteOffset":16784,
			"target":34963
		},
		{
			"buffer":0,
			"byteLength":348,
			"byteOffset":16928,
			"target":34962
		},
		{
			"buffer":0,
			"byteLength":348,
			"byteOffset":17276,
			"target":34962
		},
		{
			"buffer":0,
			"byteLength":232,
			"byteOffset":17624,
			"target":34962
		},
		{
			"buffer":0,
			"byteLength":144,
			"byteOffset":17856,
			"target":34963
		}
	],
	"samplers":[
		{
			"magFilter":9729,
			"minFilter":9987
		}
	],
	"buffers":[
		{
			"byteLength":18000,
			"uri":"Tree12.bin"
		}
	]
}
