{
	"asset":{
		"generator":"Khronos glTF Blender I/O v5.1.19",
		"version":"2.0"
	},
	"scene":0,
	"scenes":[
		{
			"name":"Scene",
			"nodes":[
				6
			]
		}
	],
	"nodes":[
		{
			"mesh":0,
			"name":"Object_46"
		},
		{
			"mesh":1,
			"name":"Object_47"
		},
		{
			"mesh":2,
			"name":"Object_48"
		},
		{
			"mesh":3,
			"name":"Object_49"
		},
		{
			"mesh":4,
			"name":"Object_50"
		},
		{
			"mesh":5,
			"name":"Object_51"
		},
		{
			"children":[
				0,
				1,
				2,
				3,
				4,
				5
			],
			"name":"Tree-02-3_6",
			"scale":[
				30.144533157348633,
				30.144533157348633,
				30.144533157348633
			],
			"translation":[
				-3.160723924636841,
				0,
				-4.675250053405762
			]
		}
	],
	"materials":[
		{
			"doubleSided":true,
			"name":"trunk-01",
			"pbrMetallicRoughness":{
				"baseColorTexture":{
					"index":0
				},
				"metallicFactor":0,
				"roughnessFactor":0.3431819975376129
			}
		},
		{
			"alphaMode":"BLEND",
			"doubleSided":true,
			"name":"branch-2-02",
			"pbrMetallicRoughness":{
				"baseColorTexture":{
					"index":1
				},
				"metallicFactor":0,
				"roughnessFactor":0.5
			}
		},
		{
			"alphaMode":"BLEND",
			"doubleSided":true,
			"name":"branch-2-01",
			"pbrMetallicRoughness":{
				"baseColorTexture":{
					"index":2
				},
				"metallicFactor":0,
				"roughnessFactor":0.5
			}
		},
		{
			"alphaMode":"BLEND",
			"doubleSided":true,
			"name":"branch-2-04",
			"pbrMetallicRoughness":{
				"baseColorTexture":{
					"index":3
				},
				"metallicFactor":0,
				"roughnessFactor":0.5
			}
		},
		{
			"alphaMode":"BLEND",
			"doubleSided":true,
			"name":"branch-2-05",
			"pbrMetallicRoughness":{
				"baseColorTexture":{
					"index":4
				},
				"metallicFactor":0,
				"roughnessFactor":0.5
			}
		},
		{
			"alphaMode":"BLEND",
			"doubleSided":true,
			"name":"branch-2-03",
			"pbrMetallicRoughness":{
				"baseColorTexture":{
					"index":5
				},
				"metallicFactor":0,
				"roughnessFactor":0.5
			}
		}
	],
	"meshes":[
		{
			"name":"Object_36",
			"primitives":[
				{
					"attributes":{
						"POSITION":0,
						"NORMAL":1,
						"TEXCOORD_0":2
					},
					"indices":3,
					"material":0
				}
			]
		},
		{
			"name":"Object_37",
			"primitives":[
				{
					"attributes":{
						"POSITION":4,
						"NORMAL":5,
						"TEXCOORD_0":6
					},
					"indices":7,
					"material":1
				}
			]
		},
		{
			"name":"Object_38",
			"primitives":[
				{
					"attributes":{
						"POSITION":8,
						"NORMAL":9,
						"TEXCOORD_0":10
					},
					"indices":11,
					"material":2
				}
			]
		},
		{
			"name":"Object_39",
			"primitives":[
				{
					"attributes":{
						"POSITION":12,
						"NORMAL":13,
						"TEXCOORD_0":14
					},
					"indices":15,
					"material":3
				}
			]
		},
		{
			"name":"Object_40",
			"primitives":[
				{
					"attributes":{
						"POSITION":16,
						"NORMAL":17,
						"TEXCOORD_0":18
					},
					"indices":19,
					"material":4
				}
			]
		},
		{
			"name":"Object_41",
			"primitives":[
				{
					"attributes":{
						"POSITION":20,
						"NORMAL":21,
						"TEXCOORD_0":22
					},
					"indices":23,
					"material":5
				}
			]
		}
	],
	"textures":[
		{
			"sampler":0,
			"source":0
		},
		{
			"sampler":0,
			"source":1
		},
		{
			"sampler":0,
			"source":2
		},
		{
			"sampler":0,
			"source":3
		},
		{
			"sampler":0,
			"source":4
		},
		{
			"sampler":0,
			"source":5
		}
	],
	"images":[
		{
			"mimeType":"image/jpeg",
			"name":"trunk-01-1_baseColor",
			"uri":"trunk-01-1_baseColor.jpg"
		},
		{
			"mimeType":"image/png",
			"name":"branch-2-02_baseColor",
			"uri":"branch-2-02_baseColor.png"
		},
		{
			"mimeType":"image/png",
			"name":"branch-2-01_baseColor",
			"uri":"branch-2-01_baseColor.png"
		},
		{
			"mimeType":"image/png",
			"name":"branch-2-04_baseColor",
			"uri":"branch-2-04_baseColor.png"
		},
		{
			"mimeType":"image/png",
			"name":"branch-2-05_baseColor",
			"uri":"branch-2-05_baseColor.png"
		},
		{
			"mimeType":"image/png",
			"name":"branch-2-03_baseColor",
			"uri":"branch-2-03_baseColor.png"
		}
	],
	"accessors":[
		{
			"bufferView":0,
			"componentType":5126,
			"count":178,
			"max":[
				0.33599090576171875,
				6.140496730804443,
				0.14856910705566406
			],
			"min":[
				-0.6547775268554688,
				-0.006242513656616211,
				-0.9040889739990234
			],
			"type":"VEC3"
		},
		{
			"bufferView":1,
			"componentType":5126,
			"count":178,
			"type":"VEC3"
		},
		{
			"bufferView":2,
			"componentType":5126,
			"count":178,
			"type":"VEC2"
		},
		{
			"bufferView":3,
			"componentType":5123,
			"count":396,
			"type":"SCALAR"
		},
		{
			"bufferView":4,
			"componentType":5126,
			"count":94,
			"max":[
				2.6052093505859375,
				6.629792213439941,
				2.6551456451416016
			],
			"min":[
				-2.8625707626342773,
				0.4259324073791504,
				-2.402467727661133
			],
			"type":"VEC3"
		},
		{
			"bufferView":5,
			"componentType":5126,
			"count":94,
			"type":"VEC3"
		},
		{
			"bufferView":6,
			"componentType":5126,
			"count":94,
			"type":"VEC2"
		},
		{
			"bufferView":7,
			"componentType":5123,
			"count":240,
			"type":"SCALAR"
		},
		{
			"bufferView":8,
			"componentType":5126,
			"count":119,
			"max":[
				2.570941925048828,
				6.846273422241211,
				2.8657398223876953
			],
			"min":[
				-2.9678592681884766,
				1.1761441230773926,
				-1.3853569030761719
			],
			"type":"VEC3"
		},
		{
			"bufferView":9,
			"componentType":5126,
			"count":119,
			"type":"VEC3"
		},
		{
			"bufferView":10,
			"componentType":5126,
			"count":119,
			"type":"VEC2"
		},
		{
			"bufferView":11,
			"componentType":5123,
			"count":288,
			"type":"SCALAR"
		},
		{
			"bufferView":12,
			"componentType":5126,
			"count":72,
			"max":[
				0.5398387908935547,
				6.755727767944336,
				0.5319271087646484
			],
			"min":[
				-1.6568517684936523,
				1.5877420902252197,
				-2.3461475372314453
			],
			"type":"VEC3"
		},
		{
			"bufferView":13,
			"componentType":5126,
			"count":72,
			"type":"VEC3"
		},
		{
			"bufferView":14,
			"componentType":5126,
			"count":72,
			"type":"VEC2"
		},
		{
			"bufferView":15,
			"componentType":5123,
			"count":144,
			"type":"SCALAR"
		},
		{
			"bufferView":16,
			"componentType":5126,
			"count":32,
			"max":[
				2.115629196166992,
				6.765241622924805,
				0.5182971954345703
			],
			"min":[
				-1.1778831481933594,
				2.446941375732422,
				-1.9751033782958984
			],
			"type":"VEC3"
		},
		{
			"bufferView":17,
			"componentType":5126,
			"count":32,
			"type":"VEC3"
		},
		{
			"bufferView":18,
			"componentType":5126,
			"count":32,
			"type":"VEC2"
		},
		{
			"bufferView":19,
			"componentType":5123,
			"count":72,
			"type":"SCALAR"
		},
		{
			"bufferView":20,
			"componentType":5126,
			"count":39,
			"max":[
				1.1011486053466797,
				6.185905456542969,
				1.6540069580078125
			],
			"min":[
				-2.355283737182617,
				0.6963295936584473,
				-1.5200557708740234
			],
			"type":"VEC3"
		},
		{
			"bufferView":21,
			"componentType":5126,
			"count":39,
			"type":"VEC3"
		},
		{
			"bufferView":22,
			"componentType":5126,
			"count":39,
			"type":"VEC2"
		},
		{
			"bufferView":23,
			"componentType":5123,
			"count":96,
			"type":"SCALAR"
		}
	],
	"bufferViews":[
		{
			"buffer":0,
			"byteLength":2136,
			"byteOffset":0,
			"target":34962
		},
		{
			"buffer":0,
			"byteLength":2136,
			"byteOffset":2136,
			"target":34962
		},
		{
			"buffer":0,
			"byteLength":1424,
			"byteOffset":4272,
			"target":34962
		},
		{
			"buffer":0,
			"byteLength":792,
			"byteOffset":5696,
			"target":34963
		},
		{
			"buffer":0,
			"byteLength":1128,
			"byteOffset":6488,
			"target":34962
		},
		{
			"buffer":0,
			"byteLength":1128,
			"byteOffset":7616,
			"target":34962
		},
		{
			"buffer":0,
			"byteLength":752,
			"byteOffset":8744,
			"target":34962
		},
		{
			"buffer":0,
			"byteLength":480,
			"byteOffset":9496,
			"target":34963
		},
		{
			"buffer":0,
			"byteLength":1428,
			"byteOffset":9976,
			"target":34962
		},
		{
			"buffer":0,
			"byteLength":1428,
			"byteOffset":11404,
			"target":34962
		},
		{
			"buffer":0,
			"byteLength":952,
			"byteOffset":12832,
			"target":34962
		},
		{
			"buffer":0,
			"byteLength":576,
			"byteOffset":13784,
			"target":34963
		},
		{
			"buffer":0,
			"byteLength":864,
			"byteOffset":14360,
			"target":34962
		},
		{
			"buffer":0,
			"byteLength":864,
			"byteOffset":15224,
			"target":34962
		},
		{
			"buffer":0,
			"byteLength":576,
			"byteOffset":16088,
			"target":34962
		},
		{
			"buffer":0,
			"byteLength":288,
			"byteOffset":16664,
			"target":34963
		},
		{
			"buffer":0,
			"byteLength":384,
			"byteOffset":16952,
			"target":34962
		},
		{
			"buffer":0,
			"byteLength":384,
			"byteOffset":17336,
			"target":34962
		},
		{
			"buffer":0,
			"byteLength":256,
			"byteOffset":17720,
			"target":34962
		},
		{
			"buffer":0,
			"byteLength":144,
			"byteOffset":17976,
			"target":34963
		},
		{
			"buffer":0,
			"byteLength":468,
			"byteOffset":18120,
			"target":34962
		},
		{
			"buffer":0,
			"byteLength":468,
			"byteOffset":18588,
			"target":34962
		},
		{
			"buffer":0,
			"byteLength":312,
			"byteOffset":19056,
			"target":34962
		},
		{
			"buffer":0,
			"byteLength":192,
			"byteOffset":19368,
			"target":34963
		}
	],
	"samplers":[
		{
			"magFilter":9729,
			"minFilter":9987
		}
	],
	"buffers":[
		{
			"byteLength":19560,
			"uri":"Tree7.bin"
		}
	]
}
