{
	"asset":{
		"generator":"Khronos glTF Blender I/O v5.1.19",
		"version":"2.0"
	},
	"scene":0,
	"scenes":[
		{
			"name":"Scene",
			"nodes":[
				6
			]
		}
	],
	"nodes":[
		{
			"mesh":0,
			"name":"Object_32"
		},
		{
			"mesh":1,
			"name":"Object_33"
		},
		{
			"mesh":2,
			"name":"Object_34"
		},
		{
			"mesh":3,
			"name":"Object_35"
		},
		{
			"mesh":4,
			"name":"Object_36"
		},
		{
			"mesh":5,
			"name":"Object_37"
		},
		{
			"children":[
				0,
				1,
				2,
				3,
				4,
				5
			],
			"name":"Tree-02-1_4",
			"scale":[
				30.144533157348633,
				30.144533157348633,
				30.144533157348633
			],
			"translation":[
				6.194961071014404,
				0,
				-0.5997298359870911
			]
		}
	],
	"materials":[
		{
			"doubleSided":true,
			"name":"trunk-01",
			"pbrMetallicRoughness":{
				"baseColorTexture":{
					"index":0
				},
				"metallicFactor":0,
				"roughnessFactor":0.3431819975376129
			}
		},
		{
			"alphaMode":"BLEND",
			"doubleSided":true,
			"name":"branch-2-02",
			"pbrMetallicRoughness":{
				"baseColorTexture":{
					"index":1
				},
				"metallicFactor":0,
				"roughnessFactor":0.5
			}
		},
		{
			"alphaMode":"BLEND",
			"doubleSided":true,
			"name":"branch-2-01",
			"pbrMetallicRoughness":{
				"baseColorTexture":{
					"index":2
				},
				"metallicFactor":0,
				"roughnessFactor":0.5
			}
		},
		{
			"alphaMode":"BLEND",
			"doubleSided":true,
			"name":"branch-2-04",
			"pbrMetallicRoughness":{
				"baseColorTexture":{
					"index":3
				},
				"metallicFactor":0,
				"roughnessFactor":0.5
			}
		},
		{
			"alphaMode":"BLEND",
			"doubleSided":true,
			"name":"branch-2-05",
			"pbrMetallicRoughness":{
				"baseColorTexture":{
					"index":4
				},
				"metallicFactor":0,
				"roughnessFactor":0.5
			}
		},
		{
			"alphaMode":"BLEND",
			"doubleSided":true,
			"name":"branch-2-03",
			"pbrMetallicRoughness":{
				"baseColorTexture":{
					"index":5
				},
				"metallicFactor":0,
				"roughnessFactor":0.5
			}
		}
	],
	"meshes":[
		{
			"name":"Object_24",
			"primitives":[
				{
					"attributes":{
						"POSITION":0,
						"NORMAL":1,
						"TEXCOORD_0":2
					},
					"indices":3,
					"material":0
				}
			]
		},
		{
			"name":"Object_25",
			"primitives":[
				{
					"attributes":{
						"POSITION":4,
						"NORMAL":5,
						"TEXCOORD_0":6
					},
					"indices":7,
					"material":1
				}
			]
		},
		{
			"name":"Object_26",
			"primitives":[
				{
					"attributes":{
						"POSITION":8,
						"NORMAL":9,
						"TEXCOORD_0":10
					},
					"indices":11,
					"material":2
				}
			]
		},
		{
			"name":"Object_27",
			"primitives":[
				{
					"attributes":{
						"POSITION":12,
						"NORMAL":13,
						"TEXCOORD_0":14
					},
					"indices":15,
					"material":3
				}
			]
		},
		{
			"name":"Object_28",
			"primitives":[
				{
					"attributes":{
						"POSITION":16,
						"NORMAL":17,
						"TEXCOORD_0":18
					},
					"indices":19,
					"material":4
				}
			]
		},
		{
			"name":"Object_29",
			"primitives":[
				{
					"attributes":{
						"POSITION":20,
						"NORMAL":21,
						"TEXCOORD_0":22
					},
					"indices":23,
					"material":5
				}
			]
		}
	],
	"textures":[
		{
			"sampler":0,
			"source":0
		},
		{
			"sampler":0,
			"source":1
		},
		{
			"sampler":0,
			"source":2
		},
		{
			"sampler":0,
			"source":3
		},
		{
			"sampler":0,
			"source":4
		},
		{
			"sampler":0,
			"source":5
		}
	],
	"images":[
		{
			"mimeType":"image/jpeg",
			"name":"trunk-01-1_baseColor",
			"uri":"trunk-01-1_baseColor.jpg"
		},
		{
			"mimeType":"image/png",
			"name":"branch-2-02_baseColor",
			"uri":"branch-2-02_baseColor.png"
		},
		{
			"mimeType":"image/png",
			"name":"branch-2-01_baseColor",
			"uri":"branch-2-01_baseColor.png"
		},
		{
			"mimeType":"image/png",
			"name":"branch-2-04_baseColor",
			"uri":"branch-2-04_baseColor.png"
		},
		{
			"mimeType":"image/png",
			"name":"branch-2-05_baseColor",
			"uri":"branch-2-05_baseColor.png"
		},
		{
			"mimeType":"image/png",
			"name":"branch-2-03_baseColor",
			"uri":"branch-2-03_baseColor.png"
		}
	],
	"accessors":[
		{
			"bufferView":0,
			"componentType":5126,
			"count":296,
			"max":[
				0.5739078521728516,
				6.621478080749512,
				0.6706726551055908
			],
			"min":[
				-1.0792922973632812,
				0,
				-0.7450437545776367
			],
			"type":"VEC3"
		},
		{
			"bufferView":1,
			"componentType":5126,
			"count":296,
			"type":"VEC3"
		},
		{
			"bufferView":2,
			"componentType":5126,
			"count":296,
			"type":"VEC2"
		},
		{
			"bufferView":3,
			"componentType":5123,
			"count":666,
			"type":"SCALAR"
		},
		{
			"bufferView":4,
			"componentType":5126,
			"count":126,
			"max":[
				2.811817169189453,
				7.304459571838379,
				2.488997459411621
			],
			"min":[
				-2.415337562561035,
				1.0751166343688965,
				-2.8046131134033203
			],
			"type":"VEC3"
		},
		{
			"bufferView":5,
			"componentType":5126,
			"count":126,
			"type":"VEC3"
		},
		{
			"bufferView":6,
			"componentType":5126,
			"count":126,
			"type":"VEC2"
		},
		{
			"bufferView":7,
			"componentType":5123,
			"count":336,
			"type":"SCALAR"
		},
		{
			"bufferView":8,
			"componentType":5126,
			"count":135,
			"max":[
				2.7269287109375,
				7.216530799865723,
				2.1630091667175293
			],
			"min":[
				-2.828921318054199,
				1.460705041885376,
				-3.217359781265259
			],
			"type":"VEC3"
		},
		{
			"bufferView":9,
			"componentType":5126,
			"count":135,
			"type":"VEC3"
		},
		{
			"bufferView":10,
			"componentType":5126,
			"count":135,
			"type":"VEC2"
		},
		{
			"bufferView":11,
			"componentType":5123,
			"count":360,
			"type":"SCALAR"
		},
		{
			"bufferView":12,
			"componentType":5126,
			"count":120,
			"max":[
				1.5876827239990234,
				7.389200210571289,
				2.388484001159668
			],
			"min":[
				-1.679840087890625,
				2.3956968784332275,
				-1.1795904636383057
			],
			"type":"VEC3"
		},
		{
			"bufferView":13,
			"componentType":5126,
			"count":120,
			"type":"VEC3"
		},
		{
			"bufferView":14,
			"componentType":5126,
			"count":120,
			"type":"VEC2"
		},
		{
			"bufferView":15,
			"componentType":5123,
			"count":240,
			"type":"SCALAR"
		},
		{
			"bufferView":16,
			"componentType":5126,
			"count":80,
			"max":[
				0.8240966796875,
				7.271019458770752,
				2.3529233932495117
			],
			"min":[
				-2.7882652282714844,
				1.578507900238037,
				-1.5706173181533813
			],
			"type":"VEC3"
		},
		{
			"bufferView":17,
			"componentType":5126,
			"count":80,
			"type":"VEC3"
		},
		{
			"bufferView":18,
			"componentType":5126,
			"count":80,
			"type":"VEC2"
		},
		{
			"bufferView":19,
			"componentType":5123,
			"count":192,
			"type":"SCALAR"
		},
		{
			"bufferView":20,
			"componentType":5126,
			"count":54,
			"max":[
				2.147563934326172,
				7.003584384918213,
				1.7683191299438477
			],
			"min":[
				-1.6950798034667969,
				1.3377914428710938,
				-2.0461857318878174
			],
			"type":"VEC3"
		},
		{
			"bufferView":21,
			"componentType":5126,
			"count":54,
			"type":"VEC3"
		},
		{
			"bufferView":22,
			"componentType":5126,
			"count":54,
			"type":"VEC2"
		},
		{
			"bufferView":23,
			"componentType":5123,
			"count":144,
			"type":"SCALAR"
		}
	],
	"bufferViews":[
		{
			"buffer":0,
			"byteLength":3552,
			"byteOffset":0,
			"target":34962
		},
		{
			"buffer":0,
			"byteLength":3552,
			"byteOffset":3552,
			"target":34962
		},
		{
			"buffer":0,
			"byteLength":2368,
			"byteOffset":7104,
			"target":34962
		},
		{
			"buffer":0,
			"byteLength":1332,
			"byteOffset":9472,
			"target":34963
		},
		{
			"buffer":0,
			"byteLength":1512,
			"byteOffset":10804,
			"target":34962
		},
		{
			"buffer":0,
			"byteLength":1512,
			"byteOffset":12316,
			"target":34962
		},
		{
			"buffer":0,
			"byteLength":1008,
			"byteOffset":13828,
			"target":34962
		},
		{
			"buffer":0,
			"byteLength":672,
			"byteOffset":14836,
			"target":34963
		},
		{
			"buffer":0,
			"byteLength":1620,
			"byteOffset":15508,
			"target":34962
		},
		{
			"buffer":0,
			"byteLength":1620,
			"byteOffset":17128,
			"target":34962
		},
		{
			"buffer":0,
			"byteLength":1080,
			"byteOffset":18748,
			"target":34962
		},
		{
			"buffer":0,
			"byteLength":720,
			"byteOffset":19828,
			"target":34963
		},
		{
			"buffer":0,
			"byteLength":1440,
			"byteOffset":20548,
			"target":34962
		},
		{
			"buffer":0,
			"byteLength":1440,
			"byteOffset":21988,
			"target":34962
		},
		{
			"buffer":0,
			"byteLength":960,
			"byteOffset":23428,
			"target":34962
		},
		{
			"buffer":0,
			"byteLength":480,
			"byteOffset":24388,
			"target":34963
		},
		{
			"buffer":0,
			"byteLength":960,
			"byteOffset":24868,
			"target":34962
		},
		{
			"buffer":0,
			"byteLength":960,
			"byteOffset":25828,
			"target":34962
		},
		{
			"buffer":0,
			"byteLength":640,
			"byteOffset":26788,
			"target":34962
		},
		{
			"buffer":0,
			"byteLength":384,
			"byteOffset":27428,
			"target":34963
		},
		{
			"buffer":0,
			"byteLength":648,
			"byteOffset":27812,
			"target":34962
		},
		{
			"buffer":0,
			"byteLength":648,
			"byteOffset":28460,
			"target":34962
		},
		{
			"buffer":0,
			"byteLength":432,
			"byteOffset":29108,
			"target":34962
		},
		{
			"buffer":0,
			"byteLength":288,
			"byteOffset":29540,
			"target":34963
		}
	],
	"samplers":[
		{
			"magFilter":9729,
			"minFilter":9987
		}
	],
	"buffers":[
		{
			"byteLength":29828,
			"uri":"Tree5.bin"
		}
	]
}
