{
	"asset":{
		"generator":"Khronos glTF Blender I/O v5.1.19",
		"version":"2.0"
	},
	"scene":0,
	"scenes":[
		{
			"name":"Scene",
			"nodes":[
				6
			]
		}
	],
	"nodes":[
		{
			"mesh":0,
			"name":"Object_11"
		},
		{
			"mesh":1,
			"name":"Object_12"
		},
		{
			"mesh":2,
			"name":"Object_13"
		},
		{
			"mesh":3,
			"name":"Object_14"
		},
		{
			"mesh":4,
			"name":"Object_15"
		},
		{
			"mesh":5,
			"name":"Object_16"
		},
		{
			"children":[
				0,
				1,
				2,
				3,
				4,
				5
			],
			"name":"Tree-01-2_1",
			"scale":[
				30.144533157348633,
				30.144533157348633,
				30.144533157348633
			],
			"translation":[
				2.567242383956909,
				0,
				-2.120006561279297
			]
		}
	],
	"materials":[
		{
			"doubleSided":true,
			"name":"trunk-01-1",
			"pbrMetallicRoughness":{
				"baseColorTexture":{
					"index":0
				},
				"metallicFactor":0,
				"roughnessFactor":0.3431819975376129
			}
		},
		{
			"alphaMode":"BLEND",
			"doubleSided":true,
			"name":"branch-02-1",
			"pbrMetallicRoughness":{
				"baseColorTexture":{
					"index":1
				},
				"metallicFactor":0,
				"roughnessFactor":0.5
			}
		},
		{
			"alphaMode":"BLEND",
			"doubleSided":true,
			"name":"branch-01-1",
			"pbrMetallicRoughness":{
				"baseColorTexture":{
					"index":2
				},
				"metallicFactor":0,
				"roughnessFactor":0.5
			}
		},
		{
			"alphaMode":"BLEND",
			"doubleSided":true,
			"name":"branch-04-1",
			"pbrMetallicRoughness":{
				"baseColorTexture":{
					"index":3
				},
				"metallicFactor":0,
				"roughnessFactor":0.5
			}
		},
		{
			"alphaMode":"BLEND",
			"doubleSided":true,
			"name":"branch-05-1",
			"pbrMetallicRoughness":{
				"baseColorTexture":{
					"index":4
				},
				"metallicFactor":0,
				"roughnessFactor":0.5
			}
		},
		{
			"alphaMode":"BLEND",
			"doubleSided":true,
			"name":"branch-03-1",
			"pbrMetallicRoughness":{
				"baseColorTexture":{
					"index":5
				},
				"metallicFactor":0,
				"roughnessFactor":0.5
			}
		}
	],
	"meshes":[
		{
			"name":"Object_6",
			"primitives":[
				{
					"attributes":{
						"POSITION":0,
						"NORMAL":1,
						"TEXCOORD_0":2
					},
					"indices":3,
					"material":0
				}
			]
		},
		{
			"name":"Object_7",
			"primitives":[
				{
					"attributes":{
						"POSITION":4,
						"NORMAL":5,
						"TEXCOORD_0":6
					},
					"indices":7,
					"material":1
				}
			]
		},
		{
			"name":"Object_8",
			"primitives":[
				{
					"attributes":{
						"POSITION":8,
						"NORMAL":9,
						"TEXCOORD_0":10
					},
					"indices":11,
					"material":2
				}
			]
		},
		{
			"name":"Object_9",
			"primitives":[
				{
					"attributes":{
						"POSITION":12,
						"NORMAL":13,
						"TEXCOORD_0":14
					},
					"indices":15,
					"material":3
				}
			]
		},
		{
			"name":"Object_10",
			"primitives":[
				{
					"attributes":{
						"POSITION":16,
						"NORMAL":17,
						"TEXCOORD_0":18
					},
					"indices":19,
					"material":4
				}
			]
		},
		{
			"name":"Object_11",
			"primitives":[
				{
					"attributes":{
						"POSITION":20,
						"NORMAL":21,
						"TEXCOORD_0":22
					},
					"indices":23,
					"material":5
				}
			]
		}
	],
	"textures":[
		{
			"sampler":0,
			"source":0
		},
		{
			"sampler":0,
			"source":1
		},
		{
			"sampler":0,
			"source":2
		},
		{
			"sampler":0,
			"source":3
		},
		{
			"sampler":0,
			"source":4
		},
		{
			"sampler":0,
			"source":5
		}
	],
	"images":[
		{
			"mimeType":"image/jpeg",
			"name":"trunk-01-1_baseColor",
			"uri":"trunk-01-1_baseColor.jpg"
		},
		{
			"mimeType":"image/png",
			"name":"branch-02-1_baseColor",
			"uri":"branch-02-1_baseColor.png"
		},
		{
			"mimeType":"image/png",
			"name":"branch-01-1_baseColor",
			"uri":"branch-01-1_baseColor.png"
		},
		{
			"mimeType":"image/png",
			"name":"branch-04-1_baseColor",
			"uri":"branch-04-1_baseColor.png"
		},
		{
			"mimeType":"image/png",
			"name":"branch-05-1_baseColor",
			"uri":"branch-05-1_baseColor.png"
		},
		{
			"mimeType":"image/png",
			"name":"branch-03-1_baseColor",
			"uri":"branch-03-1_baseColor.png"
		}
	],
	"accessors":[
		{
			"bufferView":0,
			"componentType":5126,
			"count":296,
			"max":[
				0.4250040054321289,
				6.621478080749512,
				1.2354316711425781
			],
			"min":[
				-0.8334903717041016,
				0,
				-0.6084156036376953
			],
			"type":"VEC3"
		},
		{
			"bufferView":1,
			"componentType":5126,
			"count":296,
			"type":"VEC3"
		},
		{
			"bufferView":2,
			"componentType":5126,
			"count":296,
			"type":"VEC2"
		},
		{
			"bufferView":3,
			"componentType":5123,
			"count":666,
			"type":"SCALAR"
		},
		{
			"bufferView":4,
			"componentType":5126,
			"count":129,
			"max":[
				3.2405309677124023,
				7.330857753753662,
				3.03533935546875
			],
			"min":[
				-3.1619067192077637,
				0.31810951232910156,
				-3.4047069549560547
			],
			"type":"VEC3"
		},
		{
			"bufferView":5,
			"componentType":5126,
			"count":129,
			"type":"VEC3"
		},
		{
			"bufferView":6,
			"componentType":5126,
			"count":129,
			"type":"VEC2"
		},
		{
			"bufferView":7,
			"componentType":5123,
			"count":336,
			"type":"SCALAR"
		},
		{
			"bufferView":8,
			"componentType":5126,
			"count":144,
			"max":[
				3.0291919708251953,
				7.500932693481445,
				2.8070411682128906
			],
			"min":[
				-3.3098506927490234,
				1.1391396522521973,
				-3.514754295349121
			],
			"type":"VEC3"
		},
		{
			"bufferView":9,
			"componentType":5126,
			"count":144,
			"type":"VEC3"
		},
		{
			"bufferView":10,
			"componentType":5126,
			"count":144,
			"type":"VEC2"
		},
		{
			"bufferView":11,
			"componentType":5123,
			"count":360,
			"type":"SCALAR"
		},
		{
			"bufferView":12,
			"componentType":5126,
			"count":120,
			"max":[
				2.7847213745117188,
				7.38088321685791,
				2.044902801513672
			],
			"min":[
				-1.0950202941894531,
				2.437152624130249,
				-1.2432804107666016
			],
			"type":"VEC3"
		},
		{
			"bufferView":13,
			"componentType":5126,
			"count":120,
			"type":"VEC3"
		},
		{
			"bufferView":14,
			"componentType":5126,
			"count":120,
			"type":"VEC2"
		},
		{
			"bufferView":15,
			"componentType":5123,
			"count":240,
			"type":"SCALAR"
		},
		{
			"bufferView":16,
			"componentType":5126,
			"count":84,
			"max":[
				2.647195816040039,
				7.361522197723389,
				3.801664352416992
			],
			"min":[
				-1.6976852416992188,
				1.3064002990722656,
				-1.110306739807129
			],
			"type":"VEC3"
		},
		{
			"bufferView":17,
			"componentType":5126,
			"count":84,
			"type":"VEC3"
		},
		{
			"bufferView":18,
			"componentType":5126,
			"count":84,
			"type":"VEC2"
		},
		{
			"bufferView":19,
			"componentType":5123,
			"count":192,
			"type":"SCALAR"
		},
		{
			"bufferView":20,
			"componentType":5126,
			"count":57,
			"max":[
				2.599946975708008,
				7.283463478088379,
				1.6709585189819336
			],
			"min":[
				-2.1776957511901855,
				0.8704590797424316,
				-2.4358816146850586
			],
			"type":"VEC3"
		},
		{
			"bufferView":21,
			"componentType":5126,
			"count":57,
			"type":"VEC3"
		},
		{
			"bufferView":22,
			"componentType":5126,
			"count":57,
			"type":"VEC2"
		},
		{
			"bufferView":23,
			"componentType":5123,
			"count":144,
			"type":"SCALAR"
		}
	],
	"bufferViews":[
		{
			"buffer":0,
			"byteLength":3552,
			"byteOffset":0,
			"target":34962
		},
		{
			"buffer":0,
			"byteLength":3552,
			"byteOffset":3552,
			"target":34962
		},
		{
			"buffer":0,
			"byteLength":2368,
			"byteOffset":7104,
			"target":34962
		},
		{
			"buffer":0,
			"byteLength":1332,
			"byteOffset":9472,
			"target":34963
		},
		{
			"buffer":0,
			"byteLength":1548,
			"byteOffset":10804,
			"target":34962
		},
		{
			"buffer":0,
			"byteLength":1548,
			"byteOffset":12352,
			"target":34962
		},
		{
			"buffer":0,
			"byteLength":1032,
			"byteOffset":13900,
			"target":34962
		},
		{
			"buffer":0,
			"byteLength":672,
			"byteOffset":14932,
			"target":34963
		},
		{
			"buffer":0,
			"byteLength":1728,
			"byteOffset":15604,
			"target":34962
		},
		{
			"buffer":0,
			"byteLength":1728,
			"byteOffset":17332,
			"target":34962
		},
		{
			"buffer":0,
			"byteLength":1152,
			"byteOffset":19060,
			"target":34962
		},
		{
			"buffer":0,
			"byteLength":720,
			"byteOffset":20212,
			"target":34963
		},
		{
			"buffer":0,
			"byteLength":1440,
			"byteOffset":20932,
			"target":34962
		},
		{
			"buffer":0,
			"byteLength":1440,
			"byteOffset":22372,
			"target":34962
		},
		{
			"buffer":0,
			"byteLength":960,
			"byteOffset":23812,
			"target":34962
		},
		{
			"buffer":0,
			"byteLength":480,
			"byteOffset":24772,
			"target":34963
		},
		{
			"buffer":0,
			"byteLength":1008,
			"byteOffset":25252,
			"target":34962
		},
		{
			"buffer":0,
			"byteLength":1008,
			"byteOffset":26260,
			"target":34962
		},
		{
			"buffer":0,
			"byteLength":672,
			"byteOffset":27268,
			"target":34962
		},
		{
			"buffer":0,
			"byteLength":384,
			"byteOffset":27940,
			"target":34963
		},
		{
			"buffer":0,
			"byteLength":684,
			"byteOffset":28324,
			"target":34962
		},
		{
			"buffer":0,
			"byteLength":684,
			"byteOffset":29008,
			"target":34962
		},
		{
			"buffer":0,
			"byteLength":456,
			"byteOffset":29692,
			"target":34962
		},
		{
			"buffer":0,
			"byteLength":288,
			"byteOffset":30148,
			"target":34963
		}
	],
	"samplers":[
		{
			"magFilter":9729,
			"minFilter":9987
		}
	],
	"buffers":[
		{
			"byteLength":30436,
			"uri":"Tree2.bin"
		}
	]
}
