{
	"asset":{
		"generator":"Khronos glTF Blender I/O v5.1.19",
		"version":"2.0"
	},
	"scene":0,
	"scenes":[
		{
			"name":"Scene",
			"nodes":[
				6
			]
		}
	],
	"nodes":[
		{
			"mesh":0,
			"name":"Object_18"
		},
		{
			"mesh":1,
			"name":"Object_19"
		},
		{
			"mesh":2,
			"name":"Object_20"
		},
		{
			"mesh":3,
			"name":"Object_21"
		},
		{
			"mesh":4,
			"name":"Object_22"
		},
		{
			"mesh":5,
			"name":"Object_23"
		},
		{
			"children":[
				0,
				1,
				2,
				3,
				4,
				5
			],
			"name":"Tree-01-3_2",
			"scale":[
				30.144533157348633,
				30.144533157348633,
				30.144533157348633
			],
			"translation":[
				-3.836648941040039,
				0,
				-0.6985297799110413
			]
		}
	],
	"materials":[
		{
			"doubleSided":true,
			"name":"trunk-01-1",
			"pbrMetallicRoughness":{
				"baseColorTexture":{
					"index":0
				},
				"metallicFactor":0,
				"roughnessFactor":0.3431819975376129
			}
		},
		{
			"alphaMode":"BLEND",
			"doubleSided":true,
			"name":"branch-02-1",
			"pbrMetallicRoughness":{
				"baseColorTexture":{
					"index":1
				},
				"metallicFactor":0,
				"roughnessFactor":0.5
			}
		},
		{
			"alphaMode":"BLEND",
			"doubleSided":true,
			"name":"branch-01-1",
			"pbrMetallicRoughness":{
				"baseColorTexture":{
					"index":2
				},
				"metallicFactor":0,
				"roughnessFactor":0.5
			}
		},
		{
			"alphaMode":"BLEND",
			"doubleSided":true,
			"name":"branch-04-1",
			"pbrMetallicRoughness":{
				"baseColorTexture":{
					"index":3
				},
				"metallicFactor":0,
				"roughnessFactor":0.5
			}
		},
		{
			"alphaMode":"BLEND",
			"doubleSided":true,
			"name":"branch-05-1",
			"pbrMetallicRoughness":{
				"baseColorTexture":{
					"index":4
				},
				"metallicFactor":0,
				"roughnessFactor":0.5
			}
		},
		{
			"alphaMode":"BLEND",
			"doubleSided":true,
			"name":"branch-03-1",
			"pbrMetallicRoughness":{
				"baseColorTexture":{
					"index":5
				},
				"metallicFactor":0,
				"roughnessFactor":0.5
			}
		}
	],
	"meshes":[
		{
			"name":"Object_12",
			"primitives":[
				{
					"attributes":{
						"POSITION":0,
						"NORMAL":1,
						"TEXCOORD_0":2
					},
					"indices":3,
					"material":0
				}
			]
		},
		{
			"name":"Object_13",
			"primitives":[
				{
					"attributes":{
						"POSITION":4,
						"NORMAL":5,
						"TEXCOORD_0":6
					},
					"indices":7,
					"material":1
				}
			]
		},
		{
			"name":"Object_14",
			"primitives":[
				{
					"attributes":{
						"POSITION":8,
						"NORMAL":9,
						"TEXCOORD_0":10
					},
					"indices":11,
					"material":2
				}
			]
		},
		{
			"name":"Object_15",
			"primitives":[
				{
					"attributes":{
						"POSITION":12,
						"NORMAL":13,
						"TEXCOORD_0":14
					},
					"indices":15,
					"material":3
				}
			]
		},
		{
			"name":"Object_16",
			"primitives":[
				{
					"attributes":{
						"POSITION":16,
						"NORMAL":17,
						"TEXCOORD_0":18
					},
					"indices":19,
					"material":4
				}
			]
		},
		{
			"name":"Object_17",
			"primitives":[
				{
					"attributes":{
						"POSITION":20,
						"NORMAL":21,
						"TEXCOORD_0":22
					},
					"indices":23,
					"material":5
				}
			]
		}
	],
	"textures":[
		{
			"sampler":0,
			"source":0
		},
		{
			"sampler":0,
			"source":1
		},
		{
			"sampler":0,
			"source":2
		},
		{
			"sampler":0,
			"source":3
		},
		{
			"sampler":0,
			"source":4
		},
		{
			"sampler":0,
			"source":5
		}
	],
	"images":[
		{
			"mimeType":"image/jpeg",
			"name":"trunk-01-1_baseColor",
			"uri":"trunk-01-1_baseColor.jpg"
		},
		{
			"mimeType":"image/png",
			"name":"branch-02-1_baseColor",
			"uri":"branch-02-1_baseColor.png"
		},
		{
			"mimeType":"image/png",
			"name":"branch-01-1_baseColor",
			"uri":"branch-01-1_baseColor.png"
		},
		{
			"mimeType":"image/png",
			"name":"branch-04-1_baseColor",
			"uri":"branch-04-1_baseColor.png"
		},
		{
			"mimeType":"image/png",
			"name":"branch-05-1_baseColor",
			"uri":"branch-05-1_baseColor.png"
		},
		{
			"mimeType":"image/png",
			"name":"branch-03-1_baseColor",
			"uri":"branch-03-1_baseColor.png"
		}
	],
	"accessors":[
		{
			"bufferView":0,
			"componentType":5126,
			"count":180,
			"max":[
				0.6632061004638672,
				6.617419242858887,
				0.9703273773193359
			],
			"min":[
				-0.15199661254882812,
				-0.0067291259765625,
				-0.15307044982910156
			],
			"type":"VEC3"
		},
		{
			"bufferView":1,
			"componentType":5126,
			"count":180,
			"type":"VEC3"
		},
		{
			"bufferView":2,
			"componentType":5126,
			"count":180,
			"type":"VEC2"
		},
		{
			"bufferView":3,
			"componentType":5123,
			"count":396,
			"type":"SCALAR"
		},
		{
			"bufferView":4,
			"componentType":5126,
			"count":92,
			"max":[
				3.752124786376953,
				7.31162691116333,
				2.573232650756836
			],
			"min":[
				-2.5328426361083984,
				0.4590144157409668,
				-3.118410110473633
			],
			"type":"VEC3"
		},
		{
			"bufferView":5,
			"componentType":5126,
			"count":92,
			"type":"VEC3"
		},
		{
			"bufferView":6,
			"componentType":5126,
			"count":92,
			"type":"VEC2"
		},
		{
			"bufferView":7,
			"componentType":5123,
			"count":240,
			"type":"SCALAR"
		},
		{
			"bufferView":8,
			"componentType":5126,
			"count":114,
			"max":[
				3.4567337036132812,
				7.503784656524658,
				2.152975082397461
			],
			"min":[
				-3.518366813659668,
				1.2224225997924805,
				-3.2257871627807617
			],
			"type":"VEC3"
		},
		{
			"bufferView":9,
			"componentType":5126,
			"count":114,
			"type":"VEC3"
		},
		{
			"bufferView":10,
			"componentType":5126,
			"count":114,
			"type":"VEC2"
		},
		{
			"bufferView":11,
			"componentType":5123,
			"count":288,
			"type":"SCALAR"
		},
		{
			"bufferView":12,
			"componentType":5126,
			"count":72,
			"max":[
				2.317563056945801,
				7.342604637145996,
				2.0358943939208984
			],
			"min":[
				-0.3132343292236328,
				1.6384096145629883,
				-0.6760749816894531
			],
			"type":"VEC3"
		},
		{
			"bufferView":13,
			"componentType":5126,
			"count":72,
			"type":"VEC3"
		},
		{
			"bufferView":14,
			"componentType":5126,
			"count":72,
			"type":"VEC2"
		},
		{
			"bufferView":15,
			"componentType":5123,
			"count":144,
			"type":"SCALAR"
		},
		{
			"bufferView":16,
			"componentType":5126,
			"count":32,
			"max":[
				1.4769201278686523,
				7.39788818359375,
				2.983440399169922
			],
			"min":[
				-1.7397170066833496,
				2.0484583377838135,
				-0.6097164154052734
			],
			"type":"VEC3"
		},
		{
			"bufferView":17,
			"componentType":5126,
			"count":32,
			"type":"VEC3"
		},
		{
			"bufferView":18,
			"componentType":5126,
			"count":32,
			"type":"VEC2"
		},
		{
			"bufferView":19,
			"componentType":5123,
			"count":72,
			"type":"SCALAR"
		},
		{
			"bufferView":20,
			"componentType":5126,
			"count":39,
			"max":[
				3.003042221069336,
				6.879300117492676,
				1.4282875061035156
			],
			"min":[
				-1.605635643005371,
				0.6812026500701904,
				-1.9841461181640625
			],
			"type":"VEC3"
		},
		{
			"bufferView":21,
			"componentType":5126,
			"count":39,
			"type":"VEC3"
		},
		{
			"bufferView":22,
			"componentType":5126,
			"count":39,
			"type":"VEC2"
		},
		{
			"bufferView":23,
			"componentType":5123,
			"count":96,
			"type":"SCALAR"
		}
	],
	"bufferViews":[
		{
			"buffer":0,
			"byteLength":2160,
			"byteOffset":0,
			"target":34962
		},
		{
			"buffer":0,
			"byteLength":2160,
			"byteOffset":2160,
			"target":34962
		},
		{
			"buffer":0,
			"byteLength":1440,
			"byteOffset":4320,
			"target":34962
		},
		{
			"buffer":0,
			"byteLength":792,
			"byteOffset":5760,
			"target":34963
		},
		{
			"buffer":0,
			"byteLength":1104,
			"byteOffset":6552,
			"target":34962
		},
		{
			"buffer":0,
			"byteLength":1104,
			"byteOffset":7656,
			"target":34962
		},
		{
			"buffer":0,
			"byteLength":736,
			"byteOffset":8760,
			"target":34962
		},
		{
			"buffer":0,
			"byteLength":480,
			"byteOffset":9496,
			"target":34963
		},
		{
			"buffer":0,
			"byteLength":1368,
			"byteOffset":9976,
			"target":34962
		},
		{
			"buffer":0,
			"byteLength":1368,
			"byteOffset":11344,
			"target":34962
		},
		{
			"buffer":0,
			"byteLength":912,
			"byteOffset":12712,
			"target":34962
		},
		{
			"buffer":0,
			"byteLength":576,
			"byteOffset":13624,
			"target":34963
		},
		{
			"buffer":0,
			"byteLength":864,
			"byteOffset":14200,
			"target":34962
		},
		{
			"buffer":0,
			"byteLength":864,
			"byteOffset":15064,
			"target":34962
		},
		{
			"buffer":0,
			"byteLength":576,
			"byteOffset":15928,
			"target":34962
		},
		{
			"buffer":0,
			"byteLength":288,
			"byteOffset":16504,
			"target":34963
		},
		{
			"buffer":0,
			"byteLength":384,
			"byteOffset":16792,
			"target":34962
		},
		{
			"buffer":0,
			"byteLength":384,
			"byteOffset":17176,
			"target":34962
		},
		{
			"buffer":0,
			"byteLength":256,
			"byteOffset":17560,
			"target":34962
		},
		{
			"buffer":0,
			"byteLength":144,
			"byteOffset":17816,
			"target":34963
		},
		{
			"buffer":0,
			"byteLength":468,
			"byteOffset":17960,
			"target":34962
		},
		{
			"buffer":0,
			"byteLength":468,
			"byteOffset":18428,
			"target":34962
		},
		{
			"buffer":0,
			"byteLength":312,
			"byteOffset":18896,
			"target":34962
		},
		{
			"buffer":0,
			"byteLength":192,
			"byteOffset":19208,
			"target":34963
		}
	],
	"samplers":[
		{
			"magFilter":9729,
			"minFilter":9987
		}
	],
	"buffers":[
		{
			"byteLength":19400,
			"uri":"Tree3.bin"
		}
	]
}
