{
	"asset":{
		"generator":"Khronos glTF Blender I/O v5.1.19",
		"version":"2.0"
	},
	"scene":0,
	"scenes":[
		{
			"name":"Scene",
			"nodes":[
				6
			]
		}
	],
	"nodes":[
		{
			"mesh":0,
			"name":"Object_60"
		},
		{
			"mesh":1,
			"name":"Object_61"
		},
		{
			"mesh":2,
			"name":"Object_62"
		},
		{
			"mesh":3,
			"name":"Object_63"
		},
		{
			"mesh":4,
			"name":"Object_64"
		},
		{
			"mesh":5,
			"name":"Object_65"
		},
		{
			"children":[
				0,
				1,
				2,
				3,
				4,
				5
			],
			"name":"Tree-03-1_8",
			"scale":[
				30.144533157348633,
				30.144533157348633,
				30.144533157348633
			],
			"translation":[
				3.44862961769104,
				0,
				-0.9654842019081116
			]
		}
	],
	"materials":[
		{
			"doubleSided":true,
			"name":"trunk-01",
			"pbrMetallicRoughness":{
				"baseColorTexture":{
					"index":0
				},
				"metallicFactor":0,
				"roughnessFactor":0.3431819975376129
			}
		},
		{
			"alphaMode":"BLEND",
			"doubleSided":true,
			"name":"branch-02",
			"pbrMetallicRoughness":{
				"baseColorTexture":{
					"index":1
				},
				"metallicFactor":0,
				"roughnessFactor":0.5
			}
		},
		{
			"alphaMode":"BLEND",
			"doubleSided":true,
			"name":"branch-01",
			"pbrMetallicRoughness":{
				"baseColorTexture":{
					"index":2
				},
				"metallicFactor":0,
				"roughnessFactor":0.5
			}
		},
		{
			"alphaMode":"BLEND",
			"doubleSided":true,
			"name":"branch-04",
			"pbrMetallicRoughness":{
				"baseColorTexture":{
					"index":3
				},
				"metallicFactor":0,
				"roughnessFactor":0.5
			}
		},
		{
			"alphaMode":"BLEND",
			"doubleSided":true,
			"name":"branch-05",
			"pbrMetallicRoughness":{
				"baseColorTexture":{
					"index":4
				},
				"metallicFactor":0,
				"roughnessFactor":0.5
			}
		},
		{
			"alphaMode":"BLEND",
			"doubleSided":true,
			"name":"branch-03",
			"pbrMetallicRoughness":{
				"baseColorTexture":{
					"index":5
				},
				"metallicFactor":0,
				"roughnessFactor":0.5
			}
		}
	],
	"meshes":[
		{
			"name":"Object_48",
			"primitives":[
				{
					"attributes":{
						"POSITION":0,
						"NORMAL":1,
						"TEXCOORD_0":2
					},
					"indices":3,
					"material":0
				}
			]
		},
		{
			"name":"Object_49",
			"primitives":[
				{
					"attributes":{
						"POSITION":4,
						"NORMAL":5,
						"TEXCOORD_0":6
					},
					"indices":7,
					"material":1
				}
			]
		},
		{
			"name":"Object_50",
			"primitives":[
				{
					"attributes":{
						"POSITION":8,
						"NORMAL":9,
						"TEXCOORD_0":10
					},
					"indices":11,
					"material":2
				}
			]
		},
		{
			"name":"Object_51",
			"primitives":[
				{
					"attributes":{
						"POSITION":12,
						"NORMAL":13,
						"TEXCOORD_0":14
					},
					"indices":15,
					"material":3
				}
			]
		},
		{
			"name":"Object_52",
			"primitives":[
				{
					"attributes":{
						"POSITION":16,
						"NORMAL":17,
						"TEXCOORD_0":18
					},
					"indices":19,
					"material":4
				}
			]
		},
		{
			"name":"Object_53",
			"primitives":[
				{
					"attributes":{
						"POSITION":20,
						"NORMAL":21,
						"TEXCOORD_0":22
					},
					"indices":23,
					"material":5
				}
			]
		}
	],
	"textures":[
		{
			"sampler":0,
			"source":0
		},
		{
			"sampler":0,
			"source":1
		},
		{
			"sampler":0,
			"source":2
		},
		{
			"sampler":0,
			"source":3
		},
		{
			"sampler":0,
			"source":4
		},
		{
			"sampler":0,
			"source":5
		}
	],
	"images":[
		{
			"mimeType":"image/jpeg",
			"name":"trunk-01-1_baseColor",
			"uri":"trunk-01-1_baseColor.jpg"
		},
		{
			"mimeType":"image/png",
			"name":"branch-02_baseColor",
			"uri":"branch-02_baseColor.png"
		},
		{
			"mimeType":"image/png",
			"name":"branch-01_baseColor",
			"uri":"branch-01_baseColor.png"
		},
		{
			"mimeType":"image/png",
			"name":"branch-04_baseColor",
			"uri":"branch-04_baseColor.png"
		},
		{
			"mimeType":"image/png",
			"name":"branch-05_baseColor",
			"uri":"branch-05_baseColor.png"
		},
		{
			"mimeType":"image/png",
			"name":"branch-03_baseColor",
			"uri":"branch-03_baseColor.png"
		}
	],
	"accessors":[
		{
			"bufferView":0,
			"componentType":5126,
			"count":296,
			"max":[
				0.5629196166992188,
				7.866107940673828,
				0.9973721504211426
			],
			"min":[
				-0.9602394104003906,
				0,
				-0.6806681156158447
			],
			"type":"VEC3"
		},
		{
			"bufferView":1,
			"componentType":5126,
			"count":296,
			"type":"VEC3"
		},
		{
			"bufferView":2,
			"componentType":5126,
			"count":296,
			"type":"VEC2"
		},
		{
			"bufferView":3,
			"componentType":5123,
			"count":666,
			"type":"SCALAR"
		},
		{
			"bufferView":4,
			"componentType":5126,
			"count":126,
			"max":[
				2.9747047424316406,
				8.677468299865723,
				2.98984432220459
			],
			"min":[
				-2.328693389892578,
				1.706575870513916,
				-2.7433524131774902
			],
			"type":"VEC3"
		},
		{
			"bufferView":5,
			"componentType":5126,
			"count":126,
			"type":"VEC3"
		},
		{
			"bufferView":6,
			"componentType":5126,
			"count":126,
			"type":"VEC2"
		},
		{
			"bufferView":7,
			"componentType":5123,
			"count":336,
			"type":"SCALAR"
		},
		{
			"bufferView":8,
			"componentType":5126,
			"count":135,
			"max":[
				2.5667781829833984,
				8.331756591796875,
				1.8430252075195312
			],
			"min":[
				-3.0207881927490234,
				1.9714598655700684,
				-2.7317111492156982
			],
			"type":"VEC3"
		},
		{
			"bufferView":9,
			"componentType":5126,
			"count":135,
			"type":"VEC3"
		},
		{
			"bufferView":10,
			"componentType":5126,
			"count":135,
			"type":"VEC2"
		},
		{
			"bufferView":11,
			"componentType":5123,
			"count":360,
			"type":"SCALAR"
		},
		{
			"bufferView":12,
			"componentType":5126,
			"count":120,
			"max":[
				1.9875450134277344,
				8.77813720703125,
				2.319150447845459
			],
			"min":[
				-1.622610092163086,
				2.923337936401367,
				-1.3771018981933594
			],
			"type":"VEC3"
		},
		{
			"bufferView":13,
			"componentType":5126,
			"count":120,
			"type":"VEC3"
		},
		{
			"bufferView":14,
			"componentType":5126,
			"count":120,
			"type":"VEC2"
		},
		{
			"bufferView":15,
			"componentType":5123,
			"count":240,
			"type":"SCALAR"
		},
		{
			"bufferView":16,
			"componentType":5126,
			"count":82,
			"max":[
				0.9014797210693359,
				8.63774299621582,
				2.3342103958129883
			],
			"min":[
				-2.974029541015625,
				0.8532743453979492,
				-1.1115410327911377
			],
			"type":"VEC3"
		},
		{
			"bufferView":17,
			"componentType":5126,
			"count":82,
			"type":"VEC3"
		},
		{
			"bufferView":18,
			"componentType":5126,
			"count":82,
			"type":"VEC2"
		},
		{
			"bufferView":19,
			"componentType":5123,
			"count":192,
			"type":"SCALAR"
		},
		{
			"bufferView":20,
			"componentType":5126,
			"count":55,
			"max":[
				2.149118423461914,
				8.320038795471191,
				2.0613698959350586
			],
			"min":[
				-1.7286415100097656,
				1.1863832473754883,
				-2.116182327270508
			],
			"type":"VEC3"
		},
		{
			"bufferView":21,
			"componentType":5126,
			"count":55,
			"type":"VEC3"
		},
		{
			"bufferView":22,
			"componentType":5126,
			"count":55,
			"type":"VEC2"
		},
		{
			"bufferView":23,
			"componentType":5123,
			"count":144,
			"type":"SCALAR"
		}
	],
	"bufferViews":[
		{
			"buffer":0,
			"byteLength":3552,
			"byteOffset":0,
			"target":34962
		},
		{
			"buffer":0,
			"byteLength":3552,
			"byteOffset":3552,
			"target":34962
		},
		{
			"buffer":0,
			"byteLength":2368,
			"byteOffset":7104,
			"target":34962
		},
		{
			"buffer":0,
			"byteLength":1332,
			"byteOffset":9472,
			"target":34963
		},
		{
			"buffer":0,
			"byteLength":1512,
			"byteOffset":10804,
			"target":34962
		},
		{
			"buffer":0,
			"byteLength":1512,
			"byteOffset":12316,
			"target":34962
		},
		{
			"buffer":0,
			"byteLength":1008,
			"byteOffset":13828,
			"target":34962
		},
		{
			"buffer":0,
			"byteLength":672,
			"byteOffset":14836,
			"target":34963
		},
		{
			"buffer":0,
			"byteLength":1620,
			"byteOffset":15508,
			"target":34962
		},
		{
			"buffer":0,
			"byteLength":1620,
			"byteOffset":17128,
			"target":34962
		},
		{
			"buffer":0,
			"byteLength":1080,
			"byteOffset":18748,
			"target":34962
		},
		{
			"buffer":0,
			"byteLength":720,
			"byteOffset":19828,
			"target":34963
		},
		{
			"buffer":0,
			"byteLength":1440,
			"byteOffset":20548,
			"target":34962
		},
		{
			"buffer":0,
			"byteLength":1440,
			"byteOffset":21988,
			"target":34962
		},
		{
			"buffer":0,
			"byteLength":960,
			"byteOffset":23428,
			"target":34962
		},
		{
			"buffer":0,
			"byteLength":480,
			"byteOffset":24388,
			"target":34963
		},
		{
			"buffer":0,
			"byteLength":984,
			"byteOffset":24868,
			"target":34962
		},
		{
			"buffer":0,
			"byteLength":984,
			"byteOffset":25852,
			"target":34962
		},
		{
			"buffer":0,
			"byteLength":656,
			"byteOffset":26836,
			"target":34962
		},
		{
			"buffer":0,
			"byteLength":384,
			"byteOffset":27492,
			"target":34963
		},
		{
			"buffer":0,
			"byteLength":660,
			"byteOffset":27876,
			"target":34962
		},
		{
			"buffer":0,
			"byteLength":660,
			"byteOffset":28536,
			"target":34962
		},
		{
			"buffer":0,
			"byteLength":440,
			"byteOffset":29196,
			"target":34962
		},
		{
			"buffer":0,
			"byteLength":288,
			"byteOffset":29636,
			"target":34963
		}
	],
	"samplers":[
		{
			"magFilter":9729,
			"minFilter":9987
		}
	],
	"buffers":[
		{
			"byteLength":29924,
			"uri":"Tree9.bin"
		}
	]
}
