{
	"asset":{
		"generator":"Khronos glTF Blender I/O v5.1.19",
		"version":"2.0"
	},
	"scene":0,
	"scenes":[
		{
			"name":"Scene",
			"nodes":[
				0,
				1,
				2,
				3
			]
		}
	],
	"nodes":[
		{
			"mesh":0,
			"name":"Object_88",
			"scale":[
				30.144533157348633,
				30.144533157348633,
				30.144533157348633
			],
			"translation":[
				1.1999280452728271,
				0,
				3.137957811355591
			]
		},
		{
			"mesh":1,
			"name":"Object_89",
			"scale":[
				30.144533157348633,
				30.144533157348633,
				30.144533157348633
			],
			"translation":[
				1.1999280452728271,
				0,
				3.137957811355591
			]
		},
		{
			"mesh":2,
			"name":"Object_90",
			"scale":[
				30.144533157348633,
				30.144533157348633,
				30.144533157348633
			],
			"translation":[
				1.1999280452728271,
				0,
				3.137957811355591
			]
		},
		{
			"mesh":3,
			"name":"Object_91",
			"scale":[
				30.144533157348633,
				30.144533157348633,
				30.144533157348633
			],
			"translation":[
				1.1999280452728271,
				0,
				3.137957811355591
			]
		}
	],
	"materials":[
		{
			"alphaMode":"BLEND",
			"doubleSided":true,
			"name":"hedge-01.002",
			"pbrMetallicRoughness":{
				"baseColorTexture":{
					"index":0
				},
				"metallicFactor":0,
				"roughnessFactor":0.5
			}
		},
		{
			"alphaMode":"BLEND",
			"doubleSided":true,
			"name":"hedge-01",
			"pbrMetallicRoughness":{
				"baseColorTexture":{
					"index":1
				},
				"metallicFactor":0,
				"roughnessFactor":0.5
			}
		},
		{
			"alphaMode":"BLEND",
			"doubleSided":true,
			"name":"hedge-01.001",
			"pbrMetallicRoughness":{
				"baseColorTexture":{
					"index":2
				},
				"metallicFactor":0,
				"roughnessFactor":0.5
			}
		},
		{
			"alphaMode":"BLEND",
			"doubleSided":true,
			"name":"hedge-01.003",
			"pbrMetallicRoughness":{
				"baseColorTexture":{
					"index":3
				},
				"metallicFactor":0,
				"roughnessFactor":0.5
			}
		}
	],
	"meshes":[
		{
			"name":"Object_72",
			"primitives":[
				{
					"attributes":{
						"POSITION":0,
						"NORMAL":1,
						"TEXCOORD_0":2
					},
					"indices":3,
					"material":0
				}
			]
		},
		{
			"name":"Object_73",
			"primitives":[
				{
					"attributes":{
						"POSITION":4,
						"NORMAL":5,
						"TEXCOORD_0":6
					},
					"indices":7,
					"material":1
				}
			]
		},
		{
			"name":"Object_74",
			"primitives":[
				{
					"attributes":{
						"POSITION":8,
						"NORMAL":9,
						"TEXCOORD_0":10
					},
					"indices":11,
					"material":2
				}
			]
		},
		{
			"name":"Object_75",
			"primitives":[
				{
					"attributes":{
						"POSITION":12,
						"NORMAL":13,
						"TEXCOORD_0":14
					},
					"indices":15,
					"material":3
				}
			]
		}
	],
	"textures":[
		{
			"sampler":0,
			"source":0
		},
		{
			"sampler":0,
			"source":1
		},
		{
			"sampler":0,
			"source":2
		},
		{
			"sampler":0,
			"source":3
		}
	],
	"images":[
		{
			"mimeType":"image/png",
			"name":"hedge-01.002_baseColor",
			"uri":"hedge-01.002_baseColor.png"
		},
		{
			"mimeType":"image/png",
			"name":"hedge-01_baseColor",
			"uri":"hedge-01_baseColor.png"
		},
		{
			"mimeType":"image/png",
			"name":"hedge-01.001_baseColor",
			"uri":"hedge-01.001_baseColor.png"
		},
		{
			"mimeType":"image/png",
			"name":"hedge-01.003_baseColor",
			"uri":"hedge-01.003_baseColor.png"
		}
	],
	"accessors":[
		{
			"bufferView":0,
			"componentType":5126,
			"count":136,
			"max":[
				1.4533970355987549,
				1.3316688537597656,
				0.9170105457305908
			],
			"min":[
				-1.6033470630645752,
				1.7881393432617188e-07,
				-0.9200267791748047
			],
			"type":"VEC3"
		},
		{
			"bufferView":1,
			"componentType":5126,
			"count":136,
			"type":"VEC3"
		},
		{
			"bufferView":2,
			"componentType":5126,
			"count":136,
			"type":"VEC2"
		},
		{
			"bufferView":3,
			"componentType":5123,
			"count":168,
			"type":"SCALAR"
		},
		{
			"bufferView":4,
			"componentType":5126,
			"count":220,
			"max":[
				1.1039197444915771,
				1.32406485080719,
				0.7743308544158936
			],
			"min":[
				-1.3630845546722412,
				-0.03503978252410889,
				-0.7034410238265991
			],
			"type":"VEC3"
		},
		{
			"bufferView":5,
			"componentType":5126,
			"count":220,
			"type":"VEC3"
		},
		{
			"bufferView":6,
			"componentType":5126,
			"count":220,
			"type":"VEC2"
		},
		{
			"bufferView":7,
			"componentType":5123,
			"count":300,
			"type":"SCALAR"
		},
		{
			"bufferView":8,
			"componentType":5126,
			"count":124,
			"max":[
				1.5267808437347412,
				1.32406485080719,
				0.804018497467041
			],
			"min":[
				-1.643824815750122,
				-0.02803802490234375,
				-0.8296946287155151
			],
			"type":"VEC3"
		},
		{
			"bufferView":9,
			"componentType":5126,
			"count":124,
			"type":"VEC3"
		},
		{
			"bufferView":10,
			"componentType":5126,
			"count":124,
			"type":"VEC2"
		},
		{
			"bufferView":11,
			"componentType":5123,
			"count":156,
			"type":"SCALAR"
		},
		{
			"bufferView":12,
			"componentType":5126,
			"count":84,
			"max":[
				0.9896113872528076,
				1.3722199201583862,
				0.6946077346801758
			],
			"min":[
				-1.0144507884979248,
				1.7881393432617188e-07,
				-0.7186248302459717
			],
			"type":"VEC3"
		},
		{
			"bufferView":13,
			"componentType":5126,
			"count":84,
			"type":"VEC3"
		},
		{
			"bufferView":14,
			"componentType":5126,
			"count":84,
			"type":"VEC2"
		},
		{
			"bufferView":15,
			"componentType":5123,
			"count":108,
			"type":"SCALAR"
		}
	],
	"bufferViews":[
		{
			"buffer":0,
			"byteLength":1632,
			"byteOffset":0,
			"target":34962
		},
		{
			"buffer":0,
			"byteLength":1632,
			"byteOffset":1632,
			"target":34962
		},
		{
			"buffer":0,
			"byteLength":1088,
			"byteOffset":3264,
			"target":34962
		},
		{
			"buffer":0,
			"byteLength":336,
			"byteOffset":4352,
			"target":34963
		},
		{
			"buffer":0,
			"byteLength":2640,
			"byteOffset":4688,
			"target":34962
		},
		{
			"buffer":0,
			"byteLength":2640,
			"byteOffset":7328,
			"target":34962
		},
		{
			"buffer":0,
			"byteLength":1760,
			"byteOffset":9968,
			"target":34962
		},
		{
			"buffer":0,
			"byteLength":600,
			"byteOffset":11728,
			"target":34963
		},
		{
			"buffer":0,
			"byteLength":1488,
			"byteOffset":12328,
			"target":34962
		},
		{
			"buffer":0,
			"byteLength":1488,
			"byteOffset":13816,
			"target":34962
		},
		{
			"buffer":0,
			"byteLength":992,
			"byteOffset":15304,
			"target":34962
		},
		{
			"buffer":0,
			"byteLength":312,
			"byteOffset":16296,
			"target":34963
		},
		{
			"buffer":0,
			"byteLength":1008,
			"byteOffset":16608,
			"target":34962
		},
		{
			"buffer":0,
			"byteLength":1008,
			"byteOffset":17616,
			"target":34962
		},
		{
			"buffer":0,
			"byteLength":672,
			"byteOffset":18624,
			"target":34962
		},
		{
			"buffer":0,
			"byteLength":216,
			"byteOffset":19296,
			"target":34963
		}
	],
	"samplers":[
		{
			"magFilter":9729,
			"minFilter":9987
		}
	],
	"buffers":[
		{
			"byteLength":19512,
			"uri":"Bush7_Hedgh.bin"
		}
	]
}
