{
	"asset":{
		"generator":"Khronos glTF Blender I/O v5.1.19",
		"version":"2.0"
	},
	"scene":0,
	"scenes":[
		{
			"name":"Scene",
			"nodes":[
				5,
				6
			]
		}
	],
	"nodes":[
		{
			"mesh":0,
			"name":"Object_93"
		},
		{
			"mesh":1,
			"name":"Object_94"
		},
		{
			"mesh":2,
			"name":"Object_95"
		},
		{
			"mesh":3,
			"name":"Object_96"
		},
		{
			"mesh":4,
			"name":"Object_97"
		},
		{
			"children":[
				0,
				1,
				2,
				3,
				4
			],
			"name":"Bush-01_13",
			"scale":[
				30.144533157348633,
				30.144533157348633,
				30.144533157348633
			],
			"translation":[
				-0.3874411880970001,
				0,
				2.079237699508667
			]
		},
		{
			"name":"Bush-02_14",
			"scale":[
				30.144533157348633,
				30.144533157348633,
				30.144533157348633
			],
			"translation":[
				-1.5250529050827026,
				0,
				2.487675666809082
			]
		}
	],
	"materials":[
		{
			"alphaMode":"BLEND",
			"doubleSided":true,
			"name":"branch-03-1",
			"pbrMetallicRoughness":{
				"baseColorTexture":{
					"index":0
				},
				"metallicFactor":0,
				"roughnessFactor":0.5
			}
		},
		{
			"alphaMode":"BLEND",
			"doubleSided":true,
			"name":"branch-02-1",
			"pbrMetallicRoughness":{
				"baseColorTexture":{
					"index":1
				},
				"metallicFactor":0,
				"roughnessFactor":0.5
			}
		},
		{
			"alphaMode":"BLEND",
			"doubleSided":true,
			"name":"branch-01-1",
			"pbrMetallicRoughness":{
				"baseColorTexture":{
					"index":2
				},
				"metallicFactor":0,
				"roughnessFactor":0.5
			}
		},
		{
			"alphaMode":"BLEND",
			"doubleSided":true,
			"name":"branch-04-1",
			"pbrMetallicRoughness":{
				"baseColorTexture":{
					"index":3
				},
				"metallicFactor":0,
				"roughnessFactor":0.5
			}
		},
		{
			"alphaMode":"BLEND",
			"doubleSided":true,
			"name":"branch-05-1",
			"pbrMetallicRoughness":{
				"baseColorTexture":{
					"index":4
				},
				"metallicFactor":0,
				"roughnessFactor":0.5
			}
		}
	],
	"meshes":[
		{
			"name":"Object_76",
			"primitives":[
				{
					"attributes":{
						"POSITION":0,
						"NORMAL":1,
						"TEXCOORD_0":2
					},
					"indices":3,
					"material":0
				}
			]
		},
		{
			"name":"Object_77",
			"primitives":[
				{
					"attributes":{
						"POSITION":4,
						"NORMAL":5,
						"TEXCOORD_0":6
					},
					"indices":7,
					"material":1
				}
			]
		},
		{
			"name":"Object_78",
			"primitives":[
				{
					"attributes":{
						"POSITION":8,
						"NORMAL":9,
						"TEXCOORD_0":10
					},
					"indices":11,
					"material":2
				}
			]
		},
		{
			"name":"Object_79",
			"primitives":[
				{
					"attributes":{
						"POSITION":12,
						"NORMAL":13,
						"TEXCOORD_0":14
					},
					"indices":15,
					"material":3
				}
			]
		},
		{
			"name":"Object_80",
			"primitives":[
				{
					"attributes":{
						"POSITION":16,
						"NORMAL":17,
						"TEXCOORD_0":18
					},
					"indices":19,
					"material":4
				}
			]
		}
	],
	"textures":[
		{
			"sampler":0,
			"source":0
		},
		{
			"sampler":0,
			"source":1
		},
		{
			"sampler":0,
			"source":2
		},
		{
			"sampler":0,
			"source":3
		},
		{
			"sampler":0,
			"source":4
		}
	],
	"images":[
		{
			"mimeType":"image/png",
			"name":"branch-03-1_baseColor",
			"uri":"branch-03-1_baseColor.png"
		},
		{
			"mimeType":"image/png",
			"name":"branch-02-1_baseColor",
			"uri":"branch-02-1_baseColor.png"
		},
		{
			"mimeType":"image/png",
			"name":"branch-01-1_baseColor",
			"uri":"branch-01-1_baseColor.png"
		},
		{
			"mimeType":"image/png",
			"name":"branch-04-1_baseColor",
			"uri":"branch-04-1_baseColor.png"
		},
		{
			"mimeType":"image/png",
			"name":"branch-05-1_baseColor",
			"uri":"branch-05-1_baseColor.png"
		}
	],
	"accessors":[
		{
			"bufferView":0,
			"componentType":5126,
			"count":54,
			"max":[
				0.5919818878173828,
				0.823622465133667,
				0.5812239646911621
			],
			"min":[
				-0.5081019401550293,
				-0.057313472032547,
				-0.5173425674438477
			],
			"type":"VEC3"
		},
		{
			"bufferView":1,
			"componentType":5126,
			"count":54,
			"type":"VEC3"
		},
		{
			"bufferView":2,
			"componentType":5126,
			"count":54,
			"type":"VEC2"
		},
		{
			"bufferView":3,
			"componentType":5123,
			"count":144,
			"type":"SCALAR"
		},
		{
			"bufferView":4,
			"componentType":5126,
			"count":27,
			"max":[
				0.5251216888427734,
				0.8244329690933228,
				0.474393367767334
			],
			"min":[
				-0.6544723510742188,
				-0.0604400634765625,
				-0.6158957481384277
			],
			"type":"VEC3"
		},
		{
			"bufferView":5,
			"componentType":5126,
			"count":27,
			"type":"VEC3"
		},
		{
			"bufferView":6,
			"componentType":5126,
			"count":27,
			"type":"VEC2"
		},
		{
			"bufferView":7,
			"componentType":5123,
			"count":72,
			"type":"SCALAR"
		},
		{
			"bufferView":8,
			"componentType":5126,
			"count":18,
			"max":[
				0.4370839595794678,
				0.6633157134056091,
				0.5585494041442871
			],
			"min":[
				-0.491443395614624,
				-0.05355250835418701,
				-0.31856441497802734
			],
			"type":"VEC3"
		},
		{
			"bufferView":9,
			"componentType":5126,
			"count":18,
			"type":"VEC3"
		},
		{
			"bufferView":10,
			"componentType":5126,
			"count":18,
			"type":"VEC2"
		},
		{
			"bufferView":11,
			"componentType":5123,
			"count":48,
			"type":"SCALAR"
		},
		{
			"bufferView":12,
			"componentType":5126,
			"count":18,
			"max":[
				0.31307411193847656,
				0.8051474690437317,
				0.2752509117126465
			],
			"min":[
				-0.3787527084350586,
				-0.05670362710952759,
				-0.5354185104370117
			],
			"type":"VEC3"
		},
		{
			"bufferView":13,
			"componentType":5126,
			"count":18,
			"type":"VEC3"
		},
		{
			"bufferView":14,
			"componentType":5126,
			"count":18,
			"type":"VEC2"
		},
		{
			"bufferView":15,
			"componentType":5123,
			"count":48,
			"type":"SCALAR"
		},
		{
			"bufferView":16,
			"componentType":5126,
			"count":27,
			"max":[
				0.39057230949401855,
				0.7229356169700623,
				0.5168261528015137
			],
			"min":[
				-0.5114421844482422,
				-0.05652335286140442,
				-0.4735894203186035
			],
			"type":"VEC3"
		},
		{
			"bufferView":17,
			"componentType":5126,
			"count":27,
			"type":"VEC3"
		},
		{
			"bufferView":18,
			"componentType":5126,
			"count":27,
			"type":"VEC2"
		},
		{
			"bufferView":19,
			"componentType":5123,
			"count":72,
			"type":"SCALAR"
		}
	],
	"bufferViews":[
		{
			"buffer":0,
			"byteLength":648,
			"byteOffset":0,
			"target":34962
		},
		{
			"buffer":0,
			"byteLength":648,
			"byteOffset":648,
			"target":34962
		},
		{
			"buffer":0,
			"byteLength":432,
			"byteOffset":1296,
			"target":34962
		},
		{
			"buffer":0,
			"byteLength":288,
			"byteOffset":1728,
			"target":34963
		},
		{
			"buffer":0,
			"byteLength":324,
			"byteOffset":2016,
			"target":34962
		},
		{
			"buffer":0,
			"byteLength":324,
			"byteOffset":2340,
			"target":34962
		},
		{
			"buffer":0,
			"byteLength":216,
			"byteOffset":2664,
			"target":34962
		},
		{
			"buffer":0,
			"byteLength":144,
			"byteOffset":2880,
			"target":34963
		},
		{
			"buffer":0,
			"byteLength":216,
			"byteOffset":3024,
			"target":34962
		},
		{
			"buffer":0,
			"byteLength":216,
			"byteOffset":3240,
			"target":34962
		},
		{
			"buffer":0,
			"byteLength":144,
			"byteOffset":3456,
			"target":34962
		},
		{
			"buffer":0,
			"byteLength":96,
			"byteOffset":3600,
			"target":34963
		},
		{
			"buffer":0,
			"byteLength":216,
			"byteOffset":3696,
			"target":34962
		},
		{
			"buffer":0,
			"byteLength":216,
			"byteOffset":3912,
			"target":34962
		},
		{
			"buffer":0,
			"byteLength":144,
			"byteOffset":4128,
			"target":34962
		},
		{
			"buffer":0,
			"byteLength":96,
			"byteOffset":4272,
			"target":34963
		},
		{
			"buffer":0,
			"byteLength":324,
			"byteOffset":4368,
			"target":34962
		},
		{
			"buffer":0,
			"byteLength":324,
			"byteOffset":4692,
			"target":34962
		},
		{
			"buffer":0,
			"byteLength":216,
			"byteOffset":5016,
			"target":34962
		},
		{
			"buffer":0,
			"byteLength":144,
			"byteOffset":5232,
			"target":34963
		}
	],
	"samplers":[
		{
			"magFilter":9729,
			"minFilter":9987
		}
	],
	"buffers":[
		{
			"byteLength":5376,
			"uri":"Bush.bin"
		}
	]
}
