{
	"asset":{
		"generator":"Khronos glTF Blender I/O v5.1.19",
		"version":"2.0"
	},
	"scene":0,
	"scenes":[
		{
			"name":"Scene",
			"nodes":[
				6
			]
		}
	],
	"nodes":[
		{
			"mesh":0,
			"name":"Object_115"
		},
		{
			"mesh":1,
			"name":"Object_116"
		},
		{
			"mesh":2,
			"name":"Object_117"
		},
		{
			"mesh":3,
			"name":"Object_118"
		},
		{
			"mesh":4,
			"name":"Object_119"
		},
		{
			"mesh":5,
			"name":"Object_120"
		},
		{
			"children":[
				0,
				1,
				2,
				3,
				4,
				5
			],
			"name":"Bush-05_17",
			"scale":[
				30.144533157348633,
				30.144533157348633,
				30.144533157348633
			],
			"translation":[
				2.00822114944458,
				0,
				-0.47624966502189636
			]
		}
	],
	"materials":[
		{
			"doubleSided":true,
			"name":"trunk-01",
			"pbrMetallicRoughness":{
				"baseColorTexture":{
					"index":0
				},
				"metallicFactor":0,
				"roughnessFactor":0.3431819975376129
			}
		},
		{
			"alphaMode":"BLEND",
			"doubleSided":true,
			"name":"branch-02-1",
			"pbrMetallicRoughness":{
				"baseColorTexture":{
					"index":1
				},
				"metallicFactor":0,
				"roughnessFactor":0.5
			}
		},
		{
			"alphaMode":"BLEND",
			"doubleSided":true,
			"name":"branch-01-1",
			"pbrMetallicRoughness":{
				"baseColorTexture":{
					"index":2
				},
				"metallicFactor":0,
				"roughnessFactor":0.5
			}
		},
		{
			"alphaMode":"BLEND",
			"doubleSided":true,
			"name":"branch-04-1",
			"pbrMetallicRoughness":{
				"baseColorTexture":{
					"index":3
				},
				"metallicFactor":0,
				"roughnessFactor":0.5
			}
		},
		{
			"alphaMode":"BLEND",
			"doubleSided":true,
			"name":"branch-05-1",
			"pbrMetallicRoughness":{
				"baseColorTexture":{
					"index":4
				},
				"metallicFactor":0,
				"roughnessFactor":0.5
			}
		},
		{
			"alphaMode":"BLEND",
			"doubleSided":true,
			"name":"branch-03-1",
			"pbrMetallicRoughness":{
				"baseColorTexture":{
					"index":5
				},
				"metallicFactor":0,
				"roughnessFactor":0.5
			}
		}
	],
	"meshes":[
		{
			"name":"Object_94",
			"primitives":[
				{
					"attributes":{
						"POSITION":0,
						"NORMAL":1,
						"TEXCOORD_0":2
					},
					"indices":3,
					"material":0
				}
			]
		},
		{
			"name":"Object_95",
			"primitives":[
				{
					"attributes":{
						"POSITION":4,
						"NORMAL":5,
						"TEXCOORD_0":6
					},
					"indices":7,
					"material":1
				}
			]
		},
		{
			"name":"Object_96",
			"primitives":[
				{
					"attributes":{
						"POSITION":8,
						"NORMAL":9,
						"TEXCOORD_0":10
					},
					"indices":11,
					"material":2
				}
			]
		},
		{
			"name":"Object_97",
			"primitives":[
				{
					"attributes":{
						"POSITION":12,
						"NORMAL":13,
						"TEXCOORD_0":14
					},
					"indices":15,
					"material":3
				}
			]
		},
		{
			"name":"Object_98",
			"primitives":[
				{
					"attributes":{
						"POSITION":16,
						"NORMAL":17,
						"TEXCOORD_0":18
					},
					"indices":19,
					"material":4
				}
			]
		},
		{
			"name":"Object_99",
			"primitives":[
				{
					"attributes":{
						"POSITION":20,
						"NORMAL":21,
						"TEXCOORD_0":22
					},
					"indices":23,
					"material":5
				}
			]
		}
	],
	"textures":[
		{
			"sampler":0,
			"source":0
		},
		{
			"sampler":0,
			"source":1
		},
		{
			"sampler":0,
			"source":2
		},
		{
			"sampler":0,
			"source":3
		},
		{
			"sampler":0,
			"source":4
		},
		{
			"sampler":0,
			"source":5
		}
	],
	"images":[
		{
			"mimeType":"image/jpeg",
			"name":"trunk-01-1_baseColor",
			"uri":"trunk-01-1_baseColor.jpg"
		},
		{
			"mimeType":"image/png",
			"name":"branch-02-1_baseColor",
			"uri":"branch-02-1_baseColor.png"
		},
		{
			"mimeType":"image/png",
			"name":"branch-01-1_baseColor",
			"uri":"branch-01-1_baseColor.png"
		},
		{
			"mimeType":"image/png",
			"name":"branch-04-1_baseColor",
			"uri":"branch-04-1_baseColor.png"
		},
		{
			"mimeType":"image/png",
			"name":"branch-05-1_baseColor",
			"uri":"branch-05-1_baseColor.png"
		},
		{
			"mimeType":"image/png",
			"name":"branch-03-1_baseColor",
			"uri":"branch-03-1_baseColor.png"
		}
	],
	"accessors":[
		{
			"bufferView":0,
			"componentType":5126,
			"count":282,
			"max":[
				0.3828623294830322,
				1.9231780767440796,
				0.7699260711669922
			],
			"min":[
				-0.6543300151824951,
				-0.00673067569732666,
				-0.4331989288330078
			],
			"type":"VEC3"
		},
		{
			"bufferView":1,
			"componentType":5126,
			"count":282,
			"type":"VEC3"
		},
		{
			"bufferView":2,
			"componentType":5126,
			"count":282,
			"type":"VEC2"
		},
		{
			"bufferView":3,
			"componentType":5123,
			"count":537,
			"type":"SCALAR"
		},
		{
			"bufferView":4,
			"componentType":5126,
			"count":118,
			"max":[
				2.13852596282959,
				2.1994242668151855,
				2.1971397399902344
			],
			"min":[
				-1.666643738746643,
				0.0021976232528686523,
				-2.3456172943115234
			],
			"type":"VEC3"
		},
		{
			"bufferView":5,
			"componentType":5126,
			"count":118,
			"type":"VEC3"
		},
		{
			"bufferView":6,
			"componentType":5126,
			"count":118,
			"type":"VEC2"
		},
		{
			"bufferView":7,
			"componentType":5123,
			"count":312,
			"type":"SCALAR"
		},
		{
			"bufferView":8,
			"componentType":5126,
			"count":108,
			"max":[
				1.9567499160766602,
				2.1638598442077637,
				1.3944854736328125
			],
			"min":[
				-2.094125747680664,
				0.14428603649139404,
				-2.428434371948242
			],
			"type":"VEC3"
		},
		{
			"bufferView":9,
			"componentType":5126,
			"count":108,
			"type":"VEC3"
		},
		{
			"bufferView":10,
			"componentType":5126,
			"count":108,
			"type":"VEC2"
		},
		{
			"bufferView":11,
			"componentType":5123,
			"count":288,
			"type":"SCALAR"
		},
		{
			"bufferView":12,
			"componentType":5126,
			"count":115,
			"max":[
				1.8118772506713867,
				2.2336995601654053,
				1.6254005432128906
			],
			"min":[
				-0.9288113117218018,
				0.3594183921813965,
				-0.9270725250244141
			],
			"type":"VEC3"
		},
		{
			"bufferView":13,
			"componentType":5126,
			"count":115,
			"type":"VEC3"
		},
		{
			"bufferView":14,
			"componentType":5126,
			"count":115,
			"type":"VEC2"
		},
		{
			"bufferView":15,
			"componentType":5123,
			"count":240,
			"type":"SCALAR"
		},
		{
			"bufferView":16,
			"componentType":5126,
			"count":57,
			"max":[
				0.6763601303100586,
				2.185898780822754,
				1.6120243072509766
			],
			"min":[
				-1.6508560180664062,
				0.05084633827209473,
				-0.7411880493164062
			],
			"type":"VEC3"
		},
		{
			"bufferView":17,
			"componentType":5126,
			"count":57,
			"type":"VEC3"
		},
		{
			"bufferView":18,
			"componentType":5126,
			"count":57,
			"type":"VEC2"
		},
		{
			"bufferView":19,
			"componentType":5123,
			"count":144,
			"type":"SCALAR"
		},
		{
			"bufferView":20,
			"componentType":5126,
			"count":54,
			"max":[
				1.7497100830078125,
				2.0777292251586914,
				1.4283504486083984
			],
			"min":[
				-1.3423985242843628,
				0.041007280349731445,
				-1.4784812927246094
			],
			"type":"VEC3"
		},
		{
			"bufferView":21,
			"componentType":5126,
			"count":54,
			"type":"VEC3"
		},
		{
			"bufferView":22,
			"componentType":5126,
			"count":54,
			"type":"VEC2"
		},
		{
			"bufferView":23,
			"componentType":5123,
			"count":144,
			"type":"SCALAR"
		}
	],
	"bufferViews":[
		{
			"buffer":0,
			"byteLength":3384,
			"byteOffset":0,
			"target":34962
		},
		{
			"buffer":0,
			"byteLength":3384,
			"byteOffset":3384,
			"target":34962
		},
		{
			"buffer":0,
			"byteLength":2256,
			"byteOffset":6768,
			"target":34962
		},
		{
			"buffer":0,
			"byteLength":1074,
			"byteOffset":9024,
			"target":34963
		},
		{
			"buffer":0,
			"byteLength":1416,
			"byteOffset":10100,
			"target":34962
		},
		{
			"buffer":0,
			"byteLength":1416,
			"byteOffset":11516,
			"target":34962
		},
		{
			"buffer":0,
			"byteLength":944,
			"byteOffset":12932,
			"target":34962
		},
		{
			"buffer":0,
			"byteLength":624,
			"byteOffset":13876,
			"target":34963
		},
		{
			"buffer":0,
			"byteLength":1296,
			"byteOffset":14500,
			"target":34962
		},
		{
			"buffer":0,
			"byteLength":1296,
			"byteOffset":15796,
			"target":34962
		},
		{
			"buffer":0,
			"byteLength":864,
			"byteOffset":17092,
			"target":34962
		},
		{
			"buffer":0,
			"byteLength":576,
			"byteOffset":17956,
			"target":34963
		},
		{
			"buffer":0,
			"byteLength":1380,
			"byteOffset":18532,
			"target":34962
		},
		{
			"buffer":0,
			"byteLength":1380,
			"byteOffset":19912,
			"target":34962
		},
		{
			"buffer":0,
			"byteLength":920,
			"byteOffset":21292,
			"target":34962
		},
		{
			"buffer":0,
			"byteLength":480,
			"byteOffset":22212,
			"target":34963
		},
		{
			"buffer":0,
			"byteLength":684,
			"byteOffset":22692,
			"target":34962
		},
		{
			"buffer":0,
			"byteLength":684,
			"byteOffset":23376,
			"target":34962
		},
		{
			"buffer":0,
			"byteLength":456,
			"byteOffset":24060,
			"target":34962
		},
		{
			"buffer":0,
			"byteLength":288,
			"byteOffset":24516,
			"target":34963
		},
		{
			"buffer":0,
			"byteLength":648,
			"byteOffset":24804,
			"target":34962
		},
		{
			"buffer":0,
			"byteLength":648,
			"byteOffset":25452,
			"target":34962
		},
		{
			"buffer":0,
			"byteLength":432,
			"byteOffset":26100,
			"target":34962
		},
		{
			"buffer":0,
			"byteLength":288,
			"byteOffset":26532,
			"target":34963
		}
	],
	"samplers":[
		{
			"magFilter":9729,
			"minFilter":9987
		}
	],
	"buffers":[
		{
			"byteLength":26820,
			"uri":"Bush5.bin"
		}
	]
}
