{
	"asset":{
		"generator":"Khronos glTF Blender I/O v5.1.19",
		"version":"2.0"
	},
	"scene":0,
	"scenes":[
		{
			"name":"Scene",
			"nodes":[
				5
			]
		}
	],
	"nodes":[
		{
			"mesh":0,
			"name":"Object_100"
		},
		{
			"mesh":1,
			"name":"Object_101"
		},
		{
			"mesh":2,
			"name":"Object_102"
		},
		{
			"mesh":3,
			"name":"Object_103"
		},
		{
			"mesh":4,
			"name":"Object_99"
		},
		{
			"children":[
				0,
				1,
				2,
				3,
				4
			],
			"name":"Bush-02_14",
			"scale":[
				30.144533157348633,
				30.144533157348633,
				30.144533157348633
			],
			"translation":[
				-1.5250529050827026,
				0,
				2.487675666809082
			]
		}
	],
	"materials":[
		{
			"alphaMode":"BLEND",
			"doubleSided":true,
			"name":"branch-02-1",
			"pbrMetallicRoughness":{
				"baseColorTexture":{
					"index":0
				},
				"metallicFactor":0,
				"roughnessFactor":0.5
			}
		},
		{
			"alphaMode":"BLEND",
			"doubleSided":true,
			"name":"branch-01-1",
			"pbrMetallicRoughness":{
				"baseColorTexture":{
					"index":1
				},
				"metallicFactor":0,
				"roughnessFactor":0.5
			}
		},
		{
			"alphaMode":"BLEND",
			"doubleSided":true,
			"name":"branch-04-1",
			"pbrMetallicRoughness":{
				"baseColorTexture":{
					"index":2
				},
				"metallicFactor":0,
				"roughnessFactor":0.5
			}
		},
		{
			"alphaMode":"BLEND",
			"doubleSided":true,
			"name":"branch-05-1",
			"pbrMetallicRoughness":{
				"baseColorTexture":{
					"index":3
				},
				"metallicFactor":0,
				"roughnessFactor":0.5
			}
		},
		{
			"alphaMode":"BLEND",
			"doubleSided":true,
			"name":"branch-03-1",
			"pbrMetallicRoughness":{
				"baseColorTexture":{
					"index":4
				},
				"metallicFactor":0,
				"roughnessFactor":0.5
			}
		}
	],
	"meshes":[
		{
			"name":"Object_82",
			"primitives":[
				{
					"attributes":{
						"POSITION":0,
						"NORMAL":1,
						"TEXCOORD_0":2
					},
					"indices":3,
					"material":0
				}
			]
		},
		{
			"name":"Object_83",
			"primitives":[
				{
					"attributes":{
						"POSITION":4,
						"NORMAL":5,
						"TEXCOORD_0":6
					},
					"indices":7,
					"material":1
				}
			]
		},
		{
			"name":"Object_84",
			"primitives":[
				{
					"attributes":{
						"POSITION":8,
						"NORMAL":9,
						"TEXCOORD_0":10
					},
					"indices":11,
					"material":2
				}
			]
		},
		{
			"name":"Object_85",
			"primitives":[
				{
					"attributes":{
						"POSITION":12,
						"NORMAL":13,
						"TEXCOORD_0":14
					},
					"indices":15,
					"material":3
				}
			]
		},
		{
			"name":"Object_81",
			"primitives":[
				{
					"attributes":{
						"POSITION":16,
						"NORMAL":17,
						"TEXCOORD_0":18
					},
					"indices":19,
					"material":4
				}
			]
		}
	],
	"textures":[
		{
			"sampler":0,
			"source":0
		},
		{
			"sampler":0,
			"source":1
		},
		{
			"sampler":0,
			"source":2
		},
		{
			"sampler":0,
			"source":3
		},
		{
			"sampler":0,
			"source":4
		}
	],
	"images":[
		{
			"mimeType":"image/png",
			"name":"branch-02-1_baseColor",
			"uri":"branch-02-1_baseColor.png"
		},
		{
			"mimeType":"image/png",
			"name":"branch-01-1_baseColor",
			"uri":"branch-01-1_baseColor.png"
		},
		{
			"mimeType":"image/png",
			"name":"branch-04-1_baseColor",
			"uri":"branch-04-1_baseColor.png"
		},
		{
			"mimeType":"image/png",
			"name":"branch-05-1_baseColor",
			"uri":"branch-05-1_baseColor.png"
		},
		{
			"mimeType":"image/png",
			"name":"branch-03-1_baseColor",
			"uri":"branch-03-1_baseColor.png"
		}
	],
	"accessors":[
		{
			"bufferView":0,
			"componentType":5126,
			"count":54,
			"max":[
				0.5970587730407715,
				0.8264466524124146,
				0.6764063835144043
			],
			"min":[
				-0.4886806011199951,
				-0.023210972547531128,
				-0.5954909324645996
			],
			"type":"VEC3"
		},
		{
			"bufferView":1,
			"componentType":5126,
			"count":54,
			"type":"VEC3"
		},
		{
			"bufferView":2,
			"componentType":5126,
			"count":54,
			"type":"VEC2"
		},
		{
			"bufferView":3,
			"componentType":5123,
			"count":144,
			"type":"SCALAR"
		},
		{
			"bufferView":4,
			"componentType":5126,
			"count":18,
			"max":[
				0.42369794845581055,
				0.66361403465271,
				0.4234962463378906
			],
			"min":[
				-0.44733190536499023,
				-0.02599075436592102,
				-0.3125
			],
			"type":"VEC3"
		},
		{
			"bufferView":5,
			"componentType":5126,
			"count":18,
			"type":"VEC3"
		},
		{
			"bufferView":6,
			"componentType":5126,
			"count":18,
			"type":"VEC2"
		},
		{
			"bufferView":7,
			"componentType":5123,
			"count":48,
			"type":"SCALAR"
		},
		{
			"bufferView":8,
			"componentType":5126,
			"count":18,
			"max":[
				0.41308093070983887,
				0.808118462562561,
				0.3542318344116211
			],
			"min":[
				-0.309253454208374,
				-0.0469379723072052,
				-0.3672633171081543
			],
			"type":"VEC3"
		},
		{
			"bufferView":9,
			"componentType":5126,
			"count":18,
			"type":"VEC3"
		},
		{
			"bufferView":10,
			"componentType":5126,
			"count":18,
			"type":"VEC2"
		},
		{
			"bufferView":11,
			"componentType":5123,
			"count":48,
			"type":"SCALAR"
		},
		{
			"bufferView":12,
			"componentType":5126,
			"count":27,
			"max":[
				0.40947651863098145,
				0.6943450570106506,
				0.41272926330566406
			],
			"min":[
				-0.5634341239929199,
				-0.04861047863960266,
				-0.4557490348815918
			],
			"type":"VEC3"
		},
		{
			"bufferView":13,
			"componentType":5126,
			"count":27,
			"type":"VEC3"
		},
		{
			"bufferView":14,
			"componentType":5126,
			"count":27,
			"type":"VEC2"
		},
		{
			"bufferView":15,
			"componentType":5123,
			"count":72,
			"type":"SCALAR"
		},
		{
			"bufferView":16,
			"componentType":5126,
			"count":36,
			"max":[
				0.5131311416625977,
				0.8272507190704346,
				0.5840287208557129
			],
			"min":[
				-0.5952877998352051,
				-0.05064612627029419,
				-0.5756278038024902
			],
			"type":"VEC3"
		},
		{
			"bufferView":17,
			"componentType":5126,
			"count":36,
			"type":"VEC3"
		},
		{
			"bufferView":18,
			"componentType":5126,
			"count":36,
			"type":"VEC2"
		},
		{
			"bufferView":19,
			"componentType":5123,
			"count":96,
			"type":"SCALAR"
		}
	],
	"bufferViews":[
		{
			"buffer":0,
			"byteLength":648,
			"byteOffset":0,
			"target":34962
		},
		{
			"buffer":0,
			"byteLength":648,
			"byteOffset":648,
			"target":34962
		},
		{
			"buffer":0,
			"byteLength":432,
			"byteOffset":1296,
			"target":34962
		},
		{
			"buffer":0,
			"byteLength":288,
			"byteOffset":1728,
			"target":34963
		},
		{
			"buffer":0,
			"byteLength":216,
			"byteOffset":2016,
			"target":34962
		},
		{
			"buffer":0,
			"byteLength":216,
			"byteOffset":2232,
			"target":34962
		},
		{
			"buffer":0,
			"byteLength":144,
			"byteOffset":2448,
			"target":34962
		},
		{
			"buffer":0,
			"byteLength":96,
			"byteOffset":2592,
			"target":34963
		},
		{
			"buffer":0,
			"byteLength":216,
			"byteOffset":2688,
			"target":34962
		},
		{
			"buffer":0,
			"byteLength":216,
			"byteOffset":2904,
			"target":34962
		},
		{
			"buffer":0,
			"byteLength":144,
			"byteOffset":3120,
			"target":34962
		},
		{
			"buffer":0,
			"byteLength":96,
			"byteOffset":3264,
			"target":34963
		},
		{
			"buffer":0,
			"byteLength":324,
			"byteOffset":3360,
			"target":34962
		},
		{
			"buffer":0,
			"byteLength":324,
			"byteOffset":3684,
			"target":34962
		},
		{
			"buffer":0,
			"byteLength":216,
			"byteOffset":4008,
			"target":34962
		},
		{
			"buffer":0,
			"byteLength":144,
			"byteOffset":4224,
			"target":34963
		},
		{
			"buffer":0,
			"byteLength":432,
			"byteOffset":4368,
			"target":34962
		},
		{
			"buffer":0,
			"byteLength":432,
			"byteOffset":4800,
			"target":34962
		},
		{
			"buffer":0,
			"byteLength":288,
			"byteOffset":5232,
			"target":34962
		},
		{
			"buffer":0,
			"byteLength":192,
			"byteOffset":5520,
			"target":34963
		}
	],
	"samplers":[
		{
			"magFilter":9729,
			"minFilter":9987
		}
	],
	"buffers":[
		{
			"byteLength":5712,
			"uri":"Bush2.bin"
		}
	]
}
