{
	"asset":{
		"generator":"Khronos glTF Blender I/O v5.1.19",
		"version":"2.0"
	},
	"scene":0,
	"scenes":[
		{
			"name":"Scene",
			"nodes":[
				0,
				1,
				2,
				3,
				4,
				5
			]
		}
	],
	"nodes":[
		{
			"mesh":0,
			"name":"Object_148",
			"scale":[
				30.144533157348633,
				30.144533157348633,
				30.144533157348633
			],
			"translation":[
				-3.7257890701293945,
				0,
				-0.6746976375579834
			]
		},
		{
			"mesh":1,
			"name":"Object_149",
			"scale":[
				30.144533157348633,
				30.144533157348633,
				30.144533157348633
			],
			"translation":[
				-3.7257890701293945,
				0,
				-0.6746976375579834
			]
		},
		{
			"mesh":2,
			"name":"Object_150",
			"scale":[
				30.144533157348633,
				30.144533157348633,
				30.144533157348633
			],
			"translation":[
				-3.7257890701293945,
				0,
				-0.6746976375579834
			]
		},
		{
			"mesh":3,
			"name":"Object_151",
			"scale":[
				30.144533157348633,
				30.144533157348633,
				30.144533157348633
			],
			"translation":[
				-3.7257890701293945,
				0,
				-0.6746976375579834
			]
		},
		{
			"mesh":4,
			"name":"Object_152",
			"scale":[
				30.144533157348633,
				30.144533157348633,
				30.144533157348633
			],
			"translation":[
				-3.7257890701293945,
				0,
				-0.6746976375579834
			]
		},
		{
			"mesh":5,
			"name":"Object_153",
			"scale":[
				30.144533157348633,
				30.144533157348633,
				30.144533157348633
			],
			"translation":[
				-3.7257890701293945,
				0,
				-0.6746976375579834
			]
		}
	],
	"materials":[
		{
			"alphaMode":"BLEND",
			"doubleSided":true,
			"name":"flowers-01.002",
			"pbrMetallicRoughness":{
				"baseColorTexture":{
					"index":0
				},
				"metallicFactor":0,
				"roughnessFactor":0.5
			}
		},
		{
			"alphaMode":"BLEND",
			"doubleSided":true,
			"name":"shrubbery-1-01",
			"pbrMetallicRoughness":{
				"baseColorTexture":{
					"index":1
				},
				"metallicFactor":0
			}
		},
		{
			"alphaMode":"BLEND",
			"doubleSided":true,
			"name":"shrubbery-1-02",
			"pbrMetallicRoughness":{
				"baseColorTexture":{
					"index":2
				},
				"metallicFactor":0
			}
		},
		{
			"alphaMode":"BLEND",
			"doubleSided":true,
			"name":"shrubbery-1-03",
			"pbrMetallicRoughness":{
				"baseColorTexture":{
					"index":3
				},
				"metallicFactor":0
			}
		},
		{
			"alphaMode":"BLEND",
			"doubleSided":true,
			"name":"shrubbery-1-04",
			"pbrMetallicRoughness":{
				"baseColorTexture":{
					"index":4
				},
				"metallicFactor":0
			}
		},
		{
			"alphaMode":"BLEND",
			"doubleSided":true,
			"name":"flowers-01.001",
			"pbrMetallicRoughness":{
				"baseColorTexture":{
					"index":5
				},
				"metallicFactor":0,
				"roughnessFactor":0.5
			}
		}
	],
	"meshes":[
		{
			"name":"Object_117",
			"primitives":[
				{
					"attributes":{
						"POSITION":0,
						"NORMAL":1,
						"TEXCOORD_0":2
					},
					"indices":3,
					"material":0
				}
			]
		},
		{
			"name":"Object_118",
			"primitives":[
				{
					"attributes":{
						"POSITION":4,
						"NORMAL":5,
						"TEXCOORD_0":6
					},
					"indices":7,
					"material":1
				}
			]
		},
		{
			"name":"Object_119",
			"primitives":[
				{
					"attributes":{
						"POSITION":8,
						"NORMAL":9,
						"TEXCOORD_0":10
					},
					"indices":11,
					"material":2
				}
			]
		},
		{
			"name":"Object_120",
			"primitives":[
				{
					"attributes":{
						"POSITION":12,
						"NORMAL":13,
						"TEXCOORD_0":14
					},
					"indices":15,
					"material":3
				}
			]
		},
		{
			"name":"Object_121",
			"primitives":[
				{
					"attributes":{
						"POSITION":16,
						"NORMAL":17,
						"TEXCOORD_0":18
					},
					"indices":19,
					"material":4
				}
			]
		},
		{
			"name":"Object_122",
			"primitives":[
				{
					"attributes":{
						"POSITION":20,
						"NORMAL":21,
						"TEXCOORD_0":22
					},
					"indices":3,
					"material":5
				}
			]
		}
	],
	"textures":[
		{
			"sampler":0,
			"source":0
		},
		{
			"sampler":0,
			"source":1
		},
		{
			"sampler":0,
			"source":2
		},
		{
			"sampler":0,
			"source":3
		},
		{
			"sampler":0,
			"source":4
		},
		{
			"sampler":0,
			"source":5
		}
	],
	"images":[
		{
			"mimeType":"image/png",
			"name":"flowers-01.002_baseColor",
			"uri":"flowers-01.002_baseColor.png"
		},
		{
			"mimeType":"image/png",
			"name":"shrubbery-1-01_baseColor",
			"uri":"shrubbery-1-01_baseColor.png"
		},
		{
			"mimeType":"image/png",
			"name":"shrubbery-1-02_baseColor",
			"uri":"shrubbery-1-02_baseColor.png"
		},
		{
			"mimeType":"image/png",
			"name":"shrubbery-1-03_baseColor",
			"uri":"shrubbery-1-03_baseColor.png"
		},
		{
			"mimeType":"image/png",
			"name":"shrubbery-1-04_baseColor",
			"uri":"shrubbery-1-04_baseColor.png"
		},
		{
			"mimeType":"image/png",
			"name":"flowers-01.001_baseColor",
			"uri":"flowers-01.001_baseColor.png"
		}
	],
	"accessors":[
		{
			"bufferView":0,
			"componentType":5126,
			"count":36,
			"max":[
				0.6341292858123779,
				0.6360235810279846,
				0.5279331207275391
			],
			"min":[
				-0.4384877681732178,
				0.26951465010643005,
				-0.6103687286376953
			],
			"type":"VEC3"
		},
		{
			"bufferView":1,
			"componentType":5126,
			"count":36,
			"type":"VEC3"
		},
		{
			"bufferView":2,
			"componentType":5126,
			"count":36,
			"type":"VEC2"
		},
		{
			"bufferView":3,
			"componentType":5123,
			"count":54,
			"type":"SCALAR"
		},
		{
			"bufferView":4,
			"componentType":5126,
			"count":16,
			"max":[
				0.6320109367370605,
				0.7863855957984924,
				0.43788623809814453
			],
			"min":[
				-0.6899318695068359,
				-0.10037010908126831,
				-0.6458826065063477
			],
			"type":"VEC3"
		},
		{
			"bufferView":5,
			"componentType":5126,
			"count":16,
			"type":"VEC3"
		},
		{
			"bufferView":6,
			"componentType":5126,
			"count":16,
			"type":"VEC2"
		},
		{
			"bufferView":7,
			"componentType":5123,
			"count":24,
			"type":"SCALAR"
		},
		{
			"bufferView":8,
			"componentType":5126,
			"count":24,
			"max":[
				0.5525968074798584,
				0.8426161408424377,
				0.6085672378540039
			],
			"min":[
				-0.5755794048309326,
				-0.10037010908126831,
				-0.6135807037353516
			],
			"type":"VEC3"
		},
		{
			"bufferView":9,
			"componentType":5126,
			"count":24,
			"type":"VEC3"
		},
		{
			"bufferView":10,
			"componentType":5126,
			"count":24,
			"type":"VEC2"
		},
		{
			"bufferView":11,
			"componentType":5123,
			"count":36,
			"type":"SCALAR"
		},
		{
			"bufferView":12,
			"componentType":5126,
			"count":56,
			"max":[
				0.7198405265808105,
				0.7863855957984924,
				0.7572498321533203
			],
			"min":[
				-0.6349871158599854,
				-0.10037007927894592,
				-0.7173042297363281
			],
			"type":"VEC3"
		},
		{
			"bufferView":13,
			"componentType":5126,
			"count":56,
			"type":"VEC3"
		},
		{
			"bufferView":14,
			"componentType":5126,
			"count":56,
			"type":"VEC2"
		},
		{
			"bufferView":15,
			"componentType":5123,
			"count":84,
			"type":"SCALAR"
		},
		{
			"bufferView":16,
			"componentType":5126,
			"count":12,
			"max":[
				0.5887396335601807,
				0.7290511727333069,
				0.5346469879150391
			],
			"min":[
				-0.610175609588623,
				-0.10037007927894592,
				-0.5980892181396484
			],
			"type":"VEC3"
		},
		{
			"bufferView":17,
			"componentType":5126,
			"count":12,
			"type":"VEC3"
		},
		{
			"bufferView":18,
			"componentType":5126,
			"count":12,
			"type":"VEC2"
		},
		{
			"bufferView":19,
			"componentType":5123,
			"count":18,
			"type":"SCALAR"
		},
		{
			"bufferView":20,
			"componentType":5126,
			"count":36,
			"max":[
				0.4566514492034912,
				0.6727910041809082,
				0.541778564453125
			],
			"min":[
				-0.5365524291992188,
				0.2793574035167694,
				-0.5059289932250977
			],
			"type":"VEC3"
		},
		{
			"bufferView":21,
			"componentType":5126,
			"count":36,
			"type":"VEC3"
		},
		{
			"bufferView":22,
			"componentType":5126,
			"count":36,
			"type":"VEC2"
		}
	],
	"bufferViews":[
		{
			"buffer":0,
			"byteLength":432,
			"byteOffset":0,
			"target":34962
		},
		{
			"buffer":0,
			"byteLength":432,
			"byteOffset":432,
			"target":34962
		},
		{
			"buffer":0,
			"byteLength":288,
			"byteOffset":864,
			"target":34962
		},
		{
			"buffer":0,
			"byteLength":108,
			"byteOffset":1152,
			"target":34963
		},
		{
			"buffer":0,
			"byteLength":192,
			"byteOffset":1260,
			"target":34962
		},
		{
			"buffer":0,
			"byteLength":192,
			"byteOffset":1452,
			"target":34962
		},
		{
			"buffer":0,
			"byteLength":128,
			"byteOffset":1644,
			"target":34962
		},
		{
			"buffer":0,
			"byteLength":48,
			"byteOffset":1772,
			"target":34963
		},
		{
			"buffer":0,
			"byteLength":288,
			"byteOffset":1820,
			"target":34962
		},
		{
			"buffer":0,
			"byteLength":288,
			"byteOffset":2108,
			"target":34962
		},
		{
			"buffer":0,
			"byteLength":192,
			"byteOffset":2396,
			"target":34962
		},
		{
			"buffer":0,
			"byteLength":72,
			"byteOffset":2588,
			"target":34963
		},
		{
			"buffer":0,
			"byteLength":672,
			"byteOffset":2660,
			"target":34962
		},
		{
			"buffer":0,
			"byteLength":672,
			"byteOffset":3332,
			"target":34962
		},
		{
			"buffer":0,
			"byteLength":448,
			"byteOffset":4004,
			"target":34962
		},
		{
			"buffer":0,
			"byteLength":168,
			"byteOffset":4452,
			"target":34963
		},
		{
			"buffer":0,
			"byteLength":144,
			"byteOffset":4620,
			"target":34962
		},
		{
			"buffer":0,
			"byteLength":144,
			"byteOffset":4764,
			"target":34962
		},
		{
			"buffer":0,
			"byteLength":96,
			"byteOffset":4908,
			"target":34962
		},
		{
			"buffer":0,
			"byteLength":36,
			"byteOffset":5004,
			"target":34963
		},
		{
			"buffer":0,
			"byteLength":432,
			"byteOffset":5040,
			"target":34962
		},
		{
			"buffer":0,
			"byteLength":432,
			"byteOffset":5472,
			"target":34962
		},
		{
			"buffer":0,
			"byteLength":288,
			"byteOffset":5904,
			"target":34962
		}
	],
	"samplers":[
		{
			"magFilter":9729,
			"minFilter":9987
		}
	],
	"buffers":[
		{
			"byteLength":6192,
			"uri":"Bush7_Flower.bin"
		}
	]
}
