{
	"asset":{
		"generator":"Khronos glTF Blender I/O v5.1.19",
		"version":"2.0"
	},
	"scene":0,
	"scenes":[
		{
			"name":"Scene",
			"nodes":[
				0,
				1,
				2,
				3,
				4,
				5
			]
		}
	],
	"nodes":[
		{
			"mesh":0,
			"name":"Object_141",
			"scale":[
				30.144533157348633,
				30.144533157348633,
				30.144533157348633
			],
			"translation":[
				-0.061423756182193756,
				0,
				0.4656520485877991
			]
		},
		{
			"mesh":1,
			"name":"Object_142",
			"scale":[
				30.144533157348633,
				30.144533157348633,
				30.144533157348633
			],
			"translation":[
				-0.061423756182193756,
				0,
				0.4656520485877991
			]
		},
		{
			"mesh":2,
			"name":"Object_143",
			"scale":[
				30.144533157348633,
				30.144533157348633,
				30.144533157348633
			],
			"translation":[
				-0.061423756182193756,
				0,
				0.4656520485877991
			]
		},
		{
			"mesh":3,
			"name":"Object_144",
			"scale":[
				30.144533157348633,
				30.144533157348633,
				30.144533157348633
			],
			"translation":[
				-0.061423756182193756,
				0,
				0.4656520485877991
			]
		},
		{
			"mesh":4,
			"name":"Object_145",
			"scale":[
				30.144533157348633,
				30.144533157348633,
				30.144533157348633
			],
			"translation":[
				-0.061423756182193756,
				0,
				0.4656520485877991
			]
		},
		{
			"mesh":5,
			"name":"Object_146",
			"scale":[
				30.144533157348633,
				30.144533157348633,
				30.144533157348633
			],
			"translation":[
				-0.061423756182193756,
				0,
				0.4656520485877991
			]
		}
	],
	"materials":[
		{
			"alphaMode":"BLEND",
			"doubleSided":true,
			"name":"flowers-01.001",
			"pbrMetallicRoughness":{
				"baseColorTexture":{
					"index":0
				},
				"metallicFactor":0,
				"roughnessFactor":0.5
			}
		},
		{
			"alphaMode":"BLEND",
			"doubleSided":true,
			"name":"shrubbery-1-01",
			"pbrMetallicRoughness":{
				"baseColorTexture":{
					"index":1
				},
				"metallicFactor":0
			}
		},
		{
			"alphaMode":"BLEND",
			"doubleSided":true,
			"name":"shrubbery-1-02",
			"pbrMetallicRoughness":{
				"baseColorTexture":{
					"index":2
				},
				"metallicFactor":0
			}
		},
		{
			"alphaMode":"BLEND",
			"doubleSided":true,
			"name":"shrubbery-1-03",
			"pbrMetallicRoughness":{
				"baseColorTexture":{
					"index":3
				},
				"metallicFactor":0
			}
		},
		{
			"alphaMode":"BLEND",
			"doubleSided":true,
			"name":"shrubbery-1-04",
			"pbrMetallicRoughness":{
				"baseColorTexture":{
					"index":4
				},
				"metallicFactor":0
			}
		},
		{
			"alphaMode":"BLEND",
			"doubleSided":true,
			"name":"flowers-01.002",
			"pbrMetallicRoughness":{
				"baseColorTexture":{
					"index":5
				},
				"metallicFactor":0,
				"roughnessFactor":0.5
			}
		}
	],
	"meshes":[
		{
			"name":"Object_111",
			"primitives":[
				{
					"attributes":{
						"POSITION":0,
						"NORMAL":1,
						"TEXCOORD_0":2
					},
					"indices":3,
					"material":0
				}
			]
		},
		{
			"name":"Object_112",
			"primitives":[
				{
					"attributes":{
						"POSITION":4,
						"NORMAL":5,
						"TEXCOORD_0":6
					},
					"indices":7,
					"material":1
				}
			]
		},
		{
			"name":"Object_113",
			"primitives":[
				{
					"attributes":{
						"POSITION":8,
						"NORMAL":9,
						"TEXCOORD_0":10
					},
					"indices":11,
					"material":2
				}
			]
		},
		{
			"name":"Object_114",
			"primitives":[
				{
					"attributes":{
						"POSITION":12,
						"NORMAL":13,
						"TEXCOORD_0":14
					},
					"indices":15,
					"material":3
				}
			]
		},
		{
			"name":"Object_115",
			"primitives":[
				{
					"attributes":{
						"POSITION":16,
						"NORMAL":17,
						"TEXCOORD_0":18
					},
					"indices":19,
					"material":4
				}
			]
		},
		{
			"name":"Object_116",
			"primitives":[
				{
					"attributes":{
						"POSITION":20,
						"NORMAL":21,
						"TEXCOORD_0":22
					},
					"indices":23,
					"material":5
				}
			]
		}
	],
	"textures":[
		{
			"sampler":0,
			"source":0
		},
		{
			"sampler":0,
			"source":1
		},
		{
			"sampler":0,
			"source":2
		},
		{
			"sampler":0,
			"source":3
		},
		{
			"sampler":0,
			"source":4
		},
		{
			"sampler":0,
			"source":5
		}
	],
	"images":[
		{
			"mimeType":"image/png",
			"name":"flowers-01.001_baseColor",
			"uri":"flowers-01.001_baseColor.png"
		},
		{
			"mimeType":"image/png",
			"name":"shrubbery-1-01_baseColor",
			"uri":"shrubbery-1-01_baseColor.png"
		},
		{
			"mimeType":"image/png",
			"name":"shrubbery-1-02_baseColor",
			"uri":"shrubbery-1-02_baseColor.png"
		},
		{
			"mimeType":"image/png",
			"name":"shrubbery-1-03_baseColor",
			"uri":"shrubbery-1-03_baseColor.png"
		},
		{
			"mimeType":"image/png",
			"name":"shrubbery-1-04_baseColor",
			"uri":"shrubbery-1-04_baseColor.png"
		},
		{
			"mimeType":"image/png",
			"name":"flowers-01.002_baseColor",
			"uri":"flowers-01.002_baseColor.png"
		}
	],
	"accessors":[
		{
			"bufferView":0,
			"componentType":5126,
			"count":36,
			"max":[
				0.5709033012390137,
				0.6567959785461426,
				0.5399656295776367
			],
			"min":[
				-0.6250333786010742,
				0.3002931773662567,
				-0.6867103576660156
			],
			"type":"VEC3"
		},
		{
			"bufferView":1,
			"componentType":5126,
			"count":36,
			"type":"VEC3"
		},
		{
			"bufferView":2,
			"componentType":5126,
			"count":36,
			"type":"VEC2"
		},
		{
			"bufferView":3,
			"componentType":5123,
			"count":54,
			"type":"SCALAR"
		},
		{
			"bufferView":4,
			"componentType":5126,
			"count":16,
			"max":[
				0.6380534172058105,
				0.7966265678405762,
				0.44617652893066406
			],
			"min":[
				-0.727839469909668,
				-0.0993228554725647,
				-0.5938692092895508
			],
			"type":"VEC3"
		},
		{
			"bufferView":5,
			"componentType":5126,
			"count":16,
			"type":"VEC3"
		},
		{
			"bufferView":6,
			"componentType":5126,
			"count":16,
			"type":"VEC2"
		},
		{
			"bufferView":7,
			"componentType":5123,
			"count":24,
			"type":"SCALAR"
		},
		{
			"bufferView":8,
			"componentType":5126,
			"count":24,
			"max":[
				0.5514326095581055,
				0.8451464772224426,
				0.6006536483764648
			],
			"min":[
				-0.7005586624145508,
				-0.10285314917564392,
				-0.6107664108276367
			],
			"type":"VEC3"
		},
		{
			"bufferView":9,
			"componentType":5126,
			"count":24,
			"type":"VEC3"
		},
		{
			"bufferView":10,
			"componentType":5126,
			"count":24,
			"type":"VEC2"
		},
		{
			"bufferView":11,
			"componentType":5123,
			"count":36,
			"type":"SCALAR"
		},
		{
			"bufferView":12,
			"componentType":5126,
			"count":56,
			"max":[
				0.7436060905456543,
				0.7677122354507446,
				0.7275657653808594
			],
			"min":[
				-0.6658539772033691,
				-0.10939362645149231,
				-0.681797981262207
			],
			"type":"VEC3"
		},
		{
			"bufferView":13,
			"componentType":5126,
			"count":56,
			"type":"VEC3"
		},
		{
			"bufferView":14,
			"componentType":5126,
			"count":56,
			"type":"VEC2"
		},
		{
			"bufferView":15,
			"componentType":5123,
			"count":84,
			"type":"SCALAR"
		},
		{
			"bufferView":16,
			"componentType":5126,
			"count":12,
			"max":[
				0.588994026184082,
				0.7614293694496155,
				0.6325216293334961
			],
			"min":[
				-0.5863251686096191,
				-0.10553368926048279,
				-0.5979337692260742
			],
			"type":"VEC3"
		},
		{
			"bufferView":17,
			"componentType":5126,
			"count":12,
			"type":"VEC3"
		},
		{
			"bufferView":18,
			"componentType":5126,
			"count":12,
			"type":"VEC2"
		},
		{
			"bufferView":19,
			"componentType":5123,
			"count":18,
			"type":"SCALAR"
		},
		{
			"bufferView":20,
			"componentType":5126,
			"count":36,
			"max":[
				0.6605124473571777,
				0.6368695497512817,
				0.5722646713256836
			],
			"min":[
				-0.41210460662841797,
				0.2703606188297272,
				-0.5660371780395508
			],
			"type":"VEC3"
		},
		{
			"bufferView":21,
			"componentType":5126,
			"count":36,
			"type":"VEC3"
		},
		{
			"bufferView":22,
			"componentType":5126,
			"count":36,
			"type":"VEC2"
		},
		{
			"bufferView":23,
			"componentType":5123,
			"count":54,
			"type":"SCALAR"
		}
	],
	"bufferViews":[
		{
			"buffer":0,
			"byteLength":432,
			"byteOffset":0,
			"target":34962
		},
		{
			"buffer":0,
			"byteLength":432,
			"byteOffset":432,
			"target":34962
		},
		{
			"buffer":0,
			"byteLength":288,
			"byteOffset":864,
			"target":34962
		},
		{
			"buffer":0,
			"byteLength":108,
			"byteOffset":1152,
			"target":34963
		},
		{
			"buffer":0,
			"byteLength":192,
			"byteOffset":1260,
			"target":34962
		},
		{
			"buffer":0,
			"byteLength":192,
			"byteOffset":1452,
			"target":34962
		},
		{
			"buffer":0,
			"byteLength":128,
			"byteOffset":1644,
			"target":34962
		},
		{
			"buffer":0,
			"byteLength":48,
			"byteOffset":1772,
			"target":34963
		},
		{
			"buffer":0,
			"byteLength":288,
			"byteOffset":1820,
			"target":34962
		},
		{
			"buffer":0,
			"byteLength":288,
			"byteOffset":2108,
			"target":34962
		},
		{
			"buffer":0,
			"byteLength":192,
			"byteOffset":2396,
			"target":34962
		},
		{
			"buffer":0,
			"byteLength":72,
			"byteOffset":2588,
			"target":34963
		},
		{
			"buffer":0,
			"byteLength":672,
			"byteOffset":2660,
			"target":34962
		},
		{
			"buffer":0,
			"byteLength":672,
			"byteOffset":3332,
			"target":34962
		},
		{
			"buffer":0,
			"byteLength":448,
			"byteOffset":4004,
			"target":34962
		},
		{
			"buffer":0,
			"byteLength":168,
			"byteOffset":4452,
			"target":34963
		},
		{
			"buffer":0,
			"byteLength":144,
			"byteOffset":4620,
			"target":34962
		},
		{
			"buffer":0,
			"byteLength":144,
			"byteOffset":4764,
			"target":34962
		},
		{
			"buffer":0,
			"byteLength":96,
			"byteOffset":4908,
			"target":34962
		},
		{
			"buffer":0,
			"byteLength":36,
			"byteOffset":5004,
			"target":34963
		},
		{
			"buffer":0,
			"byteLength":432,
			"byteOffset":5040,
			"target":34962
		},
		{
			"buffer":0,
			"byteLength":432,
			"byteOffset":5472,
			"target":34962
		},
		{
			"buffer":0,
			"byteLength":288,
			"byteOffset":5904,
			"target":34962
		},
		{
			"buffer":0,
			"byteLength":108,
			"byteOffset":6192,
			"target":34963
		}
	],
	"samplers":[
		{
			"magFilter":9729,
			"minFilter":9987
		}
	],
	"buffers":[
		{
			"byteLength":6300,
			"uri":"Bush6_Flower.bin"
		}
	]
}
