{
	"asset":{
		"generator":"Khronos glTF Blender I/O v5.1.19",
		"version":"2.0"
	},
	"scene":0,
	"scenes":[
		{
			"name":"Scene",
			"nodes":[
				4
			]
		}
	],
	"nodes":[
		{
			"mesh":0,
			"name":"Object_110"
		},
		{
			"mesh":1,
			"name":"Object_111"
		},
		{
			"mesh":2,
			"name":"Object_112"
		},
		{
			"mesh":3,
			"name":"Object_113"
		},
		{
			"children":[
				0,
				1,
				2,
				3
			],
			"name":"Bush-04_16",
			"scale":[
				30.144533157348633,
				30.144533157348633,
				30.144533157348633
			],
			"translation":[
				1.1725869178771973,
				0,
				2.12628436088562
			]
		}
	],
	"materials":[
		{
			"alphaMode":"BLEND",
			"doubleSided":true,
			"name":"shrubbery-1-01",
			"pbrMetallicRoughness":{
				"baseColorTexture":{
					"index":0
				},
				"metallicFactor":0
			}
		},
		{
			"alphaMode":"BLEND",
			"doubleSided":true,
			"name":"shrubbery-1-02",
			"pbrMetallicRoughness":{
				"baseColorTexture":{
					"index":1
				},
				"metallicFactor":0
			}
		},
		{
			"alphaMode":"BLEND",
			"doubleSided":true,
			"name":"shrubbery-1-03",
			"pbrMetallicRoughness":{
				"baseColorTexture":{
					"index":2
				},
				"metallicFactor":0
			}
		},
		{
			"alphaMode":"BLEND",
			"doubleSided":true,
			"name":"shrubbery-1-04",
			"pbrMetallicRoughness":{
				"baseColorTexture":{
					"index":3
				},
				"metallicFactor":0
			}
		}
	],
	"meshes":[
		{
			"name":"Object_90",
			"primitives":[
				{
					"attributes":{
						"POSITION":0,
						"NORMAL":1,
						"TEXCOORD_0":2
					},
					"indices":3,
					"material":0
				}
			]
		},
		{
			"name":"Object_91",
			"primitives":[
				{
					"attributes":{
						"POSITION":4,
						"NORMAL":5,
						"TEXCOORD_0":6
					},
					"indices":7,
					"material":1
				}
			]
		},
		{
			"name":"Object_92",
			"primitives":[
				{
					"attributes":{
						"POSITION":8,
						"NORMAL":9,
						"TEXCOORD_0":10
					},
					"indices":11,
					"material":2
				}
			]
		},
		{
			"name":"Object_93",
			"primitives":[
				{
					"attributes":{
						"POSITION":12,
						"NORMAL":13,
						"TEXCOORD_0":14
					},
					"indices":15,
					"material":3
				}
			]
		}
	],
	"textures":[
		{
			"sampler":0,
			"source":0
		},
		{
			"sampler":0,
			"source":1
		},
		{
			"sampler":0,
			"source":2
		},
		{
			"sampler":0,
			"source":3
		}
	],
	"images":[
		{
			"mimeType":"image/png",
			"name":"shrubbery-1-01_baseColor",
			"uri":"shrubbery-1-01_baseColor.png"
		},
		{
			"mimeType":"image/png",
			"name":"shrubbery-1-02_baseColor",
			"uri":"shrubbery-1-02_baseColor.png"
		},
		{
			"mimeType":"image/png",
			"name":"shrubbery-1-03_baseColor",
			"uri":"shrubbery-1-03_baseColor.png"
		},
		{
			"mimeType":"image/png",
			"name":"shrubbery-1-04_baseColor",
			"uri":"shrubbery-1-04_baseColor.png"
		}
	],
	"accessors":[
		{
			"bufferView":0,
			"componentType":5126,
			"count":16,
			"max":[
				0.5301499366760254,
				0.9169948697090149,
				0.36426401138305664
			],
			"min":[
				-0.5639424324035645,
				-0.10001751780509949,
				-0.5327062606811523
			],
			"type":"VEC3"
		},
		{
			"bufferView":1,
			"componentType":5126,
			"count":16,
			"type":"VEC3"
		},
		{
			"bufferView":2,
			"componentType":5126,
			"count":16,
			"type":"VEC2"
		},
		{
			"bufferView":3,
			"componentType":5123,
			"count":24,
			"type":"SCALAR"
		},
		{
			"bufferView":4,
			"componentType":5126,
			"count":24,
			"max":[
				0.46442365646362305,
				0.843622088432312,
				0.5055265426635742
			],
			"min":[
				-0.4692997932434082,
				-0.10001751780509949,
				-0.5059719085693359
			],
			"type":"VEC3"
		},
		{
			"bufferView":5,
			"componentType":5126,
			"count":24,
			"type":"VEC3"
		},
		{
			"bufferView":6,
			"componentType":5126,
			"count":24,
			"type":"VEC2"
		},
		{
			"bufferView":7,
			"componentType":5123,
			"count":36,
			"type":"SCALAR"
		},
		{
			"bufferView":8,
			"componentType":5126,
			"count":56,
			"max":[
				0.6028413772583008,
				0.9169948697090149,
				0.6285815238952637
			],
			"min":[
				-0.518467903137207,
				-0.10001751780509949,
				-0.5918173789978027
			],
			"type":"VEC3"
		},
		{
			"bufferView":9,
			"componentType":5126,
			"count":56,
			"type":"VEC3"
		},
		{
			"bufferView":10,
			"componentType":5126,
			"count":56,
			"type":"VEC2"
		},
		{
			"bufferView":11,
			"componentType":5123,
			"count":84,
			"type":"SCALAR"
		},
		{
			"bufferView":12,
			"componentType":5126,
			"count":12,
			"max":[
				0.4943370819091797,
				0.9169948697090149,
				0.44434642791748047
			],
			"min":[
				-0.49793291091918945,
				-0.10001751780509949,
				-0.4931511878967285
			],
			"type":"VEC3"
		},
		{
			"bufferView":13,
			"componentType":5126,
			"count":12,
			"type":"VEC3"
		},
		{
			"bufferView":14,
			"componentType":5126,
			"count":12,
			"type":"VEC2"
		},
		{
			"bufferView":15,
			"componentType":5123,
			"count":18,
			"type":"SCALAR"
		}
	],
	"bufferViews":[
		{
			"buffer":0,
			"byteLength":192,
			"byteOffset":0,
			"target":34962
		},
		{
			"buffer":0,
			"byteLength":192,
			"byteOffset":192,
			"target":34962
		},
		{
			"buffer":0,
			"byteLength":128,
			"byteOffset":384,
			"target":34962
		},
		{
			"buffer":0,
			"byteLength":48,
			"byteOffset":512,
			"target":34963
		},
		{
			"buffer":0,
			"byteLength":288,
			"byteOffset":560,
			"target":34962
		},
		{
			"buffer":0,
			"byteLength":288,
			"byteOffset":848,
			"target":34962
		},
		{
			"buffer":0,
			"byteLength":192,
			"byteOffset":1136,
			"target":34962
		},
		{
			"buffer":0,
			"byteLength":72,
			"byteOffset":1328,
			"target":34963
		},
		{
			"buffer":0,
			"byteLength":672,
			"byteOffset":1400,
			"target":34962
		},
		{
			"buffer":0,
			"byteLength":672,
			"byteOffset":2072,
			"target":34962
		},
		{
			"buffer":0,
			"byteLength":448,
			"byteOffset":2744,
			"target":34962
		},
		{
			"buffer":0,
			"byteLength":168,
			"byteOffset":3192,
			"target":34963
		},
		{
			"buffer":0,
			"byteLength":144,
			"byteOffset":3360,
			"target":34962
		},
		{
			"buffer":0,
			"byteLength":144,
			"byteOffset":3504,
			"target":34962
		},
		{
			"buffer":0,
			"byteLength":96,
			"byteOffset":3648,
			"target":34962
		},
		{
			"buffer":0,
			"byteLength":36,
			"byteOffset":3744,
			"target":34963
		}
	],
	"samplers":[
		{
			"magFilter":9729,
			"minFilter":9987
		}
	],
	"buffers":[
		{
			"byteLength":3780,
			"uri":"Bush4.bin"
		}
	]
}
