{
	"asset":{
		"generator":"Khronos glTF Blender I/O v5.1.19",
		"version":"2.0"
	},
	"scene":0,
	"scenes":[
		{
			"name":"Scene",
			"nodes":[
				0
			]
		}
	],
	"nodes":[
		{
			"mesh":0,
			"name":"Tofu85_UP.001"
		}
	],
	"materials":[
		{
			"name":"VehiclesMat_WineRed",
			"pbrMetallicRoughness":{
				"baseColorTexture":{
					"index":0
				},
				"metallicFactor":0
			}
		},
		{
			"emissiveFactor":[
				1,
				1,
				1
			],
			"name":"VehiclesMat_Light",
			"pbrMetallicRoughness":{
				"baseColorTexture":{
					"index":1
				},
				"metallicFactor":0
			}
		}
	],
	"meshes":[
		{
			"name":"Tofu85_UP",
			"primitives":[
				{
					"attributes":{
						"POSITION":0,
						"NORMAL":1,
						"TEXCOORD_0":2
					},
					"indices":3,
					"material":0
				},
				{
					"attributes":{
						"POSITION":4,
						"NORMAL":5,
						"TEXCOORD_0":6
					},
					"indices":7,
					"material":1
				}
			]
		}
	],
	"textures":[
		{
			"sampler":0,
			"source":0
		},
		{
			"sampler":0,
			"source":1
		}
	],
	"images":[
		{
			"mimeType":"image/jpeg",
			"name":"Vehicles_WineRed",
			"uri":"Vehicles_WineRed.jpg"
		},
		{
			"mimeType":"image/jpeg",
			"name":"Vehicles_LIGHT",
			"uri":"Vehicles_LIGHT.jpg"
		}
	],
	"accessors":[
		{
			"bufferView":0,
			"componentType":5126,
			"count":2277,
			"max":[
				0.6875641345977783,
				0.5910594463348389,
				1.3709156513214111
			],
			"min":[
				-0.6875641345977783,
				-0.1591867059469223,
				-1.2831430435180664
			],
			"type":"VEC3"
		},
		{
			"bufferView":1,
			"componentType":5126,
			"count":2277,
			"type":"VEC3"
		},
		{
			"bufferView":2,
			"componentType":5126,
			"count":2277,
			"type":"VEC2"
		},
		{
			"bufferView":3,
			"componentType":5123,
			"count":5208,
			"type":"SCALAR"
		},
		{
			"bufferView":4,
			"componentType":5126,
			"count":176,
			"max":[
				0.5000778436660767,
				0.2684133052825928,
				1.2584540843963623
			],
			"min":[
				-0.5000778436660767,
				0.1193440854549408,
				-1.2002034187316895
			],
			"type":"VEC3"
		},
		{
			"bufferView":5,
			"componentType":5126,
			"count":176,
			"type":"VEC3"
		},
		{
			"bufferView":6,
			"componentType":5126,
			"count":176,
			"type":"VEC2"
		},
		{
			"bufferView":7,
			"componentType":5123,
			"count":420,
			"type":"SCALAR"
		}
	],
	"bufferViews":[
		{
			"buffer":0,
			"byteLength":27324,
			"byteOffset":0,
			"target":34962
		},
		{
			"buffer":0,
			"byteLength":27324,
			"byteOffset":27324,
			"target":34962
		},
		{
			"buffer":0,
			"byteLength":18216,
			"byteOffset":54648,
			"target":34962
		},
		{
			"buffer":0,
			"byteLength":10416,
			"byteOffset":72864,
			"target":34963
		},
		{
			"buffer":0,
			"byteLength":2112,
			"byteOffset":83280,
			"target":34962
		},
		{
			"buffer":0,
			"byteLength":2112,
			"byteOffset":85392,
			"target":34962
		},
		{
			"buffer":0,
			"byteLength":1408,
			"byteOffset":87504,
			"target":34962
		},
		{
			"buffer":0,
			"byteLength":840,
			"byteOffset":88912,
			"target":34963
		}
	],
	"samplers":[
		{
			"magFilter":9729,
			"minFilter":9987
		}
	],
	"buffers":[
		{
			"byteLength":89752,
			"uri":"Tofu85_UP.bin"
		}
	]
}
