{
	"asset":{
		"generator":"Khronos glTF Blender I/O v5.1.19",
		"version":"2.0"
	},
	"extensionsUsed":[
		"KHR_materials_unlit"
	],
	"scene":0,
	"scenes":[
		{
			"name":"Scene",
			"nodes":[
				73
			]
		}
	],
	"nodes":[
		{
			"mesh":0,
			"name":"Object_11"
		},
		{
			"mesh":1,
			"name":"Object_12"
		},
		{
			"mesh":2,
			"name":"Object_13"
		},
		{
			"children":[
				0,
				1,
				2
			],
			"name":"blinkers_0",
			"translation":[
				0.39732280373573303,
				0.29146021604537964,
				1.355611801147461
			]
		},
		{
			"mesh":3,
			"name":"Object_15"
		},
		{
			"mesh":4,
			"name":"Object_16"
		},
		{
			"children":[
				4,
				5
			],
			"name":"coolers_1",
			"rotation":[
				0.11729923635721207,
				0,
				0,
				0.9930965900421143
			],
			"scale":[
				0.12115780264139175,
				0.09664839506149292,
				0.09664839506149292
			],
			"translation":[
				0,
				0.18363618850708008,
				1.2705707550048828
			]
		},
		{
			"mesh":5,
			"name":"Object_18"
		},
		{
			"mesh":6,
			"name":"Object_19"
		},
		{
			"children":[
				7,
				8
			],
			"name":"details_2",
			"translation":[
				0.5451305508613586,
				0.5429283976554871,
				-0.36418330669403076
			]
		},
		{
			"mesh":7,
			"name":"Object_21"
		},
		{
			"mesh":8,
			"name":"Object_22"
		},
		{
			"mesh":9,
			"name":"Object_23"
		},
		{
			"mesh":10,
			"name":"Object_24"
		},
		{
			"mesh":11,
			"name":"Object_25"
		},
		{
			"children":[
				10,
				11,
				12,
				13,
				14
			],
			"name":"exhaust_3",
			"rotation":[
				0.02940497361123562,
				0,
				0,
				0.9995676875114441
			],
			"scale":[
				0.05021714046597481,
				0.05021713674068451,
				0.05021713674068451
			],
			"translation":[
				0.39507654309272766,
				0.18390898406505585,
				-1.4564204216003418
			]
		},
		{
			"name":"wheel_front.001_4",
			"rotation":[
				-0.70710688829422,
				0,
				0,
				0.7071066498756409
			],
			"translation":[
				-0.07033399492502213,
				0,
				0
			]
		},
		{
			"children":[
				16
			],
			"name":"FL_5",
			"rotation":[
				0,
				0,
				0.008726535364985466,
				0.9999619126319885
			],
			"scale":[
				0.21614806354045868,
				0.21614806354045868,
				0.21614807844161987
			],
			"translation":[
				0.569631814956665,
				0.23470446467399597,
				0.8373081088066101
			]
		},
		{
			"name":"wheel_front.002_6",
			"rotation":[
				-0.70710688829422,
				0,
				0,
				0.7071066498756409
			],
			"translation":[
				-0.07033421099185944,
				0,
				0
			]
		},
		{
			"children":[
				18
			],
			"name":"FR_7",
			"rotation":[
				-0.9999619126319885,
				0.00872653629630804,
				0,
				4.370972916944993e-08
			],
			"scale":[
				-0.21614788472652435,
				-0.21614804863929749,
				-0.21614806354045868
			],
			"translation":[
				-0.5696319937705994,
				0.23470446467399597,
				0.8373081088066101
			]
		},
		{
			"mesh":12,
			"name":"Object_51"
		},
		{
			"children":[
				20
			],
			"name":"gas_cap_8",
			"translation":[
				0.608137309551239,
				0.5125745534896851,
				-0.6254966259002686
			]
		},
		{
			"name":"lock_9",
			"scale":[
				0.005974047817289829,
				0.005974047817289829,
				0.0016181200044229627
			],
			"translation":[
				-0.03890829533338547,
				0.4989263117313385,
				-1.4966191053390503
			]
		},
		{
			"mesh":13,
			"name":"Object_61"
		},
		{
			"children":[
				23
			],
			"name":"logo.001_11",
			"rotation":[
				0,
				1,
				0,
				7.549790126404332e-08
			],
			"scale":[
				0.08292938023805618,
				0.08292938023805618,
				0.08292938023805618
			],
			"translation":[
				0,
				0.4915173649787903,
				-1.498352289199829
			]
		},
		{
			"name":"logo_10",
			"rotation":[
				-0.5200976729393005,
				0,
				0,
				0.8541067838668823
			],
			"scale":[
				0.08292938023805618,
				0.08292938023805618,
				0.08292938023805618
			],
			"translation":[
				0,
				0.35530805587768555,
				1.382591962814331
			]
		},
		{
			"mesh":14,
			"name":"Object_63"
		},
		{
			"mesh":15,
			"name":"Object_64"
		},
		{
			"mesh":16,
			"name":"Object_65"
		},
		{
			"mesh":17,
			"name":"Object_66"
		},
		{
			"children":[
				26,
				27,
				28,
				29
			],
			"name":"mirrors_12",
			"scale":[
				1.146151065826416,
				1.146151065826416,
				1.146151065826416
			],
			"translation":[
				0.5626639127731323,
				0.49281254410743713,
				0.3347603976726532
			]
		},
		{
			"mesh":18,
			"name":"Object_4"
		},
		{
			"mesh":19,
			"name":"Object_5"
		},
		{
			"mesh":20,
			"name":"Object_6"
		},
		{
			"mesh":21,
			"name":"Object_7"
		},
		{
			"mesh":22,
			"name":"Object_8"
		},
		{
			"mesh":23,
			"name":"Object_9"
		},
		{
			"mesh":24,
			"name":"Object_72"
		},
		{
			"mesh":25,
			"name":"Object_73"
		},
		{
			"mesh":26,
			"name":"Object_74"
		},
		{
			"children":[
				37,
				38,
				39
			],
			"name":"plate.001_14",
			"rotation":[
				0,
				1,
				0,
				7.549790126404332e-08
			],
			"scale":[
				0.14270909130573273,
				0.14270909130573273,
				0.14270909130573273
			],
			"translation":[
				0,
				0.2731337547302246,
				-1.5284801721572876
			]
		},
		{
			"mesh":27,
			"name":"Object_68"
		},
		{
			"mesh":28,
			"name":"Object_69"
		},
		{
			"mesh":29,
			"name":"Object_70"
		},
		{
			"children":[
				41,
				42,
				43
			],
			"name":"plate_13",
			"rotation":[
				0.08715575188398361,
				0,
				0,
				0.9961947202682495
			],
			"scale":[
				0.12091279029846191,
				0.12091279029846191,
				0.12091279029846191
			],
			"translation":[
				0,
				0.20177975296974182,
				1.4271020889282227
			]
		},
		{
			"mesh":30,
			"name":"Object_76"
		},
		{
			"mesh":31,
			"name":"Object_77"
		},
		{
			"mesh":32,
			"name":"Object_78"
		},
		{
			"mesh":33,
			"name":"Object_79"
		},
		{
			"mesh":34,
			"name":"Object_80"
		},
		{
			"mesh":35,
			"name":"Object_81"
		},
		{
			"children":[
				45,
				46,
				47,
				48,
				49,
				50
			],
			"name":"popups_15",
			"translation":[
				0,
				0.466930627822876,
				1.0163486003875732
			]
		},
		{
			"mesh":36,
			"name":"Object_83"
		},
		{
			"children":[
				52
			],
			"name":"rear_fins_16",
			"scale":[
				0.09796619415283203,
				0.09796619415283203,
				0.09796619415283203
			],
			"translation":[
				0.1470630019903183,
				0.5947161316871643,
				-0.9810063242912292
			]
		},
		{
			"name":"wheel_rear.001_17",
			"rotation":[
				-0.70710688829422,
				0,
				0,
				0.7071066498756409
			],
			"translation":[
				0.22980642318725586,
				0,
				0
			]
		},
		{
			"children":[
				54
			],
			"name":"RL_18",
			"scale":[
				0.21614807844161987,
				0.21614807844161987,
				0.21614807844161987
			],
			"translation":[
				0.5207997560501099,
				0.23470446467399597,
				-0.8968721032142639
			]
		},
		{
			"name":"wheel_rear.002_19",
			"rotation":[
				-0.70710688829422,
				0,
				0,
				0.7071066498756409
			],
			"translation":[
				0.22980666160583496,
				0,
				0
			]
		},
		{
			"children":[
				56
			],
			"name":"RR_20",
			"rotation":[
				-1,
				0,
				0,
				4.371139183945161e-08
			],
			"scale":[
				-0.21614788472652435,
				-0.21614807844161987,
				-0.21614807844161987
			],
			"translation":[
				-0.520799994468689,
				0.23470446467399597,
				-0.8968721032142639
			]
		},
		{
			"name":"shade_21",
			"translation":[
				0,
				0.01878373697400093,
				0
			]
		},
		{
			"mesh":37,
			"name":"Object_111"
		},
		{
			"mesh":38,
			"name":"Object_112"
		},
		{
			"mesh":39,
			"name":"Object_113"
		},
		{
			"children":[
				59,
				60,
				61
			],
			"name":"spoiler_22",
			"translation":[
				0,
				0.5501682162284851,
				-1.3827236890792847
			]
		},
		{
			"mesh":40,
			"name":"Object_115"
		},
		{
			"mesh":41,
			"name":"Object_116"
		},
		{
			"mesh":42,
			"name":"Object_117"
		},
		{
			"mesh":43,
			"name":"Object_118"
		},
		{
			"children":[
				63,
				64,
				65,
				66
			],
			"name":"tailights_23",
			"scale":[
				0.015183488838374615,
				0.015183491632342339,
				0.015183491632342339
			],
			"translation":[
				0.30143001675605774,
				0.49222466349601746,
				-1.4422205686569214
			]
		},
		{
			"mesh":44,
			"name":"Object_120"
		},
		{
			"children":[
				68
			],
			"name":"wipers_24"
		},
		{
			"children":[
				3,
				6,
				9,
				15,
				17,
				19,
				21,
				22,
				24,
				25,
				30,
				31,
				32,
				33,
				34,
				35,
				36,
				40,
				44,
				51,
				53,
				55,
				57,
				58,
				62,
				67,
				69
			],
			"name":"body_25",
			"translation":[
				0,
				-0.01878373883664608,
				0
			]
		},
		{
			"children":[
				70
			],
			"name":"GLTF_SceneRootNode",
			"rotation":[
				0.70710688829422,
				0,
				0,
				0.7071066498756409
			]
		},
		{
			"children":[
				71
			],
			"name":"root"
		},
		{
			"children":[
				72
			],
			"name":"Sketchfab_model",
			"rotation":[
				-0.70710688829422,
				0,
				0,
				0.7071066498756409
			]
		}
	],
	"animations":[
		{
			"channels":[
				{
					"sampler":0,
					"target":{
						"node":51,
						"path":"rotation"
					}
				}
			],
			"name":"popupsAction",
			"samplers":[
				{
					"input":179,
					"interpolation":"LINEAR",
					"output":180
				}
			]
		}
	],
	"materials":[
		{
			"doubleSided":true,
			"extensions":{
				"KHR_materials_unlit":{}
			},
			"name":"blinker",
			"pbrMetallicRoughness":{
				"baseColorTexture":{
					"index":0
				},
				"metallicFactor":0,
				"roughnessFactor":0.9
			}
		},
		{
			"doubleSided":true,
			"name":"dark2",
			"pbrMetallicRoughness":{
				"baseColorFactor":[
					0,
					0,
					0,
					1
				],
				"metallicFactor":0
			}
		},
		{
			"doubleSided":true,
			"extensions":{
				"KHR_materials_unlit":{}
			},
			"name":"blinker1",
			"pbrMetallicRoughness":{
				"baseColorTexture":{
					"index":1
				},
				"metallicFactor":0,
				"roughnessFactor":0.9
			}
		},
		{
			"doubleSided":true,
			"name":"dark3",
			"pbrMetallicRoughness":{
				"baseColorFactor":[
					0,
					0,
					0,
					1
				],
				"metallicFactor":0.6690909266471863
			}
		},
		{
			"doubleSided":true,
			"name":"dark1",
			"pbrMetallicRoughness":{
				"baseColorFactor":[
					0,
					0,
					0,
					1
				],
				"metallicFactor":0
			}
		},
		{
			"doubleSided":true,
			"extensions":{
				"KHR_materials_unlit":{}
			},
			"name":"metal1",
			"pbrMetallicRoughness":{
				"baseColorFactor":[
					0.20489899814128876,
					0.20489899814128876,
					0.20489899814128876,
					1
				],
				"metallicFactor":0,
				"roughnessFactor":0.9
			}
		},
		{
			"doubleSided":true,
			"extensions":{
				"KHR_materials_unlit":{}
			},
			"name":"metal2",
			"pbrMetallicRoughness":{
				"baseColorFactor":[
					0.16264599561691284,
					0.16264599561691284,
					0.16264599561691284,
					1
				],
				"metallicFactor":0,
				"roughnessFactor":0.9
			}
		},
		{
			"doubleSided":true,
			"name":"paint1",
			"pbrMetallicRoughness":{
				"baseColorFactor":[
					1,
					0,
					0,
					1
				],
				"metallicFactor":0
			}
		},
		{
			"doubleSided":true,
			"name":"paint2",
			"pbrMetallicRoughness":{
				"baseColorFactor":[
					1,
					0,
					0,
					1
				],
				"metallicFactor":0
			}
		},
		{
			"doubleSided":true,
			"name":"paint3",
			"pbrMetallicRoughness":{
				"baseColorFactor":[
					1,
					0,
					0,
					1
				],
				"metallicFactor":0
			}
		},
		{
			"doubleSided":true,
			"extensions":{
				"KHR_materials_unlit":{}
			},
			"name":"plate",
			"pbrMetallicRoughness":{
				"baseColorFactor":[
					0.4739062190055847,
					0.4739062190055847,
					0.4739062190055847,
					1
				],
				"baseColorTexture":{
					"index":2
				},
				"metallicFactor":0,
				"roughnessFactor":0.9
			}
		},
		{
			"doubleSided":true,
			"extensions":{
				"KHR_materials_unlit":{}
			},
			"name":"headlight1",
			"pbrMetallicRoughness":{
				"baseColorTexture":{
					"index":3
				},
				"metallicFactor":0,
				"roughnessFactor":0.9
			}
		},
		{
			"doubleSided":true,
			"extensions":{
				"KHR_materials_unlit":{}
			},
			"name":"headlight2",
			"pbrMetallicRoughness":{
				"baseColorTexture":{
					"index":4
				},
				"metallicFactor":0,
				"roughnessFactor":0.9
			}
		},
		{
			"doubleSided":true,
			"extensions":{
				"KHR_materials_unlit":{}
			},
			"name":"reflector",
			"pbrMetallicRoughness":{
				"baseColorFactor":[
					0.013416299596428871,
					0,
					0.002338829915970564,
					1
				],
				"metallicFactor":0,
				"roughnessFactor":0.9
			}
		},
		{
			"doubleSided":true,
			"extensions":{
				"KHR_materials_unlit":{}
			},
			"name":"tailight",
			"pbrMetallicRoughness":{
				"baseColorTexture":{
					"index":5
				},
				"metallicFactor":0,
				"roughnessFactor":0.9
			}
		},
		{
			"doubleSided":true,
			"extensions":{
				"KHR_materials_unlit":{}
			},
			"name":"blinker2",
			"pbrMetallicRoughness":{
				"baseColorFactor":[
					0.06901580095291138,
					0.06901580095291138,
					0.06901580095291138,
					1
				],
				"baseColorTexture":{
					"index":6
				},
				"metallicFactor":0,
				"roughnessFactor":0.9
			}
		},
		{
			"doubleSided":true,
			"extensions":{
				"KHR_materials_unlit":{}
			},
			"name":"reverse",
			"pbrMetallicRoughness":{
				"baseColorFactor":[
					0.10047999769449234,
					0.10047999769449234,
					0.10047999769449234,
					1
				],
				"baseColorTexture":{
					"index":7
				},
				"metallicFactor":0,
				"roughnessFactor":0.9
			}
		}
	],
	"meshes":[
		{
			"name":"Object_6",
			"primitives":[
				{
					"attributes":{
						"POSITION":0,
						"NORMAL":1,
						"TEXCOORD_0":2,
						"TEXCOORD_1":3
					},
					"indices":4,
					"material":0
				}
			]
		},
		{
			"name":"Object_7",
			"primitives":[
				{
					"attributes":{
						"POSITION":5,
						"NORMAL":6,
						"TEXCOORD_0":7
					},
					"indices":8,
					"material":1
				}
			]
		},
		{
			"name":"Object_8",
			"primitives":[
				{
					"attributes":{
						"POSITION":9,
						"NORMAL":10,
						"TEXCOORD_0":11
					},
					"indices":12,
					"material":2
				}
			]
		},
		{
			"name":"Object_9",
			"primitives":[
				{
					"attributes":{
						"POSITION":13,
						"NORMAL":14,
						"TEXCOORD_0":15
					},
					"indices":16,
					"material":1
				}
			]
		},
		{
			"name":"Object_10",
			"primitives":[
				{
					"attributes":{
						"POSITION":17,
						"NORMAL":18,
						"TEXCOORD_0":19
					},
					"indices":20,
					"material":3
				}
			]
		},
		{
			"name":"Object_11",
			"primitives":[
				{
					"attributes":{
						"POSITION":21,
						"NORMAL":22,
						"TEXCOORD_0":23
					},
					"indices":24,
					"material":4
				}
			]
		},
		{
			"name":"Object_12",
			"primitives":[
				{
					"attributes":{
						"POSITION":25,
						"NORMAL":26,
						"TEXCOORD_0":27
					},
					"indices":28,
					"material":1
				}
			]
		},
		{
			"name":"Object_13",
			"primitives":[
				{
					"attributes":{
						"POSITION":29,
						"NORMAL":30,
						"TEXCOORD_0":31
					},
					"indices":32,
					"material":5
				}
			]
		},
		{
			"name":"Object_14",
			"primitives":[
				{
					"attributes":{
						"POSITION":33,
						"NORMAL":34,
						"TEXCOORD_0":35
					},
					"indices":36,
					"material":6
				}
			]
		},
		{
			"name":"Object_15",
			"primitives":[
				{
					"attributes":{
						"POSITION":37,
						"NORMAL":38,
						"TEXCOORD_0":39
					},
					"indices":40,
					"material":3
				}
			]
		},
		{
			"name":"Object_16",
			"primitives":[
				{
					"attributes":{
						"POSITION":41,
						"NORMAL":42,
						"TEXCOORD_0":43
					},
					"indices":44,
					"material":4
				}
			]
		},
		{
			"name":"Object_17",
			"primitives":[
				{
					"attributes":{
						"POSITION":45,
						"NORMAL":46,
						"TEXCOORD_0":47
					},
					"indices":48,
					"material":1
				}
			]
		},
		{
			"name":"Object_38",
			"primitives":[
				{
					"attributes":{
						"POSITION":49,
						"NORMAL":50,
						"TEXCOORD_0":51
					},
					"indices":52,
					"material":1
				}
			]
		},
		{
			"name":"Object_45",
			"primitives":[
				{
					"attributes":{
						"POSITION":53,
						"NORMAL":54,
						"TEXCOORD_0":55
					},
					"indices":56,
					"material":1
				}
			]
		},
		{
			"name":"Object_46",
			"primitives":[
				{
					"attributes":{
						"POSITION":57,
						"NORMAL":58,
						"TEXCOORD_0":59
					},
					"indices":60,
					"material":4
				}
			]
		},
		{
			"name":"Object_47",
			"primitives":[
				{
					"attributes":{
						"POSITION":61,
						"NORMAL":62,
						"TEXCOORD_0":63
					},
					"indices":64,
					"material":1
				}
			]
		},
		{
			"name":"Object_48",
			"primitives":[
				{
					"attributes":{
						"POSITION":65,
						"NORMAL":66,
						"TEXCOORD_0":67
					},
					"indices":68,
					"material":5
				}
			]
		},
		{
			"name":"Object_49",
			"primitives":[
				{
					"attributes":{
						"POSITION":69,
						"NORMAL":70,
						"TEXCOORD_0":71
					},
					"indices":72,
					"material":3
				}
			]
		},
		{
			"name":"Object_0",
			"primitives":[
				{
					"attributes":{
						"POSITION":73,
						"NORMAL":74,
						"TEXCOORD_0":75
					},
					"indices":76,
					"material":7
				}
			]
		},
		{
			"name":"Object_1",
			"primitives":[
				{
					"attributes":{
						"POSITION":77,
						"NORMAL":78,
						"TEXCOORD_0":79
					},
					"indices":80,
					"material":8
				}
			]
		},
		{
			"name":"Object_2",
			"primitives":[
				{
					"attributes":{
						"POSITION":81,
						"NORMAL":82,
						"TEXCOORD_0":83
					},
					"indices":84,
					"material":9
				}
			]
		},
		{
			"name":"Object_3",
			"primitives":[
				{
					"attributes":{
						"POSITION":85,
						"NORMAL":86,
						"TEXCOORD_0":87
					},
					"indices":88,
					"material":4
				}
			]
		},
		{
			"name":"Object_4",
			"primitives":[
				{
					"attributes":{
						"POSITION":89,
						"NORMAL":90,
						"TEXCOORD_0":91
					},
					"indices":92,
					"material":1
				}
			]
		},
		{
			"name":"Object_5",
			"primitives":[
				{
					"attributes":{
						"POSITION":93,
						"NORMAL":94,
						"TEXCOORD_0":95
					},
					"indices":96,
					"material":3
				}
			]
		},
		{
			"name":"Object_53",
			"primitives":[
				{
					"attributes":{
						"POSITION":97,
						"NORMAL":98,
						"TEXCOORD_0":99
					},
					"indices":100,
					"material":10
				}
			]
		},
		{
			"name":"Object_54",
			"primitives":[
				{
					"attributes":{
						"POSITION":101,
						"NORMAL":102,
						"TEXCOORD_0":103
					},
					"indices":104,
					"material":5
				}
			]
		},
		{
			"name":"Object_55",
			"primitives":[
				{
					"attributes":{
						"POSITION":105,
						"NORMAL":106,
						"TEXCOORD_0":107
					},
					"indices":108,
					"material":6
				}
			]
		},
		{
			"name":"Object_50",
			"primitives":[
				{
					"attributes":{
						"POSITION":109,
						"NORMAL":110,
						"TEXCOORD_0":111
					},
					"indices":100,
					"material":10
				}
			]
		},
		{
			"name":"Object_51",
			"primitives":[
				{
					"attributes":{
						"POSITION":112,
						"NORMAL":113,
						"TEXCOORD_0":114
					},
					"indices":104,
					"material":5
				}
			]
		},
		{
			"name":"Object_52",
			"primitives":[
				{
					"attributes":{
						"POSITION":115,
						"NORMAL":116,
						"TEXCOORD_0":117
					},
					"indices":118,
					"material":6
				}
			]
		},
		{
			"name":"Object_56",
			"primitives":[
				{
					"attributes":{
						"POSITION":119,
						"NORMAL":120,
						"TEXCOORD_0":121
					},
					"indices":122,
					"material":7
				}
			]
		},
		{
			"name":"Object_57",
			"primitives":[
				{
					"attributes":{
						"POSITION":123,
						"NORMAL":124,
						"TEXCOORD_0":125
					},
					"indices":126,
					"material":8
				}
			]
		},
		{
			"name":"Object_58",
			"primitives":[
				{
					"attributes":{
						"POSITION":127,
						"NORMAL":128,
						"TEXCOORD_0":129
					},
					"indices":130,
					"material":9
				}
			]
		},
		{
			"name":"Object_59",
			"primitives":[
				{
					"attributes":{
						"POSITION":131,
						"NORMAL":132,
						"TEXCOORD_0":133
					},
					"indices":134,
					"material":1
				}
			]
		},
		{
			"name":"Object_60",
			"primitives":[
				{
					"attributes":{
						"POSITION":135,
						"NORMAL":136,
						"TEXCOORD_0":137,
						"TEXCOORD_1":138
					},
					"indices":139,
					"material":11
				}
			]
		},
		{
			"name":"Object_61",
			"primitives":[
				{
					"attributes":{
						"POSITION":140,
						"NORMAL":141,
						"TEXCOORD_0":142
					},
					"indices":143,
					"material":12
				}
			]
		},
		{
			"name":"Object_62",
			"primitives":[
				{
					"attributes":{
						"POSITION":144,
						"NORMAL":145,
						"TEXCOORD_0":146
					},
					"indices":147,
					"material":4
				}
			]
		},
		{
			"name":"Object_84",
			"primitives":[
				{
					"attributes":{
						"POSITION":148,
						"NORMAL":149,
						"TEXCOORD_0":150
					},
					"indices":151,
					"material":4
				}
			]
		},
		{
			"name":"Object_85",
			"primitives":[
				{
					"attributes":{
						"POSITION":152,
						"NORMAL":153,
						"TEXCOORD_0":154
					},
					"indices":155,
					"material":1
				}
			]
		},
		{
			"name":"Object_86",
			"primitives":[
				{
					"attributes":{
						"POSITION":156,
						"NORMAL":157,
						"TEXCOORD_0":158
					},
					"indices":159,
					"material":13
				}
			]
		},
		{
			"name":"Object_87",
			"primitives":[
				{
					"attributes":{
						"POSITION":160,
						"NORMAL":161,
						"TEXCOORD_0":162
					},
					"indices":163,
					"material":14
				}
			]
		},
		{
			"name":"Object_88",
			"primitives":[
				{
					"attributes":{
						"POSITION":164,
						"NORMAL":165,
						"TEXCOORD_0":166
					},
					"indices":167,
					"material":15
				}
			]
		},
		{
			"name":"Object_89",
			"primitives":[
				{
					"attributes":{
						"POSITION":168,
						"NORMAL":169,
						"TEXCOORD_0":170
					},
					"indices":163,
					"material":16
				}
			]
		},
		{
			"name":"Object_90",
			"primitives":[
				{
					"attributes":{
						"POSITION":171,
						"NORMAL":172,
						"TEXCOORD_0":173
					},
					"indices":174,
					"material":13
				}
			]
		},
		{
			"name":"Object_91",
			"primitives":[
				{
					"attributes":{
						"POSITION":175,
						"NORMAL":176,
						"TEXCOORD_0":177
					},
					"indices":178,
					"material":4
				}
			]
		}
	],
	"textures":[
		{
			"sampler":0,
			"source":0
		},
		{
			"sampler":0,
			"source":0
		},
		{
			"sampler":1,
			"source":1
		},
		{
			"sampler":0,
			"source":2
		},
		{
			"sampler":0,
			"source":2
		},
		{
			"sampler":0,
			"source":3
		},
		{
			"sampler":0,
			"source":4
		},
		{
			"sampler":0,
			"source":4
		}
	],
	"images":[
		{
			"mimeType":"image/jpeg",
			"name":"blinker_baseColor",
			"uri":"blinker_baseColor.jpg"
		},
		{
			"mimeType":"image/png",
			"name":"plate_baseColor",
			"uri":"plate_baseColor.png"
		},
		{
			"mimeType":"image/png",
			"name":"headlight1_baseColor",
			"uri":"headlight1_baseColor.png"
		},
		{
			"mimeType":"image/png",
			"name":"tailight_baseColor",
			"uri":"tailight_baseColor.png"
		},
		{
			"mimeType":"image/png",
			"name":"blinker2_baseColor",
			"uri":"blinker2_baseColor.png"
		}
	],
	"accessors":[
		{
			"bufferView":0,
			"componentType":5126,
			"count":18,
			"max":[
				0.11452588438987732,
				0.016092419624328613,
				-0.019634604454040527
			],
			"min":[
				-0.909171462059021,
				-0.01270487904548645,
				-0.06494581699371338
			],
			"type":"VEC3"
		},
		{
			"bufferView":1,
			"componentType":5126,
			"count":18,
			"type":"VEC3"
		},
		{
			"bufferView":2,
			"componentType":5126,
			"count":18,
			"type":"VEC2"
		},
		{
			"bufferView":3,
			"componentType":5126,
			"count":18,
			"type":"VEC2"
		},
		{
			"bufferView":4,
			"componentType":5123,
			"count":18,
			"type":"SCALAR"
		},
		{
			"bufferView":5,
			"componentType":5126,
			"count":88,
			"max":[
				0.11744335293769836,
				0.019018352031707764,
				0.05170750617980957
			],
			"min":[
				-0.9120889902114868,
				-0.015688687562942505,
				-0.06585216522216797
			],
			"type":"VEC3"
		},
		{
			"bufferView":6,
			"componentType":5126,
			"count":88,
			"type":"VEC3"
		},
		{
			"bufferView":7,
			"componentType":5126,
			"count":88,
			"type":"VEC2"
		},
		{
			"bufferView":8,
			"componentType":5123,
			"count":132,
			"type":"SCALAR"
		},
		{
			"bufferView":9,
			"componentType":5126,
			"count":28,
			"max":[
				0.060460180044174194,
				0.014934748411178589,
				0.05039083957672119
			],
			"min":[
				-0.8551057577133179,
				-0.012895047664642334,
				-0.023324131965637207
			],
			"type":"VEC3"
		},
		{
			"bufferView":10,
			"componentType":5126,
			"count":28,
			"type":"VEC3"
		},
		{
			"bufferView":11,
			"componentType":5126,
			"count":28,
			"type":"VEC2"
		},
		{
			"bufferView":12,
			"componentType":5123,
			"count":36,
			"type":"SCALAR"
		},
		{
			"bufferView":13,
			"componentType":5126,
			"count":96,
			"max":[
				3.914538621902466,
				0.8700995445251465,
				0.9385271072387695
			],
			"min":[
				-3.914538621902466,
				-0.6464720368385315,
				-0.6532644033432007
			],
			"type":"VEC3"
		},
		{
			"bufferView":14,
			"componentType":5126,
			"count":96,
			"type":"VEC3"
		},
		{
			"bufferView":15,
			"componentType":5126,
			"count":96,
			"type":"VEC2"
		},
		{
			"bufferView":16,
			"componentType":5123,
			"count":156,
			"type":"SCALAR"
		},
		{
			"bufferView":17,
			"componentType":5126,
			"count":230,
			"max":[
				3.891270875930786,
				0.5731852054595947,
				0.37485387921333313
			],
			"min":[
				-3.891270875930786,
				-0.5568328499794006,
				-0.46990108489990234
			],
			"type":"VEC3"
		},
		{
			"bufferView":18,
			"componentType":5126,
			"count":230,
			"type":"VEC3"
		},
		{
			"bufferView":19,
			"componentType":5126,
			"count":230,
			"type":"VEC2"
		},
		{
			"bufferView":20,
			"componentType":5123,
			"count":384,
			"type":"SCALAR"
		},
		{
			"bufferView":21,
			"componentType":5126,
			"count":8,
			"max":[
				-0.02222973108291626,
				0.0649259090423584,
				0.01586759090423584
			],
			"min":[
				-1.0680313110351562,
				0.019431471824645996,
				-0.03615778684616089
			],
			"type":"VEC3"
		},
		{
			"bufferView":22,
			"componentType":5126,
			"count":8,
			"type":"VEC3"
		},
		{
			"bufferView":23,
			"componentType":5126,
			"count":8,
			"type":"VEC2"
		},
		{
			"bufferView":24,
			"componentType":5123,
			"count":12,
			"type":"SCALAR"
		},
		{
			"bufferView":25,
			"componentType":5126,
			"count":182,
			"max":[
				0.04603785276412964,
				0.0664757490158081,
				1.188254714012146
			],
			"min":[
				-1.1362988948822021,
				-0.055278658866882324,
				-0.049958229064941406
			],
			"type":"VEC3"
		},
		{
			"bufferView":26,
			"componentType":5126,
			"count":182,
			"type":"VEC3"
		},
		{
			"bufferView":27,
			"componentType":5126,
			"count":182,
			"type":"VEC2"
		},
		{
			"bufferView":28,
			"componentType":5123,
			"count":264,
			"type":"SCALAR"
		},
		{
			"bufferView":29,
			"componentType":5126,
			"count":128,
			"max":[
				0.9285814762115479,
				0.7284194231033325,
				1.6215237379074097
			],
			"min":[
				-16.663311004638672,
				-0.7532752156257629,
				-0.635033905506134
			],
			"type":"VEC3"
		},
		{
			"bufferView":30,
			"componentType":5126,
			"count":128,
			"type":"VEC3"
		},
		{
			"bufferView":31,
			"componentType":5126,
			"count":128,
			"type":"VEC2"
		},
		{
			"bufferView":32,
			"componentType":5123,
			"count":192,
			"type":"SCALAR"
		},
		{
			"bufferView":33,
			"componentType":5126,
			"count":144,
			"max":[
				0.9285814762115479,
				0.7284194231033325,
				2.7535390853881836
			],
			"min":[
				-16.663311004638672,
				-0.7532752156257629,
				-0.635033905506134
			],
			"type":"VEC3"
		},
		{
			"bufferView":34,
			"componentType":5126,
			"count":144,
			"type":"VEC3"
		},
		{
			"bufferView":35,
			"componentType":5126,
			"count":144,
			"type":"VEC2"
		},
		{
			"bufferView":36,
			"componentType":5123,
			"count":324,
			"type":"SCALAR"
		},
		{
			"bufferView":37,
			"componentType":5126,
			"count":16,
			"max":[
				0.6073834896087646,
				0.4435872733592987,
				-0.316540002822876
			],
			"min":[
				-16.342111587524414,
				-0.5068597197532654,
				-0.3321067988872528
			],
			"type":"VEC3"
		},
		{
			"bufferView":38,
			"componentType":5126,
			"count":16,
			"type":"VEC3"
		},
		{
			"bufferView":39,
			"componentType":5126,
			"count":16,
			"type":"VEC2"
		},
		{
			"bufferView":40,
			"componentType":5123,
			"count":36,
			"type":"SCALAR"
		},
		{
			"bufferView":41,
			"componentType":5126,
			"count":340,
			"max":[
				0.27805984020233154,
				1.5158416032791138,
				5.225435256958008
			],
			"min":[
				-16.012788772583008,
				-1.0602003335952759,
				1.7610331773757935
			],
			"type":"VEC3"
		},
		{
			"bufferView":42,
			"componentType":5126,
			"count":340,
			"type":"VEC3"
		},
		{
			"bufferView":43,
			"componentType":5126,
			"count":340,
			"type":"VEC2"
		},
		{
			"bufferView":44,
			"componentType":5123,
			"count":588,
			"type":"SCALAR"
		},
		{
			"bufferView":45,
			"componentType":5126,
			"count":211,
			"max":[
				1.420271396636963,
				1.7351086139678955,
				1.4368304014205933
			],
			"min":[
				-17.155000686645508,
				-0.20156370103359222,
				-0.2866380512714386
			],
			"type":"VEC3"
		},
		{
			"bufferView":46,
			"componentType":5126,
			"count":211,
			"type":"VEC3"
		},
		{
			"bufferView":47,
			"componentType":5126,
			"count":211,
			"type":"VEC2"
		},
		{
			"bufferView":48,
			"componentType":5123,
			"count":336,
			"type":"SCALAR"
		},
		{
			"bufferView":49,
			"componentType":5126,
			"count":48,
			"max":[
				0.02878493070602417,
				0.03470277786254883,
				0.05122983455657959
			],
			"min":[
				-0.02788543701171875,
				-0.049407243728637695,
				-0.05081063508987427
			],
			"type":"VEC3"
		},
		{
			"bufferView":50,
			"componentType":5126,
			"count":48,
			"type":"VEC3"
		},
		{
			"bufferView":51,
			"componentType":5126,
			"count":48,
			"type":"VEC2"
		},
		{
			"bufferView":52,
			"componentType":5123,
			"count":72,
			"type":"SCALAR"
		},
		{
			"bufferView":53,
			"componentType":5126,
			"count":20,
			"max":[
				0.20837655663490295,
				0.16361315548419952,
				-0.017891202121973038
			],
			"min":[
				-0.20837655663490295,
				-0.17011809349060059,
				-0.017891228199005127
			],
			"type":"VEC3"
		},
		{
			"bufferView":54,
			"componentType":5126,
			"count":20,
			"type":"VEC3"
		},
		{
			"bufferView":55,
			"componentType":5126,
			"count":20,
			"type":"VEC2"
		},
		{
			"bufferView":56,
			"componentType":5123,
			"count":54,
			"type":"SCALAR"
		},
		{
			"bufferView":57,
			"componentType":5126,
			"count":44,
			"max":[
				0.10501010715961456,
				0.04796925559639931,
				0.009191254153847694
			],
			"min":[
				-1.0868421792984009,
				0.029658492654561996,
				-0.03910175710916519
			],
			"type":"VEC3"
		},
		{
			"bufferView":58,
			"componentType":5126,
			"count":44,
			"type":"VEC3"
		},
		{
			"bufferView":59,
			"componentType":5126,
			"count":44,
			"type":"VEC2"
		},
		{
			"bufferView":60,
			"componentType":5123,
			"count":66,
			"type":"SCALAR"
		},
		{
			"bufferView":61,
			"componentType":5126,
			"count":166,
			"max":[
				0.10501010715961456,
				0.04796925559639931,
				0.014622188173234463
			],
			"min":[
				-1.0868421792984009,
				-0.005390547681599855,
				-0.03910175710916519
			],
			"type":"VEC3"
		},
		{
			"bufferView":62,
			"componentType":5126,
			"count":166,
			"type":"VEC3"
		},
		{
			"bufferView":63,
			"componentType":5126,
			"count":166,
			"type":"VEC2"
		},
		{
			"bufferView":64,
			"componentType":5123,
			"count":258,
			"type":"SCALAR"
		},
		{
			"bufferView":65,
			"componentType":5126,
			"count":50,
			"max":[
				0.02403976581990719,
				0.024619167670607567,
				0.007650415413081646
			],
			"min":[
				-1.0058717727661133,
				-0.0023894167970865965,
				-0.009980606846511364
			],
			"type":"VEC3"
		},
		{
			"bufferView":66,
			"componentType":5126,
			"count":50,
			"type":"VEC3"
		},
		{
			"bufferView":67,
			"componentType":5126,
			"count":50,
			"type":"VEC2"
		},
		{
			"bufferView":68,
			"componentType":5123,
			"count":72,
			"type":"SCALAR"
		},
		{
			"bufferView":69,
			"componentType":5126,
			"count":19,
			"max":[
				0.097323939204216,
				0.04553280770778656,
				-0.014672019518911839
			],
			"min":[
				-1.0791559219360352,
				0.013784203678369522,
				-0.03841163218021393
			],
			"type":"VEC3"
		},
		{
			"bufferView":70,
			"componentType":5126,
			"count":19,
			"type":"VEC3"
		},
		{
			"bufferView":71,
			"componentType":5126,
			"count":19,
			"type":"VEC2"
		},
		{
			"bufferView":72,
			"componentType":5123,
			"count":36,
			"type":"SCALAR"
		},
		{
			"bufferView":73,
			"componentType":5126,
			"count":1001,
			"max":[
				0.6448472738265991,
				0.6179628968238831,
				1.4923735857009888
			],
			"min":[
				-0.6448472738265991,
				0.08605127036571503,
				-1.550131916999817
			],
			"type":"VEC3"
		},
		{
			"bufferView":74,
			"componentType":5126,
			"count":1001,
			"type":"VEC3"
		},
		{
			"bufferView":75,
			"componentType":5126,
			"count":1001,
			"type":"VEC2"
		},
		{
			"bufferView":76,
			"componentType":5123,
			"count":1380,
			"type":"SCALAR"
		},
		{
			"bufferView":77,
			"componentType":5126,
			"count":1864,
			"max":[
				0.6534917950630188,
				0.6179942488670349,
				1.4929462671279907
			],
			"min":[
				-0.6534917950630188,
				0.07879383862018585,
				-1.5519068241119385
			],
			"type":"VEC3"
		},
		{
			"bufferView":78,
			"componentType":5126,
			"count":1864,
			"type":"VEC3"
		},
		{
			"bufferView":79,
			"componentType":5126,
			"count":1864,
			"type":"VEC2"
		},
		{
			"bufferView":80,
			"componentType":5123,
			"count":2406,
			"type":"SCALAR"
		},
		{
			"bufferView":81,
			"componentType":5126,
			"count":1300,
			"max":[
				0.6534917950630188,
				0.6179942488670349,
				1.462070107460022
			],
			"min":[
				-0.6534917950630188,
				0.07269641757011414,
				-1.5519068241119385
			],
			"type":"VEC3"
		},
		{
			"bufferView":82,
			"componentType":5126,
			"count":1300,
			"type":"VEC3"
		},
		{
			"bufferView":83,
			"componentType":5126,
			"count":1300,
			"type":"VEC2"
		},
		{
			"bufferView":84,
			"componentType":5123,
			"count":1836,
			"type":"SCALAR"
		},
		{
			"bufferView":85,
			"componentType":5126,
			"count":482,
			"max":[
				0.5346533060073853,
				0.7901266813278198,
				0.48496943712234497
			],
			"min":[
				-0.5346533060073853,
				0.503202497959137,
				-1.0220146179199219
			],
			"type":"VEC3"
		},
		{
			"bufferView":86,
			"componentType":5126,
			"count":482,
			"type":"VEC3"
		},
		{
			"bufferView":87,
			"componentType":5126,
			"count":482,
			"type":"VEC2"
		},
		{
			"bufferView":88,
			"componentType":5123,
			"count":666,
			"type":"SCALAR"
		},
		{
			"bufferView":89,
			"componentType":5126,
			"count":1558,
			"max":[
				0.6334024667739868,
				0.783900260925293,
				1.505387544631958
			],
			"min":[
				-0.6334024667739868,
				0.06440195441246033,
				-1.5225107669830322
			],
			"type":"VEC3"
		},
		{
			"bufferView":90,
			"componentType":5126,
			"count":1558,
			"type":"VEC3"
		},
		{
			"bufferView":91,
			"componentType":5126,
			"count":1558,
			"type":"VEC2"
		},
		{
			"bufferView":92,
			"componentType":5123,
			"count":2130,
			"type":"SCALAR"
		},
		{
			"bufferView":93,
			"componentType":5126,
			"count":1511,
			"max":[
				0.6534917950630188,
				0.7742254734039307,
				1.505387544631958
			],
			"min":[
				-0.6534917950630188,
				0.06440195441246033,
				-1.498465895652771
			],
			"type":"VEC3"
		},
		{
			"bufferView":94,
			"componentType":5126,
			"count":1511,
			"type":"VEC3"
		},
		{
			"bufferView":95,
			"componentType":5126,
			"count":1511,
			"type":"VEC2"
		},
		{
			"bufferView":96,
			"componentType":5123,
			"count":1968,
			"type":"SCALAR"
		},
		{
			"bufferView":97,
			"componentType":5126,
			"count":12,
			"max":[
				0.7832396030426025,
				0.3906957507133484,
				0.017122343182563782
			],
			"min":[
				-0.7831472158432007,
				-0.3992493152618408,
				0.01712227240204811
			],
			"type":"VEC3"
		},
		{
			"bufferView":98,
			"componentType":5126,
			"count":12,
			"type":"VEC3"
		},
		{
			"bufferView":99,
			"componentType":5126,
			"count":12,
			"type":"VEC2"
		},
		{
			"bufferView":100,
			"componentType":5123,
			"count":30,
			"type":"SCALAR"
		},
		{
			"bufferView":101,
			"componentType":5126,
			"count":60,
			"max":[
				0.7832396030426025,
				0.3906957507133484,
				0.017122343182563782
			],
			"min":[
				-0.7831472158432007,
				-0.3992493152618408,
				-0.00019647367298603058
			],
			"type":"VEC3"
		},
		{
			"bufferView":102,
			"componentType":5126,
			"count":60,
			"type":"VEC3"
		},
		{
			"bufferView":103,
			"componentType":5126,
			"count":60,
			"type":"VEC2"
		},
		{
			"bufferView":104,
			"componentType":5123,
			"count":102,
			"type":"SCALAR"
		},
		{
			"bufferView":105,
			"componentType":5126,
			"count":72,
			"max":[
				0.5196031928062439,
				0.3276641070842743,
				0.05351708084344864
			],
			"min":[
				-0.5196032524108887,
				0.24306775629520416,
				0.01790931075811386
			],
			"type":"VEC3"
		},
		{
			"bufferView":106,
			"componentType":5126,
			"count":72,
			"type":"VEC3"
		},
		{
			"bufferView":107,
			"componentType":5126,
			"count":72,
			"type":"VEC2"
		},
		{
			"bufferView":108,
			"componentType":5123,
			"count":120,
			"type":"SCALAR"
		},
		{
			"bufferView":109,
			"componentType":5126,
			"count":12,
			"max":[
				0.9244300723075867,
				0.3929528594017029,
				0.02034144476056099
			],
			"min":[
				-0.9243209958076477,
				-0.5393913388252258,
				0.020341383293271065
			],
			"type":"VEC3"
		},
		{
			"bufferView":110,
			"componentType":5126,
			"count":12,
			"type":"VEC3"
		},
		{
			"bufferView":111,
			"componentType":5126,
			"count":12,
			"type":"VEC2"
		},
		{
			"bufferView":112,
			"componentType":5126,
			"count":60,
			"max":[
				0.9244300723075867,
				0.3929528594017029,
				0.02034144476056099
			],
			"min":[
				-0.9243209958076477,
				-0.5393913388252258,
				-9.931930981110781e-05
			],
			"type":"VEC3"
		},
		{
			"bufferView":113,
			"componentType":5126,
			"count":60,
			"type":"VEC3"
		},
		{
			"bufferView":114,
			"componentType":5126,
			"count":60,
			"type":"VEC2"
		},
		{
			"bufferView":115,
			"componentType":5126,
			"count":102,
			"max":[
				0.8585184216499329,
				0.42333030700683594,
				0.06329688429832458
			],
			"min":[
				-0.8585184216499329,
				0.20091591775417328,
				-0.005223562009632587
			],
			"type":"VEC3"
		},
		{
			"bufferView":116,
			"componentType":5126,
			"count":102,
			"type":"VEC3"
		},
		{
			"bufferView":117,
			"componentType":5126,
			"count":102,
			"type":"VEC2"
		},
		{
			"bufferView":118,
			"componentType":5123,
			"count":168,
			"type":"SCALAR"
		},
		{
			"bufferView":119,
			"componentType":5126,
			"count":44,
			"max":[
				0.4956604242324829,
				0.008582621812820435,
				0.23608040809631348
			],
			"min":[
				-0.4956604242324829,
				-0.07034569978713989,
				0.0033075809478759766
			],
			"type":"VEC3"
		},
		{
			"bufferView":120,
			"componentType":5126,
			"count":44,
			"type":"VEC3"
		},
		{
			"bufferView":121,
			"componentType":5126,
			"count":44,
			"type":"VEC2"
		},
		{
			"bufferView":122,
			"componentType":5123,
			"count":48,
			"type":"SCALAR"
		},
		{
			"bufferView":123,
			"componentType":5126,
			"count":16,
			"max":[
				0.47650572657585144,
				-0.06248798966407776,
				0.24743866920471191
			],
			"min":[
				-0.47650572657585144,
				-0.08451437950134277,
				0.19955098628997803
			],
			"type":"VEC3"
		},
		{
			"bufferView":124,
			"componentType":5126,
			"count":16,
			"type":"VEC3"
		},
		{
			"bufferView":125,
			"componentType":5126,
			"count":16,
			"type":"VEC2"
		},
		{
			"bufferView":126,
			"componentType":5123,
			"count":24,
			"type":"SCALAR"
		},
		{
			"bufferView":127,
			"componentType":5126,
			"count":144,
			"max":[
				0.4956604242324829,
				0.008582621812820435,
				0.24743866920471191
			],
			"min":[
				-0.4956604242324829,
				-0.17796897888183594,
				-0.016584988683462143
			],
			"type":"VEC3"
		},
		{
			"bufferView":128,
			"componentType":5126,
			"count":144,
			"type":"VEC3"
		},
		{
			"bufferView":129,
			"componentType":5126,
			"count":144,
			"type":"VEC2"
		},
		{
			"bufferView":130,
			"componentType":5123,
			"count":180,
			"type":"SCALAR"
		},
		{
			"bufferView":131,
			"componentType":5126,
			"count":68,
			"max":[
				0.48799118399620056,
				-0.06103359907865524,
				0.22412854433059692
			],
			"min":[
				-0.48799118399620056,
				-0.17796897888183594,
				-0.016584988683462143
			],
			"type":"VEC3"
		},
		{
			"bufferView":132,
			"componentType":5126,
			"count":68,
			"type":"VEC3"
		},
		{
			"bufferView":133,
			"componentType":5126,
			"count":68,
			"type":"VEC2"
		},
		{
			"bufferView":134,
			"componentType":5123,
			"count":96,
			"type":"SCALAR"
		},
		{
			"bufferView":135,
			"componentType":5126,
			"count":90,
			"max":[
				0.46949905157089233,
				-0.08881904929876328,
				0.20057471096515656
			],
			"min":[
				-0.46949905157089233,
				-0.14628256857395172,
				0.17819887399673462
			],
			"type":"VEC3"
		},
		{
			"bufferView":136,
			"componentType":5126,
			"count":90,
			"type":"VEC3"
		},
		{
			"bufferView":137,
			"componentType":5126,
			"count":90,
			"type":"VEC2"
		},
		{
			"bufferView":138,
			"componentType":5126,
			"count":90,
			"type":"VEC2"
		},
		{
			"bufferView":139,
			"componentType":5123,
			"count":90,
			"type":"SCALAR"
		},
		{
			"bufferView":140,
			"componentType":5126,
			"count":92,
			"max":[
				0.47274425625801086,
				-0.08611632138490677,
				0.2232198417186737
			],
			"min":[
				-0.47274425625801086,
				-0.15658366680145264,
				0.17330798506736755
			],
			"type":"VEC3"
		},
		{
			"bufferView":141,
			"componentType":5126,
			"count":92,
			"type":"VEC3"
		},
		{
			"bufferView":142,
			"componentType":5126,
			"count":92,
			"type":"VEC2"
		},
		{
			"bufferView":143,
			"componentType":5123,
			"count":96,
			"type":"SCALAR"
		},
		{
			"bufferView":144,
			"componentType":5126,
			"count":336,
			"max":[
				1.2586370706558228,
				0.1458478569984436,
				0.39585742354393005
			],
			"min":[
				-4.260958194732666,
				-0.15261119604110718,
				-0.34164443612098694
			],
			"type":"VEC3"
		},
		{
			"bufferView":145,
			"componentType":5126,
			"count":336,
			"type":"VEC3"
		},
		{
			"bufferView":146,
			"componentType":5126,
			"count":336,
			"type":"VEC2"
		},
		{
			"bufferView":147,
			"componentType":5123,
			"count":504,
			"type":"SCALAR"
		},
		{
			"bufferView":148,
			"componentType":5126,
			"count":292,
			"max":[
				0.4170122444629669,
				0.13431745767593384,
				0.13449513912200928
			],
			"min":[
				-0.4170122444629669,
				-0.011802196502685547,
				-0.12795376777648926
			],
			"type":"VEC3"
		},
		{
			"bufferView":149,
			"componentType":5126,
			"count":292,
			"type":"VEC3"
		},
		{
			"bufferView":150,
			"componentType":5126,
			"count":292,
			"type":"VEC2"
		},
		{
			"bufferView":151,
			"componentType":5123,
			"count":348,
			"type":"SCALAR"
		},
		{
			"bufferView":152,
			"componentType":5126,
			"count":170,
			"max":[
				0.4027957320213318,
				0.13431745767593384,
				0.13449335098266602
			],
			"min":[
				-0.4027957320213318,
				-0.011802196502685547,
				-0.12488245964050293
			],
			"type":"VEC3"
		},
		{
			"bufferView":153,
			"componentType":5126,
			"count":170,
			"type":"VEC3"
		},
		{
			"bufferView":154,
			"componentType":5126,
			"count":170,
			"type":"VEC2"
		},
		{
			"bufferView":155,
			"componentType":5123,
			"count":198,
			"type":"SCALAR"
		},
		{
			"bufferView":156,
			"componentType":5126,
			"count":8,
			"max":[
				0.13084205985069275,
				0.10772335529327393,
				-0.10478007793426514
			],
			"min":[
				-0.13084205985069275,
				0.09606176614761353,
				-0.12250125408172607
			],
			"type":"VEC3"
		},
		{
			"bufferView":157,
			"componentType":5126,
			"count":8,
			"type":"VEC3"
		},
		{
			"bufferView":158,
			"componentType":5126,
			"count":8,
			"type":"VEC2"
		},
		{
			"bufferView":159,
			"componentType":5123,
			"count":12,
			"type":"SCALAR"
		},
		{
			"bufferView":160,
			"componentType":5126,
			"count":8,
			"max":[
				7.383225440979004,
				1.78702974319458,
				-1.8243670463562012
			],
			"min":[
				-47.088199615478516,
				-1.787060260772705,
				-2.8194785118103027
			],
			"type":"VEC3"
		},
		{
			"bufferView":161,
			"componentType":5126,
			"count":8,
			"type":"VEC3"
		},
		{
			"bufferView":162,
			"componentType":5126,
			"count":8,
			"type":"VEC2"
		},
		{
			"bufferView":163,
			"componentType":5123,
			"count":12,
			"type":"SCALAR"
		},
		{
			"bufferView":164,
			"componentType":5126,
			"count":24,
			"max":[
				13.896295547485352,
				1.7870296239852905,
				-1.029292106628418
			],
			"min":[
				-53.60127258300781,
				-1.7870601415634155,
				-1.6983366012573242
			],
			"type":"VEC3"
		},
		{
			"bufferView":165,
			"componentType":5126,
			"count":24,
			"type":"VEC3"
		},
		{
			"bufferView":166,
			"componentType":5126,
			"count":24,
			"type":"VEC2"
		},
		{
			"bufferView":167,
			"componentType":5123,
			"count":60,
			"type":"SCALAR"
		},
		{
			"bufferView":168,
			"componentType":5126,
			"count":8,
			"max":[
				-8.483673095703125,
				1.78702974319458,
				-2.8576130867004395
			],
			"min":[
				-31.221302032470703,
				-1.787060260772705,
				-2.8576226234436035
			],
			"type":"VEC3"
		},
		{
			"bufferView":169,
			"componentType":5126,
			"count":8,
			"type":"VEC3"
		},
		{
			"bufferView":170,
			"componentType":5126,
			"count":8,
			"type":"VEC2"
		},
		{
			"bufferView":171,
			"componentType":5126,
			"count":18,
			"max":[
				13.341455459594727,
				5.81984806060791,
				-1.3573627471923828
			],
			"min":[
				-53.04643249511719,
				2.221651077270508,
				-1.8861804008483887
			],
			"type":"VEC3"
		},
		{
			"bufferView":172,
			"componentType":5126,
			"count":18,
			"type":"VEC3"
		},
		{
			"bufferView":173,
			"componentType":5126,
			"count":18,
			"type":"VEC2"
		},
		{
			"bufferView":174,
			"componentType":5123,
			"count":18,
			"type":"SCALAR"
		},
		{
			"bufferView":175,
			"componentType":5126,
			"count":306,
			"max":[
				0.47544607520103455,
				0.5475245714187622,
				0.7532737255096436
			],
			"min":[
				-0.42668524384498596,
				0.489427775144577,
				0.4880003333091736
			],
			"type":"VEC3"
		},
		{
			"bufferView":176,
			"componentType":5126,
			"count":306,
			"type":"VEC3"
		},
		{
			"bufferView":177,
			"componentType":5126,
			"count":306,
			"type":"VEC2"
		},
		{
			"bufferView":178,
			"componentType":5123,
			"count":384,
			"type":"SCALAR"
		},
		{
			"bufferView":179,
			"componentType":5126,
			"count":121,
			"max":[
				5.416666666666667
			],
			"min":[
				0.4166666666666667
			],
			"type":"SCALAR"
		},
		{
			"bufferView":180,
			"componentType":5126,
			"count":121,
			"type":"VEC4"
		}
	],
	"bufferViews":[
		{
			"buffer":0,
			"byteLength":216,
			"byteOffset":0,
			"target":34962
		},
		{
			"buffer":0,
			"byteLength":216,
			"byteOffset":216,
			"target":34962
		},
		{
			"buffer":0,
			"byteLength":144,
			"byteOffset":432,
			"target":34962
		},
		{
			"buffer":0,
			"byteLength":144,
			"byteOffset":576,
			"target":34962
		},
		{
			"buffer":0,
			"byteLength":36,
			"byteOffset":720,
			"target":34963
		},
		{
			"buffer":0,
			"byteLength":1056,
			"byteOffset":756,
			"target":34962
		},
		{
			"buffer":0,
			"byteLength":1056,
			"byteOffset":1812,
			"target":34962
		},
		{
			"buffer":0,
			"byteLength":704,
			"byteOffset":2868,
			"target":34962
		},
		{
			"buffer":0,
			"byteLength":264,
			"byteOffset":3572,
			"target":34963
		},
		{
			"buffer":0,
			"byteLength":336,
			"byteOffset":3836,
			"target":34962
		},
		{
			"buffer":0,
			"byteLength":336,
			"byteOffset":4172,
			"target":34962
		},
		{
			"buffer":0,
			"byteLength":224,
			"byteOffset":4508,
			"target":34962
		},
		{
			"buffer":0,
			"byteLength":72,
			"byteOffset":4732,
			"target":34963
		},
		{
			"buffer":0,
			"byteLength":1152,
			"byteOffset":4804,
			"target":34962
		},
		{
			"buffer":0,
			"byteLength":1152,
			"byteOffset":5956,
			"target":34962
		},
		{
			"buffer":0,
			"byteLength":768,
			"byteOffset":7108,
			"target":34962
		},
		{
			"buffer":0,
			"byteLength":312,
			"byteOffset":7876,
			"target":34963
		},
		{
			"buffer":0,
			"byteLength":2760,
			"byteOffset":8188,
			"target":34962
		},
		{
			"buffer":0,
			"byteLength":2760,
			"byteOffset":10948,
			"target":34962
		},
		{
			"buffer":0,
			"byteLength":1840,
			"byteOffset":13708,
			"target":34962
		},
		{
			"buffer":0,
			"byteLength":768,
			"byteOffset":15548,
			"target":34963
		},
		{
			"buffer":0,
			"byteLength":96,
			"byteOffset":16316,
			"target":34962
		},
		{
			"buffer":0,
			"byteLength":96,
			"byteOffset":16412,
			"target":34962
		},
		{
			"buffer":0,
			"byteLength":64,
			"byteOffset":16508,
			"target":34962
		},
		{
			"buffer":0,
			"byteLength":24,
			"byteOffset":16572,
			"target":34963
		},
		{
			"buffer":0,
			"byteLength":2184,
			"byteOffset":16596,
			"target":34962
		},
		{
			"buffer":0,
			"byteLength":2184,
			"byteOffset":18780,
			"target":34962
		},
		{
			"buffer":0,
			"byteLength":1456,
			"byteOffset":20964,
			"target":34962
		},
		{
			"buffer":0,
			"byteLength":528,
			"byteOffset":22420,
			"target":34963
		},
		{
			"buffer":0,
			"byteLength":1536,
			"byteOffset":22948,
			"target":34962
		},
		{
			"buffer":0,
			"byteLength":1536,
			"byteOffset":24484,
			"target":34962
		},
		{
			"buffer":0,
			"byteLength":1024,
			"byteOffset":26020,
			"target":34962
		},
		{
			"buffer":0,
			"byteLength":384,
			"byteOffset":27044,
			"target":34963
		},
		{
			"buffer":0,
			"byteLength":1728,
			"byteOffset":27428,
			"target":34962
		},
		{
			"buffer":0,
			"byteLength":1728,
			"byteOffset":29156,
			"target":34962
		},
		{
			"buffer":0,
			"byteLength":1152,
			"byteOffset":30884,
			"target":34962
		},
		{
			"buffer":0,
			"byteLength":648,
			"byteOffset":32036,
			"target":34963
		},
		{
			"buffer":0,
			"byteLength":192,
			"byteOffset":32684,
			"target":34962
		},
		{
			"buffer":0,
			"byteLength":192,
			"byteOffset":32876,
			"target":34962
		},
		{
			"buffer":0,
			"byteLength":128,
			"byteOffset":33068,
			"target":34962
		},
		{
			"buffer":0,
			"byteLength":72,
			"byteOffset":33196,
			"target":34963
		},
		{
			"buffer":0,
			"byteLength":4080,
			"byteOffset":33268,
			"target":34962
		},
		{
			"buffer":0,
			"byteLength":4080,
			"byteOffset":37348,
			"target":34962
		},
		{
			"buffer":0,
			"byteLength":2720,
			"byteOffset":41428,
			"target":34962
		},
		{
			"buffer":0,
			"byteLength":1176,
			"byteOffset":44148,
			"target":34963
		},
		{
			"buffer":0,
			"byteLength":2532,
			"byteOffset":45324,
			"target":34962
		},
		{
			"buffer":0,
			"byteLength":2532,
			"byteOffset":47856,
			"target":34962
		},
		{
			"buffer":0,
			"byteLength":1688,
			"byteOffset":50388,
			"target":34962
		},
		{
			"buffer":0,
			"byteLength":672,
			"byteOffset":52076,
			"target":34963
		},
		{
			"buffer":0,
			"byteLength":576,
			"byteOffset":52748,
			"target":34962
		},
		{
			"buffer":0,
			"byteLength":576,
			"byteOffset":53324,
			"target":34962
		},
		{
			"buffer":0,
			"byteLength":384,
			"byteOffset":53900,
			"target":34962
		},
		{
			"buffer":0,
			"byteLength":144,
			"byteOffset":54284,
			"target":34963
		},
		{
			"buffer":0,
			"byteLength":240,
			"byteOffset":54428,
			"target":34962
		},
		{
			"buffer":0,
			"byteLength":240,
			"byteOffset":54668,
			"target":34962
		},
		{
			"buffer":0,
			"byteLength":160,
			"byteOffset":54908,
			"target":34962
		},
		{
			"buffer":0,
			"byteLength":108,
			"byteOffset":55068,
			"target":34963
		},
		{
			"buffer":0,
			"byteLength":528,
			"byteOffset":55176,
			"target":34962
		},
		{
			"buffer":0,
			"byteLength":528,
			"byteOffset":55704,
			"target":34962
		},
		{
			"buffer":0,
			"byteLength":352,
			"byteOffset":56232,
			"target":34962
		},
		{
			"buffer":0,
			"byteLength":132,
			"byteOffset":56584,
			"target":34963
		},
		{
			"buffer":0,
			"byteLength":1992,
			"byteOffset":56716,
			"target":34962
		},
		{
			"buffer":0,
			"byteLength":1992,
			"byteOffset":58708,
			"target":34962
		},
		{
			"buffer":0,
			"byteLength":1328,
			"byteOffset":60700,
			"target":34962
		},
		{
			"buffer":0,
			"byteLength":516,
			"byteOffset":62028,
			"target":34963
		},
		{
			"buffer":0,
			"byteLength":600,
			"byteOffset":62544,
			"target":34962
		},
		{
			"buffer":0,
			"byteLength":600,
			"byteOffset":63144,
			"target":34962
		},
		{
			"buffer":0,
			"byteLength":400,
			"byteOffset":63744,
			"target":34962
		},
		{
			"buffer":0,
			"byteLength":144,
			"byteOffset":64144,
			"target":34963
		},
		{
			"buffer":0,
			"byteLength":228,
			"byteOffset":64288,
			"target":34962
		},
		{
			"buffer":0,
			"byteLength":228,
			"byteOffset":64516,
			"target":34962
		},
		{
			"buffer":0,
			"byteLength":152,
			"byteOffset":64744,
			"target":34962
		},
		{
			"buffer":0,
			"byteLength":72,
			"byteOffset":64896,
			"target":34963
		},
		{
			"buffer":0,
			"byteLength":12012,
			"byteOffset":64968,
			"target":34962
		},
		{
			"buffer":0,
			"byteLength":12012,
			"byteOffset":76980,
			"target":34962
		},
		{
			"buffer":0,
			"byteLength":8008,
			"byteOffset":88992,
			"target":34962
		},
		{
			"buffer":0,
			"byteLength":2760,
			"byteOffset":97000,
			"target":34963
		},
		{
			"buffer":0,
			"byteLength":22368,
			"byteOffset":99760,
			"target":34962
		},
		{
			"buffer":0,
			"byteLength":22368,
			"byteOffset":122128,
			"target":34962
		},
		{
			"buffer":0,
			"byteLength":14912,
			"byteOffset":144496,
			"target":34962
		},
		{
			"buffer":0,
			"byteLength":4812,
			"byteOffset":159408,
			"target":34963
		},
		{
			"buffer":0,
			"byteLength":15600,
			"byteOffset":164220,
			"target":34962
		},
		{
			"buffer":0,
			"byteLength":15600,
			"byteOffset":179820,
			"target":34962
		},
		{
			"buffer":0,
			"byteLength":10400,
			"byteOffset":195420,
			"target":34962
		},
		{
			"buffer":0,
			"byteLength":3672,
			"byteOffset":205820,
			"target":34963
		},
		{
			"buffer":0,
			"byteLength":5784,
			"byteOffset":209492,
			"target":34962
		},
		{
			"buffer":0,
			"byteLength":5784,
			"byteOffset":215276,
			"target":34962
		},
		{
			"buffer":0,
			"byteLength":3856,
			"byteOffset":221060,
			"target":34962
		},
		{
			"buffer":0,
			"byteLength":1332,
			"byteOffset":224916,
			"target":34963
		},
		{
			"buffer":0,
			"byteLength":18696,
			"byteOffset":226248,
			"target":34962
		},
		{
			"buffer":0,
			"byteLength":18696,
			"byteOffset":244944,
			"target":34962
		},
		{
			"buffer":0,
			"byteLength":12464,
			"byteOffset":263640,
			"target":34962
		},
		{
			"buffer":0,
			"byteLength":4260,
			"byteOffset":276104,
			"target":34963
		},
		{
			"buffer":0,
			"byteLength":18132,
			"byteOffset":280364,
			"target":34962
		},
		{
			"buffer":0,
			"byteLength":18132,
			"byteOffset":298496,
			"target":34962
		},
		{
			"buffer":0,
			"byteLength":12088,
			"byteOffset":316628,
			"target":34962
		},
		{
			"buffer":0,
			"byteLength":3936,
			"byteOffset":328716,
			"target":34963
		},
		{
			"buffer":0,
			"byteLength":144,
			"byteOffset":332652,
			"target":34962
		},
		{
			"buffer":0,
			"byteLength":144,
			"byteOffset":332796,
			"target":34962
		},
		{
			"buffer":0,
			"byteLength":96,
			"byteOffset":332940,
			"target":34962
		},
		{
			"buffer":0,
			"byteLength":60,
			"byteOffset":333036,
			"target":34963
		},
		{
			"buffer":0,
			"byteLength":720,
			"byteOffset":333096,
			"target":34962
		},
		{
			"buffer":0,
			"byteLength":720,
			"byteOffset":333816,
			"target":34962
		},
		{
			"buffer":0,
			"byteLength":480,
			"byteOffset":334536,
			"target":34962
		},
		{
			"buffer":0,
			"byteLength":204,
			"byteOffset":335016,
			"target":34963
		},
		{
			"buffer":0,
			"byteLength":864,
			"byteOffset":335220,
			"target":34962
		},
		{
			"buffer":0,
			"byteLength":864,
			"byteOffset":336084,
			"target":34962
		},
		{
			"buffer":0,
			"byteLength":576,
			"byteOffset":336948,
			"target":34962
		},
		{
			"buffer":0,
			"byteLength":240,
			"byteOffset":337524,
			"target":34963
		},
		{
			"buffer":0,
			"byteLength":144,
			"byteOffset":337764,
			"target":34962
		},
		{
			"buffer":0,
			"byteLength":144,
			"byteOffset":337908,
			"target":34962
		},
		{
			"buffer":0,
			"byteLength":96,
			"byteOffset":338052,
			"target":34962
		},
		{
			"buffer":0,
			"byteLength":720,
			"byteOffset":338148,
			"target":34962
		},
		{
			"buffer":0,
			"byteLength":720,
			"byteOffset":338868,
			"target":34962
		},
		{
			"buffer":0,
			"byteLength":480,
			"byteOffset":339588,
			"target":34962
		},
		{
			"buffer":0,
			"byteLength":1224,
			"byteOffset":340068,
			"target":34962
		},
		{
			"buffer":0,
			"byteLength":1224,
			"byteOffset":341292,
			"target":34962
		},
		{
			"buffer":0,
			"byteLength":816,
			"byteOffset":342516,
			"target":34962
		},
		{
			"buffer":0,
			"byteLength":336,
			"byteOffset":343332,
			"target":34963
		},
		{
			"buffer":0,
			"byteLength":528,
			"byteOffset":343668,
			"target":34962
		},
		{
			"buffer":0,
			"byteLength":528,
			"byteOffset":344196,
			"target":34962
		},
		{
			"buffer":0,
			"byteLength":352,
			"byteOffset":344724,
			"target":34962
		},
		{
			"buffer":0,
			"byteLength":96,
			"byteOffset":345076,
			"target":34963
		},
		{
			"buffer":0,
			"byteLength":192,
			"byteOffset":345172,
			"target":34962
		},
		{
			"buffer":0,
			"byteLength":192,
			"byteOffset":345364,
			"target":34962
		},
		{
			"buffer":0,
			"byteLength":128,
			"byteOffset":345556,
			"target":34962
		},
		{
			"buffer":0,
			"byteLength":48,
			"byteOffset":345684,
			"target":34963
		},
		{
			"buffer":0,
			"byteLength":1728,
			"byteOffset":345732,
			"target":34962
		},
		{
			"buffer":0,
			"byteLength":1728,
			"byteOffset":347460,
			"target":34962
		},
		{
			"buffer":0,
			"byteLength":1152,
			"byteOffset":349188,
			"target":34962
		},
		{
			"buffer":0,
			"byteLength":360,
			"byteOffset":350340,
			"target":34963
		},
		{
			"buffer":0,
			"byteLength":816,
			"byteOffset":350700,
			"target":34962
		},
		{
			"buffer":0,
			"byteLength":816,
			"byteOffset":351516,
			"target":34962
		},
		{
			"buffer":0,
			"byteLength":544,
			"byteOffset":352332,
			"target":34962
		},
		{
			"buffer":0,
			"byteLength":192,
			"byteOffset":352876,
			"target":34963
		},
		{
			"buffer":0,
			"byteLength":1080,
			"byteOffset":353068,
			"target":34962
		},
		{
			"buffer":0,
			"byteLength":1080,
			"byteOffset":354148,
			"target":34962
		},
		{
			"buffer":0,
			"byteLength":720,
			"byteOffset":355228,
			"target":34962
		},
		{
			"buffer":0,
			"byteLength":720,
			"byteOffset":355948,
			"target":34962
		},
		{
			"buffer":0,
			"byteLength":180,
			"byteOffset":356668,
			"target":34963
		},
		{
			"buffer":0,
			"byteLength":1104,
			"byteOffset":356848,
			"target":34962
		},
		{
			"buffer":0,
			"byteLength":1104,
			"byteOffset":357952,
			"target":34962
		},
		{
			"buffer":0,
			"byteLength":736,
			"byteOffset":359056,
			"target":34962
		},
		{
			"buffer":0,
			"byteLength":192,
			"byteOffset":359792,
			"target":34963
		},
		{
			"buffer":0,
			"byteLength":4032,
			"byteOffset":359984,
			"target":34962
		},
		{
			"buffer":0,
			"byteLength":4032,
			"byteOffset":364016,
			"target":34962
		},
		{
			"buffer":0,
			"byteLength":2688,
			"byteOffset":368048,
			"target":34962
		},
		{
			"buffer":0,
			"byteLength":1008,
			"byteOffset":370736,
			"target":34963
		},
		{
			"buffer":0,
			"byteLength":3504,
			"byteOffset":371744,
			"target":34962
		},
		{
			"buffer":0,
			"byteLength":3504,
			"byteOffset":375248,
			"target":34962
		},
		{
			"buffer":0,
			"byteLength":2336,
			"byteOffset":378752,
			"target":34962
		},
		{
			"buffer":0,
			"byteLength":696,
			"byteOffset":381088,
			"target":34963
		},
		{
			"buffer":0,
			"byteLength":2040,
			"byteOffset":381784,
			"target":34962
		},
		{
			"buffer":0,
			"byteLength":2040,
			"byteOffset":383824,
			"target":34962
		},
		{
			"buffer":0,
			"byteLength":1360,
			"byteOffset":385864,
			"target":34962
		},
		{
			"buffer":0,
			"byteLength":396,
			"byteOffset":387224,
			"target":34963
		},
		{
			"buffer":0,
			"byteLength":96,
			"byteOffset":387620,
			"target":34962
		},
		{
			"buffer":0,
			"byteLength":96,
			"byteOffset":387716,
			"target":34962
		},
		{
			"buffer":0,
			"byteLength":64,
			"byteOffset":387812,
			"target":34962
		},
		{
			"buffer":0,
			"byteLength":24,
			"byteOffset":387876,
			"target":34963
		},
		{
			"buffer":0,
			"byteLength":96,
			"byteOffset":387900,
			"target":34962
		},
		{
			"buffer":0,
			"byteLength":96,
			"byteOffset":387996,
			"target":34962
		},
		{
			"buffer":0,
			"byteLength":64,
			"byteOffset":388092,
			"target":34962
		},
		{
			"buffer":0,
			"byteLength":24,
			"byteOffset":388156,
			"target":34963
		},
		{
			"buffer":0,
			"byteLength":288,
			"byteOffset":388180,
			"target":34962
		},
		{
			"buffer":0,
			"byteLength":288,
			"byteOffset":388468,
			"target":34962
		},
		{
			"buffer":0,
			"byteLength":192,
			"byteOffset":388756,
			"target":34962
		},
		{
			"buffer":0,
			"byteLength":120,
			"byteOffset":388948,
			"target":34963
		},
		{
			"buffer":0,
			"byteLength":96,
			"byteOffset":389068,
			"target":34962
		},
		{
			"buffer":0,
			"byteLength":96,
			"byteOffset":389164,
			"target":34962
		},
		{
			"buffer":0,
			"byteLength":64,
			"byteOffset":389260,
			"target":34962
		},
		{
			"buffer":0,
			"byteLength":216,
			"byteOffset":389324,
			"target":34962
		},
		{
			"buffer":0,
			"byteLength":216,
			"byteOffset":389540,
			"target":34962
		},
		{
			"buffer":0,
			"byteLength":144,
			"byteOffset":389756,
			"target":34962
		},
		{
			"buffer":0,
			"byteLength":36,
			"byteOffset":389900,
			"target":34963
		},
		{
			"buffer":0,
			"byteLength":3672,
			"byteOffset":389936,
			"target":34962
		},
		{
			"buffer":0,
			"byteLength":3672,
			"byteOffset":393608,
			"target":34962
		},
		{
			"buffer":0,
			"byteLength":2448,
			"byteOffset":397280,
			"target":34962
		},
		{
			"buffer":0,
			"byteLength":768,
			"byteOffset":399728,
			"target":34963
		},
		{
			"buffer":0,
			"byteLength":484,
			"byteOffset":400496
		},
		{
			"buffer":0,
			"byteLength":1936,
			"byteOffset":400980
		}
	],
	"samplers":[
		{
			"magFilter":9729,
			"minFilter":9987
		},
		{
			"magFilter":9729,
			"minFilter":9987,
			"wrapS":33071,
			"wrapT":33071
		}
	],
	"buffers":[
		{
			"byteLength":402916,
			"uri":"scene.bin"
		}
	]
}
