{
	"asset":{
		"generator":"Khronos glTF Blender I/O v5.1.19",
		"version":"2.0"
	},
	"scene":0,
	"scenes":[
		{
			"name":"Scene",
			"nodes":[
				0,
				1
			]
		}
	],
	"nodes":[
		{
			"mesh":0,
			"name":"cherry_1_Tree_0Mat_0",
			"translation":[
				-0.2359619140625,
				0,
				-3.970513343811035
			]
		},
		{
			"mesh":1,
			"name":"cherry_1_Tree_1Mat_0",
			"translation":[
				-0.2359619140625,
				0,
				-3.970513343811035
			]
		}
	],
	"materials":[
		{
			"doubleSided":true,
			"name":"Tree_0Mat_0",
			"normalTexture":{
				"index":0
			},
			"occlusionTexture":{
				"index":1
			},
			"pbrMetallicRoughness":{
				"baseColorTexture":{
					"index":2
				},
				"metallicFactor":0,
				"metallicRoughnessTexture":{
					"index":1
				}
			}
		},
		{
			"alphaMode":"BLEND",
			"doubleSided":true,
			"name":"Tree_1Mat_0",
			"pbrMetallicRoughness":{
				"baseColorTexture":{
					"index":3
				},
				"metallicFactor":0,
				"roughnessFactor":0.9577051401138306
			}
		}
	],
	"meshes":[
		{
			"name":"cherry_1_Tree_0Mat_0",
			"primitives":[
				{
					"attributes":{
						"POSITION":0,
						"NORMAL":1,
						"TEXCOORD_0":2
					},
					"indices":3,
					"material":0
				}
			]
		},
		{
			"name":"cherry_1_Tree_1Mat_0",
			"primitives":[
				{
					"attributes":{
						"POSITION":4,
						"NORMAL":5,
						"TEXCOORD_0":6
					},
					"indices":7,
					"material":1
				}
			]
		}
	],
	"textures":[
		{
			"sampler":0,
			"source":0
		},
		{
			"sampler":0,
			"source":1
		},
		{
			"sampler":0,
			"source":2
		},
		{
			"sampler":0,
			"source":3
		}
	],
	"images":[
		{
			"mimeType":"image/png",
			"name":"Tree_0Mat_normal",
			"uri":"Tree_0Mat_normal.png"
		},
		{
			"mimeType":"image/png",
			"name":"Tree_0Mat_metallicRoughness",
			"uri":"Tree_0Mat_metallicRoughness.png"
		},
		{
			"mimeType":"image/png",
			"name":"Tree_0Mat_baseColor",
			"uri":"Tree_0Mat_baseColor.png"
		},
		{
			"mimeType":"image/png",
			"name":"Tree_1Mat_baseColor",
			"uri":"Tree_1Mat_baseColor.png"
		}
	],
	"accessors":[
		{
			"bufferView":0,
			"componentType":5126,
			"count":10703,
			"max":[
				77.02886199951172,
				166.98834228515625,
				99.01941680908203
			],
			"min":[
				-85.53292846679688,
				0,
				-79.83728790283203
			],
			"type":"VEC3"
		},
		{
			"bufferView":1,
			"componentType":5126,
			"count":10703,
			"type":"VEC3"
		},
		{
			"bufferView":2,
			"componentType":5126,
			"count":10703,
			"type":"VEC2"
		},
		{
			"bufferView":3,
			"componentType":5123,
			"count":48627,
			"type":"SCALAR"
		},
		{
			"bufferView":4,
			"componentType":5126,
			"count":13200,
			"max":[
				90.4979019165039,
				179.25375366210938,
				112.14115142822266
			],
			"min":[
				-95.59691619873047,
				47.12458038330078,
				-96.26822662353516
			],
			"type":"VEC3"
		},
		{
			"bufferView":5,
			"componentType":5126,
			"count":13200,
			"type":"VEC3"
		},
		{
			"bufferView":6,
			"componentType":5126,
			"count":13200,
			"type":"VEC2"
		},
		{
			"bufferView":7,
			"componentType":5123,
			"count":28800,
			"type":"SCALAR"
		}
	],
	"bufferViews":[
		{
			"buffer":0,
			"byteLength":128436,
			"byteOffset":0,
			"target":34962
		},
		{
			"buffer":0,
			"byteLength":128436,
			"byteOffset":128436,
			"target":34962
		},
		{
			"buffer":0,
			"byteLength":85624,
			"byteOffset":256872,
			"target":34962
		},
		{
			"buffer":0,
			"byteLength":97254,
			"byteOffset":342496,
			"target":34963
		},
		{
			"buffer":0,
			"byteLength":158400,
			"byteOffset":439752,
			"target":34962
		},
		{
			"buffer":0,
			"byteLength":158400,
			"byteOffset":598152,
			"target":34962
		},
		{
			"buffer":0,
			"byteLength":105600,
			"byteOffset":756552,
			"target":34962
		},
		{
			"buffer":0,
			"byteLength":57600,
			"byteOffset":862152,
			"target":34963
		}
	],
	"samplers":[
		{
			"magFilter":9729,
			"minFilter":9987
		}
	],
	"buffers":[
		{
			"byteLength":919752,
			"uri":"Cherry1.bin"
		}
	]
}
