{
	"asset":{
		"generator":"Khronos glTF Blender I/O v5.1.19",
		"version":"2.0"
	},
	"scene":0,
	"scenes":[
		{
			"name":"Scene",
			"nodes":[
				8
			]
		}
	],
	"nodes":[
		{
			"mesh":0,
			"name":"Object_2"
		},
		{
			"mesh":1,
			"name":"Object_3"
		},
		{
			"mesh":2,
			"name":"Object_4"
		},
		{
			"mesh":3,
			"name":"Object_5"
		},
		{
			"mesh":4,
			"name":"Object_6"
		},
		{
			"mesh":5,
			"name":"Object_7"
		},
		{
			"mesh":6,
			"name":"Object_8"
		},
		{
			"children":[
				0,
				1,
				2,
				3,
				4,
				5,
				6
			],
			"name":"prunusserrulata.obj.cleaner.materialmerger.gles"
		},
		{
			"children":[
				7
			],
			"name":"Sketchfab_model",
			"rotation":[
				-0.70710688829422,
				0,
				0,
				0.7071066498756409
			],
			"scale":[
				21.711336135864258,
				21.71133804321289,
				21.71133804321289
			],
			"translation":[
				0,
				0,
				-13.166705131530762
			]
		}
	],
	"materials":[
		{
			"doubleSided":true,
			"name":"nature_bark_linden_02_m_0001.jpg",
			"pbrMetallicRoughness":{
				"baseColorFactor":[
					0.19228708744049072,
					0.19228708744049072,
					0.19228708744049072,
					1
				],
				"baseColorTexture":{
					"index":0
				},
				"metallicFactor":0.3057679831981659,
				"roughnessFactor":0.6627095341682434
			}
		},
		{
			"alphaMode":"BLEND",
			"doubleSided":true,
			"name":"nature_blossoms_prunusserrulata_01_m_0001.jpg",
			"pbrMetallicRoughness":{
				"baseColorTexture":{
					"index":1
				},
				"metallicFactor":0,
				"roughnessFactor":0.8999999761581421
			}
		},
		{
			"alphaMode":"BLEND",
			"doubleSided":true,
			"name":"nature_blossoms_prunusserrulata_01_m_0002.jpg",
			"pbrMetallicRoughness":{
				"baseColorTexture":{
					"index":2
				},
				"metallicFactor":0,
				"roughnessFactor":0.8999999761581421
			}
		},
		{
			"alphaMode":"BLEND",
			"doubleSided":true,
			"name":"nature_blossoms_prunusserrulata_01_m_0003.jpg",
			"pbrMetallicRoughness":{
				"baseColorTexture":{
					"index":3
				},
				"metallicFactor":0,
				"roughnessFactor":0.8999999761581421
			}
		},
		{
			"alphaMode":"BLEND",
			"doubleSided":true,
			"name":"nature_blossoms_prunusserrulata_01_m_0004.jpg",
			"pbrMetallicRoughness":{
				"baseColorTexture":{
					"index":4
				},
				"metallicFactor":0,
				"roughnessFactor":0.8999999761581421
			}
		},
		{
			"alphaMode":"BLEND",
			"doubleSided":true,
			"name":"nature_blossoms_prunusserrulata_01_m_0005.jpg",
			"pbrMetallicRoughness":{
				"baseColorTexture":{
					"index":5
				},
				"metallicFactor":0,
				"roughnessFactor":0.8999999761581421
			}
		},
		{
			"alphaMode":"BLEND",
			"doubleSided":true,
			"name":"nature_blossoms_prunusserrulata_01_m_0006.jpg",
			"pbrMetallicRoughness":{
				"baseColorTexture":{
					"index":6
				},
				"metallicFactor":0,
				"roughnessFactor":0.8999999761581421
			}
		}
	],
	"meshes":[
		{
			"name":"Object_0",
			"primitives":[
				{
					"attributes":{
						"POSITION":0,
						"NORMAL":1,
						"TEXCOORD_0":2
					},
					"indices":3,
					"material":0
				}
			]
		},
		{
			"name":"Object_1",
			"primitives":[
				{
					"attributes":{
						"POSITION":4,
						"NORMAL":5,
						"TEXCOORD_0":6
					},
					"indices":7,
					"material":1
				}
			]
		},
		{
			"name":"Object_2",
			"primitives":[
				{
					"attributes":{
						"POSITION":8,
						"NORMAL":9,
						"TEXCOORD_0":10
					},
					"indices":11,
					"material":2
				}
			]
		},
		{
			"name":"Object_3",
			"primitives":[
				{
					"attributes":{
						"POSITION":12,
						"NORMAL":13,
						"TEXCOORD_0":14
					},
					"indices":15,
					"material":3
				}
			]
		},
		{
			"name":"Object_4",
			"primitives":[
				{
					"attributes":{
						"POSITION":16,
						"NORMAL":17,
						"TEXCOORD_0":18
					},
					"indices":19,
					"material":4
				}
			]
		},
		{
			"name":"Object_5",
			"primitives":[
				{
					"attributes":{
						"POSITION":20,
						"NORMAL":21,
						"TEXCOORD_0":22
					},
					"indices":23,
					"material":5
				}
			]
		},
		{
			"name":"Object_6",
			"primitives":[
				{
					"attributes":{
						"POSITION":24,
						"NORMAL":25,
						"TEXCOORD_0":26
					},
					"indices":27,
					"material":6
				}
			]
		}
	],
	"textures":[
		{
			"sampler":0,
			"source":0
		},
		{
			"sampler":0,
			"source":1
		},
		{
			"sampler":0,
			"source":2
		},
		{
			"sampler":0,
			"source":3
		},
		{
			"sampler":0,
			"source":4
		},
		{
			"sampler":0,
			"source":5
		},
		{
			"sampler":0,
			"source":6
		}
	],
	"images":[
		{
			"mimeType":"image/jpeg",
			"name":"nature_bark_linden_02_m_0001.jpg_baseColor",
			"uri":"nature_bark_linden_02_m_0001.jpg_baseColor.jpg"
		},
		{
			"mimeType":"image/png",
			"name":"nature_blossoms_prunusserrulata_01_m_0001.jpg_baseColor",
			"uri":"nature_blossoms_prunusserrulata_01_m_0001.jpg_baseColor.png"
		},
		{
			"mimeType":"image/png",
			"name":"nature_blossoms_prunusserrulata_01_m_0002.jpg_baseColor",
			"uri":"nature_blossoms_prunusserrulata_01_m_0002.jpg_baseColor.png"
		},
		{
			"mimeType":"image/png",
			"name":"nature_blossoms_prunusserrulata_01_m_0003.jpg_baseColor",
			"uri":"nature_blossoms_prunusserrulata_01_m_0003.jpg_baseColor.png"
		},
		{
			"mimeType":"image/png",
			"name":"nature_blossoms_prunusserrulata_01_m_0004.jpg_baseColor",
			"uri":"nature_blossoms_prunusserrulata_01_m_0004.jpg_baseColor.png"
		},
		{
			"mimeType":"image/png",
			"name":"nature_blossoms_prunusserrulata_01_m_0005.jpg_baseColor",
			"uri":"nature_blossoms_prunusserrulata_01_m_0005.jpg_baseColor.png"
		},
		{
			"mimeType":"image/png",
			"name":"nature_blossoms_prunusserrulata_01_m_0006.jpg_baseColor",
			"uri":"nature_blossoms_prunusserrulata_01_m_0006.jpg_baseColor.png"
		}
	],
	"accessors":[
		{
			"bufferView":0,
			"componentType":5126,
			"count":2095,
			"max":[
				1.6813249588012695,
				0.28227698802948,
				5.594541072845459
			],
			"min":[
				-1.791509985923767,
				-3.240506887435913,
				0
			],
			"type":"VEC3"
		},
		{
			"bufferView":1,
			"componentType":5126,
			"count":2095,
			"type":"VEC3"
		},
		{
			"bufferView":2,
			"componentType":5126,
			"count":2095,
			"type":"VEC2"
		},
		{
			"bufferView":3,
			"componentType":5123,
			"count":10992,
			"type":"SCALAR"
		},
		{
			"bufferView":4,
			"componentType":5126,
			"count":416,
			"max":[
				5.055356979370117,
				2.7693419456481934,
				9.234360694885254
			],
			"min":[
				-5.169950008392334,
				-6.31330680847168,
				0.5846779942512512
			],
			"type":"VEC3"
		},
		{
			"bufferView":5,
			"componentType":5126,
			"count":416,
			"type":"VEC3"
		},
		{
			"bufferView":6,
			"componentType":5126,
			"count":416,
			"type":"VEC2"
		},
		{
			"bufferView":7,
			"componentType":5123,
			"count":624,
			"type":"SCALAR"
		},
		{
			"bufferView":8,
			"componentType":5126,
			"count":492,
			"max":[
				5.263560771942139,
				3.776124954223633,
				8.472412109375
			],
			"min":[
				-5.046656131744385,
				-6.789498805999756,
				1.2987020015716553
			],
			"type":"VEC3"
		},
		{
			"bufferView":9,
			"componentType":5126,
			"count":492,
			"type":"VEC3"
		},
		{
			"bufferView":10,
			"componentType":5126,
			"count":492,
			"type":"VEC2"
		},
		{
			"bufferView":11,
			"componentType":5123,
			"count":738,
			"type":"SCALAR"
		},
		{
			"bufferView":12,
			"componentType":5126,
			"count":476,
			"max":[
				5.4352569580078125,
				3.1213159561157227,
				8.717460632324219
			],
			"min":[
				-5.220829010009766,
				-6.916922092437744,
				0.5551990270614624
			],
			"type":"VEC3"
		},
		{
			"bufferView":13,
			"componentType":5126,
			"count":476,
			"type":"VEC3"
		},
		{
			"bufferView":14,
			"componentType":5126,
			"count":476,
			"type":"VEC2"
		},
		{
			"bufferView":15,
			"componentType":5123,
			"count":714,
			"type":"SCALAR"
		},
		{
			"bufferView":16,
			"componentType":5126,
			"count":472,
			"max":[
				5.221465110778809,
				3.7220840454101562,
				8.786117553710938
			],
			"min":[
				-4.733899116516113,
				-6.715872764587402,
				1.0228099822998047
			],
			"type":"VEC3"
		},
		{
			"bufferView":17,
			"componentType":5126,
			"count":472,
			"type":"VEC3"
		},
		{
			"bufferView":18,
			"componentType":5126,
			"count":472,
			"type":"VEC2"
		},
		{
			"bufferView":19,
			"componentType":5123,
			"count":708,
			"type":"SCALAR"
		},
		{
			"bufferView":20,
			"componentType":5126,
			"count":436,
			"max":[
				5.507788181304932,
				3.607063055038452,
				8.769120216369629
			],
			"min":[
				-4.987168788909912,
				-6.467090129852295,
				0.992497980594635
			],
			"type":"VEC3"
		},
		{
			"bufferView":21,
			"componentType":5126,
			"count":436,
			"type":"VEC3"
		},
		{
			"bufferView":22,
			"componentType":5126,
			"count":436,
			"type":"VEC2"
		},
		{
			"bufferView":23,
			"componentType":5123,
			"count":654,
			"type":"SCALAR"
		},
		{
			"bufferView":24,
			"componentType":5126,
			"count":454,
			"max":[
				5.2791948318481445,
				2.9549899101257324,
				8.955998420715332
			],
			"min":[
				-4.741608142852783,
				-6.829383850097656,
				1.899857997894287
			],
			"type":"VEC3"
		},
		{
			"bufferView":25,
			"componentType":5126,
			"count":454,
			"type":"VEC3"
		},
		{
			"bufferView":26,
			"componentType":5126,
			"count":454,
			"type":"VEC2"
		},
		{
			"bufferView":27,
			"componentType":5123,
			"count":678,
			"type":"SCALAR"
		}
	],
	"bufferViews":[
		{
			"buffer":0,
			"byteLength":25140,
			"byteOffset":0,
			"target":34962
		},
		{
			"buffer":0,
			"byteLength":25140,
			"byteOffset":25140,
			"target":34962
		},
		{
			"buffer":0,
			"byteLength":16760,
			"byteOffset":50280,
			"target":34962
		},
		{
			"buffer":0,
			"byteLength":21984,
			"byteOffset":67040,
			"target":34963
		},
		{
			"buffer":0,
			"byteLength":4992,
			"byteOffset":89024,
			"target":34962
		},
		{
			"buffer":0,
			"byteLength":4992,
			"byteOffset":94016,
			"target":34962
		},
		{
			"buffer":0,
			"byteLength":3328,
			"byteOffset":99008,
			"target":34962
		},
		{
			"buffer":0,
			"byteLength":1248,
			"byteOffset":102336,
			"target":34963
		},
		{
			"buffer":0,
			"byteLength":5904,
			"byteOffset":103584,
			"target":34962
		},
		{
			"buffer":0,
			"byteLength":5904,
			"byteOffset":109488,
			"target":34962
		},
		{
			"buffer":0,
			"byteLength":3936,
			"byteOffset":115392,
			"target":34962
		},
		{
			"buffer":0,
			"byteLength":1476,
			"byteOffset":119328,
			"target":34963
		},
		{
			"buffer":0,
			"byteLength":5712,
			"byteOffset":120804,
			"target":34962
		},
		{
			"buffer":0,
			"byteLength":5712,
			"byteOffset":126516,
			"target":34962
		},
		{
			"buffer":0,
			"byteLength":3808,
			"byteOffset":132228,
			"target":34962
		},
		{
			"buffer":0,
			"byteLength":1428,
			"byteOffset":136036,
			"target":34963
		},
		{
			"buffer":0,
			"byteLength":5664,
			"byteOffset":137464,
			"target":34962
		},
		{
			"buffer":0,
			"byteLength":5664,
			"byteOffset":143128,
			"target":34962
		},
		{
			"buffer":0,
			"byteLength":3776,
			"byteOffset":148792,
			"target":34962
		},
		{
			"buffer":0,
			"byteLength":1416,
			"byteOffset":152568,
			"target":34963
		},
		{
			"buffer":0,
			"byteLength":5232,
			"byteOffset":153984,
			"target":34962
		},
		{
			"buffer":0,
			"byteLength":5232,
			"byteOffset":159216,
			"target":34962
		},
		{
			"buffer":0,
			"byteLength":3488,
			"byteOffset":164448,
			"target":34962
		},
		{
			"buffer":0,
			"byteLength":1308,
			"byteOffset":167936,
			"target":34963
		},
		{
			"buffer":0,
			"byteLength":5448,
			"byteOffset":169244,
			"target":34962
		},
		{
			"buffer":0,
			"byteLength":5448,
			"byteOffset":174692,
			"target":34962
		},
		{
			"buffer":0,
			"byteLength":3632,
			"byteOffset":180140,
			"target":34962
		},
		{
			"buffer":0,
			"byteLength":1356,
			"byteOffset":183772,
			"target":34963
		}
	],
	"samplers":[
		{
			"magFilter":9729,
			"minFilter":9987
		}
	],
	"buffers":[
		{
			"byteLength":185128,
			"uri":"Cherry_others1.bin"
		}
	]
}
