{
	"asset":{
		"generator":"Khronos glTF Blender I/O v5.1.19",
		"version":"2.0"
	},
	"scene":0,
	"scenes":[
		{
			"name":"Scene",
			"nodes":[
				0,
				1
			]
		}
	],
	"nodes":[
		{
			"mesh":0,
			"name":"cherry_3_Tree_0Mat_0",
			"translation":[
				-0.280609130859375,
				0,
				-1.7563157081604004
			]
		},
		{
			"mesh":1,
			"name":"cherry_3_Tree_1Mat_0",
			"translation":[
				-0.280609130859375,
				0,
				-1.7563157081604004
			]
		}
	],
	"materials":[
		{
			"doubleSided":true,
			"name":"Tree_0Mat_4",
			"normalTexture":{
				"index":0
			},
			"occlusionTexture":{
				"index":1
			},
			"pbrMetallicRoughness":{
				"baseColorTexture":{
					"index":2
				},
				"metallicFactor":0,
				"metallicRoughnessTexture":{
					"index":1
				}
			}
		},
		{
			"alphaMode":"BLEND",
			"doubleSided":true,
			"name":"Tree_1Mat_4",
			"pbrMetallicRoughness":{
				"baseColorTexture":{
					"index":3
				},
				"metallicFactor":0,
				"roughnessFactor":0.9577051401138306
			}
		}
	],
	"meshes":[
		{
			"name":"cherry_3_Tree_0Mat_0",
			"primitives":[
				{
					"attributes":{
						"POSITION":0,
						"NORMAL":1,
						"TEXCOORD_0":2
					},
					"indices":3,
					"material":0
				}
			]
		},
		{
			"name":"cherry_3_Tree_1Mat_0",
			"primitives":[
				{
					"attributes":{
						"POSITION":4,
						"NORMAL":5,
						"TEXCOORD_0":6
					},
					"indices":7,
					"material":1
				}
			]
		}
	],
	"textures":[
		{
			"sampler":0,
			"source":0
		},
		{
			"sampler":0,
			"source":1
		},
		{
			"sampler":0,
			"source":2
		},
		{
			"sampler":0,
			"source":3
		}
	],
	"images":[
		{
			"mimeType":"image/png",
			"name":"Tree_0Mat_normal",
			"uri":"Tree_0Mat_normal.png"
		},
		{
			"mimeType":"image/png",
			"name":"Tree_0Mat_metallicRoughness",
			"uri":"Tree_0Mat_metallicRoughness.png"
		},
		{
			"mimeType":"image/png",
			"name":"Tree_0Mat_baseColor",
			"uri":"Tree_0Mat_baseColor.png"
		},
		{
			"mimeType":"image/png",
			"name":"Tree_1Mat_baseColor",
			"uri":"Tree_1Mat_baseColor.png"
		}
	],
	"accessors":[
		{
			"bufferView":0,
			"componentType":5126,
			"count":10279,
			"max":[
				72.4513931274414,
				167.03192138671875,
				102.62830352783203
			],
			"min":[
				-74.16155242919922,
				0,
				-86.84916687011719
			],
			"type":"VEC3"
		},
		{
			"bufferView":1,
			"componentType":5126,
			"count":10279,
			"type":"VEC3"
		},
		{
			"bufferView":2,
			"componentType":5126,
			"count":10279,
			"type":"VEC2"
		},
		{
			"bufferView":3,
			"componentType":5123,
			"count":46593,
			"type":"SCALAR"
		},
		{
			"bufferView":4,
			"componentType":5126,
			"count":13200,
			"max":[
				85.14640045166016,
				177.028564453125,
				114.53124237060547
			],
			"min":[
				-85.96959686279297,
				52.925010681152344,
				-93.64254760742188
			],
			"type":"VEC3"
		},
		{
			"bufferView":5,
			"componentType":5126,
			"count":13200,
			"type":"VEC3"
		},
		{
			"bufferView":6,
			"componentType":5126,
			"count":13200,
			"type":"VEC2"
		},
		{
			"bufferView":7,
			"componentType":5123,
			"count":28800,
			"type":"SCALAR"
		}
	],
	"bufferViews":[
		{
			"buffer":0,
			"byteLength":123348,
			"byteOffset":0,
			"target":34962
		},
		{
			"buffer":0,
			"byteLength":123348,
			"byteOffset":123348,
			"target":34962
		},
		{
			"buffer":0,
			"byteLength":82232,
			"byteOffset":246696,
			"target":34962
		},
		{
			"buffer":0,
			"byteLength":93186,
			"byteOffset":328928,
			"target":34963
		},
		{
			"buffer":0,
			"byteLength":158400,
			"byteOffset":422116,
			"target":34962
		},
		{
			"buffer":0,
			"byteLength":158400,
			"byteOffset":580516,
			"target":34962
		},
		{
			"buffer":0,
			"byteLength":105600,
			"byteOffset":738916,
			"target":34962
		},
		{
			"buffer":0,
			"byteLength":57600,
			"byteOffset":844516,
			"target":34963
		}
	],
	"samplers":[
		{
			"magFilter":9729,
			"minFilter":9987
		}
	],
	"buffers":[
		{
			"byteLength":902116,
			"uri":"Cherry3.bin"
		}
	]
}
