{
	"asset":{
		"generator":"Khronos glTF Blender I/O v5.1.19",
		"version":"2.0"
	},
	"scene":0,
	"scenes":[
		{
			"name":"Scene",
			"nodes":[
				0,
				1
			]
		}
	],
	"nodes":[
		{
			"mesh":0,
			"name":"cherry_2_Tree_0Mat_0",
			"translation":[
				0,
				0,
				-2.4599995613098145
			]
		},
		{
			"mesh":1,
			"name":"cherry_2_Tree_1Mat_0",
			"translation":[
				0,
				0,
				-2.4599995613098145
			]
		}
	],
	"materials":[
		{
			"doubleSided":true,
			"name":"Tree_0Mat_2",
			"normalTexture":{
				"index":0
			},
			"occlusionTexture":{
				"index":1
			},
			"pbrMetallicRoughness":{
				"baseColorTexture":{
					"index":2
				},
				"metallicFactor":0,
				"metallicRoughnessTexture":{
					"index":1
				}
			}
		},
		{
			"alphaMode":"BLEND",
			"doubleSided":true,
			"name":"Tree_1Mat_2",
			"pbrMetallicRoughness":{
				"baseColorTexture":{
					"index":3
				},
				"metallicFactor":0,
				"roughnessFactor":0.9577051401138306
			}
		}
	],
	"meshes":[
		{
			"name":"cherry_2_Tree_0Mat_0",
			"primitives":[
				{
					"attributes":{
						"POSITION":0,
						"NORMAL":1,
						"TEXCOORD_0":2
					},
					"indices":3,
					"material":0
				}
			]
		},
		{
			"name":"cherry_2_Tree_1Mat_0",
			"primitives":[
				{
					"attributes":{
						"POSITION":4,
						"NORMAL":5,
						"TEXCOORD_0":6
					},
					"indices":7,
					"material":1
				}
			]
		}
	],
	"textures":[
		{
			"sampler":0,
			"source":0
		},
		{
			"sampler":0,
			"source":1
		},
		{
			"sampler":0,
			"source":2
		},
		{
			"sampler":0,
			"source":3
		}
	],
	"images":[
		{
			"mimeType":"image/png",
			"name":"Tree_0Mat_normal",
			"uri":"Tree_0Mat_normal.png"
		},
		{
			"mimeType":"image/png",
			"name":"Tree_0Mat_metallicRoughness",
			"uri":"Tree_0Mat_metallicRoughness.png"
		},
		{
			"mimeType":"image/png",
			"name":"Tree_0Mat_baseColor",
			"uri":"Tree_0Mat_baseColor.png"
		},
		{
			"mimeType":"image/png",
			"name":"Tree_1Mat_baseColor",
			"uri":"Tree_1Mat_baseColor.png"
		}
	],
	"accessors":[
		{
			"bufferView":0,
			"componentType":5126,
			"count":10706,
			"max":[
				81.18827819824219,
				168.02859497070312,
				80.86222076416016
			],
			"min":[
				-79.55243682861328,
				0,
				-82.66242218017578
			],
			"type":"VEC3"
		},
		{
			"bufferView":1,
			"componentType":5126,
			"count":10706,
			"type":"VEC3"
		},
		{
			"bufferView":2,
			"componentType":5126,
			"count":10706,
			"type":"VEC2"
		},
		{
			"bufferView":3,
			"componentType":5123,
			"count":48627,
			"type":"SCALAR"
		},
		{
			"bufferView":4,
			"componentType":5126,
			"count":13200,
			"max":[
				94.80362701416016,
				180.9082794189453,
				96.27140045166016
			],
			"min":[
				-89.8044662475586,
				42.37123107910156,
				-94.3923568725586
			],
			"type":"VEC3"
		},
		{
			"bufferView":5,
			"componentType":5126,
			"count":13200,
			"type":"VEC3"
		},
		{
			"bufferView":6,
			"componentType":5126,
			"count":13200,
			"type":"VEC2"
		},
		{
			"bufferView":7,
			"componentType":5123,
			"count":28800,
			"type":"SCALAR"
		}
	],
	"bufferViews":[
		{
			"buffer":0,
			"byteLength":128472,
			"byteOffset":0,
			"target":34962
		},
		{
			"buffer":0,
			"byteLength":128472,
			"byteOffset":128472,
			"target":34962
		},
		{
			"buffer":0,
			"byteLength":85648,
			"byteOffset":256944,
			"target":34962
		},
		{
			"buffer":0,
			"byteLength":97254,
			"byteOffset":342592,
			"target":34963
		},
		{
			"buffer":0,
			"byteLength":158400,
			"byteOffset":439848,
			"target":34962
		},
		{
			"buffer":0,
			"byteLength":158400,
			"byteOffset":598248,
			"target":34962
		},
		{
			"buffer":0,
			"byteLength":105600,
			"byteOffset":756648,
			"target":34962
		},
		{
			"buffer":0,
			"byteLength":57600,
			"byteOffset":862248,
			"target":34963
		}
	],
	"samplers":[
		{
			"magFilter":9729,
			"minFilter":9987
		}
	],
	"buffers":[
		{
			"byteLength":919848,
			"uri":"Cherry2.bin"
		}
	]
}
