{
	"asset":{
		"generator":"Khronos glTF Blender I/O v5.1.19",
		"version":"2.0"
	},
	"scene":0,
	"scenes":[
		{
			"name":"Scene",
			"nodes":[
				0,
				1
			]
		}
	],
	"nodes":[
		{
			"mesh":0,
			"name":"cherry_2_lod_Tree_0Mat_0",
			"translation":[
				0,
				0,
				-0.24954992532730103
			]
		},
		{
			"mesh":1,
			"name":"cherry_2_lod_Tree_1Mat_0",
			"translation":[
				0,
				0,
				-0.24954992532730103
			]
		}
	],
	"materials":[
		{
			"doubleSided":true,
			"name":"Tree_0Mat_1",
			"normalTexture":{
				"index":0
			},
			"occlusionTexture":{
				"index":1
			},
			"pbrMetallicRoughness":{
				"baseColorTexture":{
					"index":2
				},
				"metallicFactor":0,
				"metallicRoughnessTexture":{
					"index":1
				}
			}
		},
		{
			"alphaMode":"BLEND",
			"doubleSided":true,
			"name":"Tree_1Mat_1",
			"pbrMetallicRoughness":{
				"baseColorTexture":{
					"index":3
				},
				"metallicFactor":0,
				"roughnessFactor":0.9577051401138306
			}
		}
	],
	"meshes":[
		{
			"name":"cherry_2_lod_Tree_0Mat_0",
			"primitives":[
				{
					"attributes":{
						"POSITION":0,
						"NORMAL":1,
						"TEXCOORD_0":2
					},
					"indices":3,
					"material":0
				}
			]
		},
		{
			"name":"cherry_2_lod_Tree_1Mat_0",
			"primitives":[
				{
					"attributes":{
						"POSITION":4,
						"NORMAL":5,
						"TEXCOORD_0":6
					},
					"indices":7,
					"material":1
				}
			]
		}
	],
	"textures":[
		{
			"sampler":0,
			"source":0
		},
		{
			"sampler":0,
			"source":1
		},
		{
			"sampler":0,
			"source":2
		},
		{
			"sampler":0,
			"source":3
		}
	],
	"images":[
		{
			"mimeType":"image/png",
			"name":"Tree_0Mat_normal",
			"uri":"Tree_0Mat_normal.png"
		},
		{
			"mimeType":"image/png",
			"name":"Tree_0Mat_metallicRoughness",
			"uri":"Tree_0Mat_metallicRoughness.png"
		},
		{
			"mimeType":"image/png",
			"name":"Tree_0Mat_baseColor",
			"uri":"Tree_0Mat_baseColor.png"
		},
		{
			"mimeType":"image/png",
			"name":"Tree_1Mat_baseColor",
			"uri":"Tree_1Mat_baseColor.png"
		}
	],
	"accessors":[
		{
			"bufferView":0,
			"componentType":5126,
			"count":4286,
			"max":[
				78.1256103515625,
				166.29017639160156,
				81.24172973632812
			],
			"min":[
				-65.54268646240234,
				0,
				-74.59956359863281
			],
			"type":"VEC3"
		},
		{
			"bufferView":1,
			"componentType":5126,
			"count":4286,
			"type":"VEC3"
		},
		{
			"bufferView":2,
			"componentType":5126,
			"count":4286,
			"type":"VEC2"
		},
		{
			"bufferView":3,
			"componentType":5123,
			"count":16383,
			"type":"SCALAR"
		},
		{
			"bufferView":4,
			"componentType":5126,
			"count":13200,
			"max":[
				92.95039367675781,
				175.9411163330078,
				96.41483306884766
			],
			"min":[
				-67.95535278320312,
				50.98752975463867,
				-85.95207977294922
			],
			"type":"VEC3"
		},
		{
			"bufferView":5,
			"componentType":5126,
			"count":13200,
			"type":"VEC3"
		},
		{
			"bufferView":6,
			"componentType":5126,
			"count":13200,
			"type":"VEC2"
		},
		{
			"bufferView":7,
			"componentType":5123,
			"count":28800,
			"type":"SCALAR"
		}
	],
	"bufferViews":[
		{
			"buffer":0,
			"byteLength":51432,
			"byteOffset":0,
			"target":34962
		},
		{
			"buffer":0,
			"byteLength":51432,
			"byteOffset":51432,
			"target":34962
		},
		{
			"buffer":0,
			"byteLength":34288,
			"byteOffset":102864,
			"target":34962
		},
		{
			"buffer":0,
			"byteLength":32766,
			"byteOffset":137152,
			"target":34963
		},
		{
			"buffer":0,
			"byteLength":158400,
			"byteOffset":169920,
			"target":34962
		},
		{
			"buffer":0,
			"byteLength":158400,
			"byteOffset":328320,
			"target":34962
		},
		{
			"buffer":0,
			"byteLength":105600,
			"byteOffset":486720,
			"target":34962
		},
		{
			"buffer":0,
			"byteLength":57600,
			"byteOffset":592320,
			"target":34963
		}
	],
	"samplers":[
		{
			"magFilter":9729,
			"minFilter":9987
		}
	],
	"buffers":[
		{
			"byteLength":649920,
			"uri":"Cherry2_LOD.bin"
		}
	]
}
