{
	"asset":{
		"generator":"Khronos glTF Blender I/O v5.1.19",
		"version":"2.0"
	},
	"scene":0,
	"scenes":[
		{
			"name":"Scene",
			"nodes":[
				0,
				1
			]
		}
	],
	"nodes":[
		{
			"mesh":0,
			"name":"cherry_1_lod_Tree_0Mat_0",
			"translation":[
				0.7200088500976562,
				7.62939453125e-06,
				0.28153616189956665
			]
		},
		{
			"mesh":1,
			"name":"cherry_1_lod_Tree_1Mat_0",
			"translation":[
				0.7200088500976562,
				7.62939453125e-06,
				0.28153616189956665
			]
		}
	],
	"materials":[
		{
			"doubleSided":true,
			"name":"Tree_0Mat",
			"normalTexture":{
				"index":0
			},
			"occlusionTexture":{
				"index":1
			},
			"pbrMetallicRoughness":{
				"baseColorTexture":{
					"index":2
				},
				"metallicFactor":0,
				"metallicRoughnessTexture":{
					"index":1
				}
			}
		},
		{
			"alphaMode":"BLEND",
			"doubleSided":true,
			"name":"Tree_1Mat",
			"pbrMetallicRoughness":{
				"baseColorTexture":{
					"index":3
				},
				"metallicFactor":0,
				"roughnessFactor":0.9577051401138306
			}
		}
	],
	"meshes":[
		{
			"name":"cherry_1_lod_Tree_0Mat_0",
			"primitives":[
				{
					"attributes":{
						"POSITION":0,
						"NORMAL":1,
						"TEXCOORD_0":2
					},
					"indices":3,
					"material":0
				}
			]
		},
		{
			"name":"cherry_1_lod_Tree_1Mat_0",
			"primitives":[
				{
					"attributes":{
						"POSITION":4,
						"NORMAL":5,
						"TEXCOORD_0":6
					},
					"indices":7,
					"material":1
				}
			]
		}
	],
	"textures":[
		{
			"sampler":0,
			"source":0
		},
		{
			"sampler":0,
			"source":1
		},
		{
			"sampler":0,
			"source":2
		},
		{
			"sampler":0,
			"source":3
		}
	],
	"images":[
		{
			"mimeType":"image/png",
			"name":"Tree_0Mat_normal",
			"uri":"Tree_0Mat_normal.png"
		},
		{
			"mimeType":"image/png",
			"name":"Tree_0Mat_metallicRoughness",
			"uri":"Tree_0Mat_metallicRoughness.png"
		},
		{
			"mimeType":"image/png",
			"name":"Tree_0Mat_baseColor",
			"uri":"Tree_0Mat_baseColor.png"
		},
		{
			"mimeType":"image/png",
			"name":"Tree_1Mat_baseColor",
			"uri":"Tree_1Mat_baseColor.png"
		}
	],
	"accessors":[
		{
			"bufferView":0,
			"componentType":5126,
			"count":7483,
			"max":[
				73.44242858886719,
				168.42604064941406,
				93.59583282470703
			],
			"min":[
				-82.21304321289062,
				0,
				-73.60246276855469
			],
			"type":"VEC3"
		},
		{
			"bufferView":1,
			"componentType":5126,
			"count":7483,
			"type":"VEC3"
		},
		{
			"bufferView":2,
			"componentType":5126,
			"count":7483,
			"type":"VEC2"
		},
		{
			"bufferView":3,
			"componentType":5123,
			"count":17151,
			"type":"SCALAR"
		},
		{
			"bufferView":4,
			"componentType":5126,
			"count":13200,
			"max":[
				84.93311309814453,
				180.62332153320312,
				106.17768096923828
			],
			"min":[
				-92.36741638183594,
				54.85184097290039,
				-89.70494842529297
			],
			"type":"VEC3"
		},
		{
			"bufferView":5,
			"componentType":5126,
			"count":13200,
			"type":"VEC3"
		},
		{
			"bufferView":6,
			"componentType":5126,
			"count":13200,
			"type":"VEC2"
		},
		{
			"bufferView":7,
			"componentType":5123,
			"count":28800,
			"type":"SCALAR"
		}
	],
	"bufferViews":[
		{
			"buffer":0,
			"byteLength":89796,
			"byteOffset":0,
			"target":34962
		},
		{
			"buffer":0,
			"byteLength":89796,
			"byteOffset":89796,
			"target":34962
		},
		{
			"buffer":0,
			"byteLength":59864,
			"byteOffset":179592,
			"target":34962
		},
		{
			"buffer":0,
			"byteLength":34302,
			"byteOffset":239456,
			"target":34963
		},
		{
			"buffer":0,
			"byteLength":158400,
			"byteOffset":273760,
			"target":34962
		},
		{
			"buffer":0,
			"byteLength":158400,
			"byteOffset":432160,
			"target":34962
		},
		{
			"buffer":0,
			"byteLength":105600,
			"byteOffset":590560,
			"target":34962
		},
		{
			"buffer":0,
			"byteLength":57600,
			"byteOffset":696160,
			"target":34963
		}
	],
	"samplers":[
		{
			"magFilter":9729,
			"minFilter":9987
		}
	],
	"buffers":[
		{
			"byteLength":753760,
			"uri":"Cherry1_LOD.bin"
		}
	]
}
