{
	"asset":{
		"generator":"Khronos glTF Blender I/O v5.1.19",
		"version":"2.0"
	},
	"scene":0,
	"scenes":[
		{
			"name":"Scene",
			"nodes":[
				0,
				1
			]
		}
	],
	"nodes":[
		{
			"mesh":0,
			"name":"cherrry_3_lod_Tree_0Mat_0",
			"translation":[
				-0.220977783203125,
				0,
				-3.036553144454956
			]
		},
		{
			"mesh":1,
			"name":"cherrry_3_lod_Tree_1Mat_0",
			"translation":[
				-0.220977783203125,
				0,
				-3.036553144454956
			]
		}
	],
	"materials":[
		{
			"doubleSided":true,
			"name":"Tree_0Mat_3",
			"normalTexture":{
				"index":0
			},
			"occlusionTexture":{
				"index":1
			},
			"pbrMetallicRoughness":{
				"baseColorTexture":{
					"index":2
				},
				"metallicFactor":0,
				"metallicRoughnessTexture":{
					"index":1
				}
			}
		},
		{
			"alphaMode":"BLEND",
			"doubleSided":true,
			"name":"Tree_1Mat_3",
			"pbrMetallicRoughness":{
				"baseColorTexture":{
					"index":3
				},
				"metallicFactor":0,
				"roughnessFactor":0.9577051401138306
			}
		}
	],
	"meshes":[
		{
			"name":"cherrry_3_lod_Tree_0Mat_0",
			"primitives":[
				{
					"attributes":{
						"POSITION":0,
						"NORMAL":1,
						"TEXCOORD_0":2
					},
					"indices":3,
					"material":0
				}
			]
		},
		{
			"name":"cherrry_3_lod_Tree_1Mat_0",
			"primitives":[
				{
					"attributes":{
						"POSITION":4,
						"NORMAL":5,
						"TEXCOORD_0":6
					},
					"indices":7,
					"material":1
				}
			]
		}
	],
	"textures":[
		{
			"sampler":0,
			"source":0
		},
		{
			"sampler":0,
			"source":1
		},
		{
			"sampler":0,
			"source":2
		},
		{
			"sampler":0,
			"source":3
		}
	],
	"images":[
		{
			"mimeType":"image/png",
			"name":"Tree_0Mat_normal",
			"uri":"Tree_0Mat_normal.png"
		},
		{
			"mimeType":"image/png",
			"name":"Tree_0Mat_metallicRoughness",
			"uri":"Tree_0Mat_metallicRoughness.png"
		},
		{
			"mimeType":"image/png",
			"name":"Tree_0Mat_baseColor",
			"uri":"Tree_0Mat_baseColor.png"
		},
		{
			"mimeType":"image/png",
			"name":"Tree_1Mat_baseColor",
			"uri":"Tree_1Mat_baseColor.png"
		}
	],
	"accessors":[
		{
			"bufferView":0,
			"componentType":5126,
			"count":4331,
			"max":[
				76.06543731689453,
				168.47784423828125,
				92.40263366699219
			],
			"min":[
				-79.61781311035156,
				0,
				-84.51777648925781
			],
			"type":"VEC3"
		},
		{
			"bufferView":1,
			"componentType":5126,
			"count":4331,
			"type":"VEC3"
		},
		{
			"bufferView":2,
			"componentType":5126,
			"count":4331,
			"type":"VEC2"
		},
		{
			"bufferView":3,
			"componentType":5123,
			"count":16545,
			"type":"SCALAR"
		},
		{
			"bufferView":4,
			"componentType":5126,
			"count":13200,
			"max":[
				90.06559753417969,
				178.78932189941406,
				104.57510375976562
			],
			"min":[
				-87.537841796875,
				53.06367111206055,
				-93.17823791503906
			],
			"type":"VEC3"
		},
		{
			"bufferView":5,
			"componentType":5126,
			"count":13200,
			"type":"VEC3"
		},
		{
			"bufferView":6,
			"componentType":5126,
			"count":13200,
			"type":"VEC2"
		},
		{
			"bufferView":7,
			"componentType":5123,
			"count":28800,
			"type":"SCALAR"
		}
	],
	"bufferViews":[
		{
			"buffer":0,
			"byteLength":51972,
			"byteOffset":0,
			"target":34962
		},
		{
			"buffer":0,
			"byteLength":51972,
			"byteOffset":51972,
			"target":34962
		},
		{
			"buffer":0,
			"byteLength":34648,
			"byteOffset":103944,
			"target":34962
		},
		{
			"buffer":0,
			"byteLength":33090,
			"byteOffset":138592,
			"target":34963
		},
		{
			"buffer":0,
			"byteLength":158400,
			"byteOffset":171684,
			"target":34962
		},
		{
			"buffer":0,
			"byteLength":158400,
			"byteOffset":330084,
			"target":34962
		},
		{
			"buffer":0,
			"byteLength":105600,
			"byteOffset":488484,
			"target":34962
		},
		{
			"buffer":0,
			"byteLength":57600,
			"byteOffset":594084,
			"target":34963
		}
	],
	"samplers":[
		{
			"magFilter":9729,
			"minFilter":9987
		}
	],
	"buffers":[
		{
			"byteLength":651684,
			"uri":"Cherry3_LOD.bin"
		}
	]
}
